M48
; DRILL file {KiCad (6.0.0)} date Tue Feb  1 22:46:11 2022
; FORMAT={-:-/ absolute / inch / decimal}
; #@! TF.CreationDate,2022-02-01T22:46:11+00:00
; #@! TF.GenerationSoftware,Kicad,Pcbnew,(6.0.0)
; #@! TF.FileFunction,Plated,1,2,PTH
FMAT,2
INCH
; #@! TA.AperFunction,Plated,PTH,ViaDrill
T1C0.0120
; #@! TA.AperFunction,Plated,PTH,ViaDrill
T2C0.0157
; #@! TA.AperFunction,Plated,PTH,ViaDrill
T3C0.0200
; #@! TA.AperFunction,Plated,PTH,ComponentDrill
T4C0.0250
; #@! TA.AperFunction,Plated,PTH,ComponentDrill
T5C0.0287
; #@! TA.AperFunction,Plated,PTH,ComponentDrill
T6C0.0315
; #@! TA.AperFunction,Plated,PTH,ComponentDrill
T7C0.0354
; #@! TA.AperFunction,Plated,PTH,ComponentDrill
T8C0.0394
; #@! TA.AperFunction,Plated,PTH,ComponentDrill
T9C0.0400
; #@! TA.AperFunction,Plated,PTH,ComponentDrill
T10C0.0512
; #@! TA.AperFunction,Plated,PTH,ComponentDrill
T11C0.1220
%
G90
G05
T1
X5.7499Y-4.3806
X5.9589Y-4.3426
X5.9589Y-4.38
X6.468Y-4.432
X6.469Y-4.123
X6.701Y-4.122
X6.745Y-4.444
X6.749Y-3.5
X6.841Y-4.465
X6.855Y-3.525
X6.94Y-4.483
X6.981Y-3.546
X7.039Y-3.577
X7.05Y-4.491
X7.14Y-4.491
X7.25Y-4.508
X7.344Y-4.506
X7.618Y-3.522
X7.656Y-3.47
X7.665Y-3.276
X7.68Y-3.359
X8.118Y-4.414
X8.141Y-4.437
X8.165Y-4.459
X8.195Y-4.483
T2
X4.851Y-3.818
X4.858Y-3.526
X4.885Y-2.648
X4.9063Y-2.6868
X4.9424Y-2.6916
X4.96Y-3.385
X4.975Y-2.693
X5.016Y-2.711
X5.023Y-4.768
X5.199Y-2.72
X5.279Y-3.426
X5.311Y-3.368
X5.389Y-3.631
X5.461Y-3.543
X5.57Y-3.565
X5.71Y-3.178
X5.742Y-3.23
X5.7613Y-3.4038
X5.765Y-3.369
X5.8459Y-4.2406
X5.901Y-3.959
X5.97Y-3.138
X5.9915Y-3.1776
X6.02Y-4.042
X6.036Y-3.394
X6.295Y-2.885
X6.3456Y-3.2724
X6.435Y-4.065
X6.441Y-3.064
X6.442Y-3.689
X6.461Y-2.6531
X6.511Y-2.997
X6.52Y-3.93
X6.532Y-3.311
X6.533Y-4.287
X6.57Y-2.6531
X6.608Y-2.643
X6.634Y-2.997
X6.638Y-3.689
X6.698Y-3.609
X6.701Y-2.888
X6.748Y-3.372
X6.802Y-3.955
X6.828Y-2.884
X6.901Y-3.87
X7.201Y-3.643
X7.201Y-3.699
X7.202Y-3.785
X7.3Y-4.125
X7.402Y-3.995
X7.5Y-4.287
X7.501Y-3.311
X7.502Y-3.267
T3
X5.6729Y-4.2276
X5.6729Y-4.4276
X5.7729Y-4.5446
X5.9639Y-4.5456
X5.9749Y-4.2496
X6.0849Y-4.4526
T4
X6.374Y-4.2213
X6.374Y-4.3
X6.374Y-4.3787
T5
X6.601Y-3.118
X6.601Y-3.4306
X6.601Y-4.0534
X6.601Y-4.366
X6.701Y-3.118
X6.701Y-3.4306
X6.701Y-4.0534
X6.701Y-4.366
X6.801Y-3.118
X6.801Y-3.4306
X6.801Y-4.0534
X6.801Y-4.366
X6.901Y-3.118
X6.901Y-3.4306
X6.901Y-4.0534
X6.901Y-4.366
X7.001Y-3.118
X7.001Y-3.4306
X7.001Y-4.0534
X7.001Y-4.366
X7.101Y-3.118
X7.101Y-3.4306
X7.101Y-4.0534
X7.101Y-4.366
X7.201Y-3.118
X7.201Y-3.4306
X7.201Y-4.0534
X7.201Y-4.366
X7.301Y-3.118
X7.301Y-3.4306
X7.301Y-4.0534
X7.301Y-4.366
X7.401Y-3.118
X7.401Y-3.4306
X7.401Y-4.0534
X7.401Y-4.366
X7.501Y-3.118
X7.501Y-3.4306
X7.501Y-4.0534
X7.501Y-4.366
T6
X5.316Y-3.651
X5.316Y-3.751
X5.316Y-3.851
X5.316Y-3.951
X5.316Y-4.051
X5.316Y-4.151
X5.716Y-3.651
X5.716Y-3.751
X5.716Y-3.851
X5.716Y-3.951
X5.716Y-4.051
X5.716Y-4.151
X6.2947Y-3.7576
X6.2947Y-3.8576
X6.2947Y-3.9576
T7
X5.1169Y-3.139
X5.2169Y-3.139
X5.9928Y-3.859
X6.0928Y-3.859
T8
X6.207Y-4.3058
X6.207Y-4.4058
X7.8922Y-3.2743
X7.8922Y-3.3593
X7.8922Y-3.4444
X7.8922Y-3.5294
X7.8922Y-3.6144
X7.8922Y-3.6995
X7.8922Y-3.7845
X7.8922Y-3.8696
X7.8922Y-3.9546
X7.8922Y-4.0396
X7.8922Y-4.1247
X7.8922Y-4.2097
X8.0611Y-3.2743
X8.0611Y-3.3593
X8.0611Y-3.4444
X8.0611Y-3.5294
X8.0611Y-3.6144
X8.0611Y-3.6995
X8.0611Y-3.7845
X8.0611Y-3.8696
X8.0611Y-3.9546
X8.0611Y-4.0396
X8.0611Y-4.1247
X8.0611Y-4.2097
T9
X4.81Y-2.79
X4.91Y-2.79
X5.01Y-2.79
X5.11Y-2.79
X5.17Y-4.69
X5.21Y-2.79
X5.27Y-4.69
X5.31Y-2.79
X5.37Y-4.69
X5.41Y-2.79
X5.47Y-4.69
X5.51Y-2.79
X5.57Y-4.69
X5.61Y-2.79
X5.67Y-4.69
X5.71Y-2.79
X5.77Y-4.69
X5.87Y-2.79
X5.87Y-4.69
X5.97Y-2.79
X6.07Y-2.79
X6.07Y-4.69
X6.17Y-2.79
X6.17Y-4.69
X6.27Y-2.79
X6.27Y-4.69
X6.37Y-2.79
X6.37Y-4.69
X6.47Y-2.79
X6.47Y-4.69
X6.57Y-2.79
X6.57Y-4.69
X6.67Y-4.69
X6.77Y-2.79
X6.77Y-4.69
X6.87Y-2.79
X6.97Y-2.79
X6.97Y-4.69
X7.07Y-2.79
X7.07Y-4.69
X7.17Y-2.79
X7.17Y-4.69
X7.27Y-2.79
X7.27Y-4.69
X7.37Y-2.79
X7.37Y-4.69
X7.47Y-2.79
X7.47Y-4.69
X7.57Y-4.69
X7.67Y-4.69
T10
X5.121Y-3.656
X5.121Y-3.756
X5.121Y-3.856
X5.121Y-3.956
X5.121Y-4.056
X5.121Y-4.156
T11
X7.9767Y-2.8207
X7.9767Y-4.6633
T0
M30
