%FSLAX45Y45*%
G04 Gerber Fmt 4.5, Leading zero omitted, Abs format (unit mm)*
G04 Created by KiCad (PCBNEW (6.0.0)) date 2022-02-01 22:46:16*
%MOMM*%
%LPD*%
G01*
G04 APERTURE LIST*
%TA.AperFunction,Profile*%
%ADD10C,0.150000*%
%TD*%
%ADD11C,0.200000*%
%ADD12C,0.030480*%
%ADD13C,0.040000*%
%ADD14C,0.050800*%
%ADD15C,0.063500*%
%ADD16C,0.073000*%
%ADD17C,0.080000*%
%ADD18C,0.090000*%
%ADD19C,0.100000*%
%ADD20C,0.101600*%
%ADD21C,0.130000*%
%ADD22C,0.310000*%
G04 APERTURE END LIST*
D10*
X11988800Y-12395200D02*
X11988800Y-6604000D01*
X21336000Y-12395200D02*
X11988800Y-12395200D01*
X21336000Y-12395200D02*
X21336000Y-6604000D01*
X11988800Y-6604000D02*
X21336000Y-6604000D01*
D11*
D12*
X14589380Y-11111480D02*
X14619860Y-11141960D01*
X14619860Y-11111480D02*
X14589380Y-11141960D01*
X15120240Y-11014960D02*
X15150720Y-11045440D01*
X15150720Y-11014960D02*
X15120240Y-11045440D01*
X15120240Y-11109961D02*
X15150720Y-11140441D01*
X15150720Y-11109961D02*
X15120240Y-11140441D01*
X16413480Y-11242040D02*
X16443960Y-11272520D01*
X16443960Y-11242040D02*
X16413480Y-11272520D01*
X16416020Y-10457180D02*
X16446500Y-10487660D01*
X16446500Y-10457180D02*
X16416020Y-10487660D01*
X17005300Y-10454640D02*
X17035780Y-10485120D01*
X17035780Y-10454640D02*
X17005300Y-10485120D01*
X17117060Y-11272520D02*
X17147540Y-11303000D01*
X17147540Y-11272520D02*
X17117060Y-11303000D01*
X17127220Y-8874760D02*
X17157700Y-8905240D01*
X17157700Y-8874760D02*
X17127220Y-8905240D01*
X17360900Y-11325860D02*
X17391380Y-11356340D01*
X17391380Y-11325860D02*
X17360900Y-11356340D01*
X17396460Y-8938260D02*
X17426940Y-8968740D01*
X17426940Y-8938260D02*
X17396460Y-8968740D01*
X17612360Y-11371580D02*
X17642840Y-11402060D01*
X17642840Y-11371580D02*
X17612360Y-11402060D01*
X17716500Y-8991600D02*
X17746980Y-9022080D01*
X17746980Y-8991600D02*
X17716500Y-9022080D01*
X17863820Y-9070340D02*
X17894300Y-9100820D01*
X17894300Y-9070340D02*
X17863820Y-9100820D01*
X17891760Y-11391900D02*
X17922240Y-11422380D01*
X17922240Y-11391900D02*
X17891760Y-11422380D01*
X18120360Y-11391900D02*
X18150840Y-11422380D01*
X18150840Y-11391900D02*
X18120360Y-11422380D01*
X18399760Y-11435080D02*
X18430240Y-11465560D01*
X18430240Y-11435080D02*
X18399760Y-11465560D01*
X18638520Y-11430000D02*
X18669000Y-11460480D01*
X18669000Y-11430000D02*
X18638520Y-11460480D01*
X19334480Y-8930640D02*
X19364960Y-8961120D01*
X19364960Y-8930640D02*
X19334480Y-8961120D01*
X19431000Y-8798560D02*
X19461480Y-8829040D01*
X19461480Y-8798560D02*
X19431000Y-8829040D01*
X19453860Y-8305800D02*
X19484340Y-8336280D01*
X19484340Y-8305800D02*
X19453860Y-8336280D01*
X19491960Y-8516620D02*
X19522440Y-8547100D01*
X19522440Y-8516620D02*
X19491960Y-8547100D01*
X20604480Y-11196320D02*
X20634960Y-11226800D01*
X20634960Y-11196320D02*
X20604480Y-11226800D01*
X20662900Y-11254740D02*
X20693380Y-11285220D01*
X20693380Y-11254740D02*
X20662900Y-11285220D01*
X20723860Y-11310620D02*
X20754340Y-11341100D01*
X20754340Y-11310620D02*
X20723860Y-11341100D01*
X20800060Y-11371580D02*
X20830540Y-11402060D01*
X20830540Y-11371580D02*
X20800060Y-11402060D01*
D13*
X12341540Y-9697720D02*
G75*
G03*
X12341540Y-9697720I-20000J0D01*
G01*
X12359320Y-8956040D02*
G75*
G03*
X12359320Y-8956040I-20000J0D01*
G01*
X12427900Y-6725920D02*
G75*
G03*
X12427900Y-6725920I-20000J0D01*
G01*
X12482041Y-6824376D02*
G75*
G03*
X12482041Y-6824376I-20000J0D01*
G01*
X12573785Y-6836787D02*
G75*
G03*
X12573785Y-6836787I-20000J0D01*
G01*
X12618400Y-8597900D02*
G75*
G03*
X12618400Y-8597900I-20000J0D01*
G01*
X12656500Y-6840220D02*
G75*
G03*
X12656500Y-6840220I-20000J0D01*
G01*
X12760640Y-6885940D02*
G75*
G03*
X12760640Y-6885940I-20000J0D01*
G01*
X12778420Y-12110720D02*
G75*
G03*
X12778420Y-12110720I-20000J0D01*
G01*
X13225460Y-6908800D02*
G75*
G03*
X13225460Y-6908800I-20000J0D01*
G01*
X13428660Y-8702040D02*
G75*
G03*
X13428660Y-8702040I-20000J0D01*
G01*
X13509940Y-8554720D02*
G75*
G03*
X13509940Y-8554720I-20000J0D01*
G01*
X13708060Y-9222740D02*
G75*
G03*
X13708060Y-9222740I-20000J0D01*
G01*
X13890940Y-8999220D02*
G75*
G03*
X13890940Y-8999220I-20000J0D01*
G01*
X14167800Y-9055100D02*
G75*
G03*
X14167800Y-9055100I-20000J0D01*
G01*
X14523400Y-8072120D02*
G75*
G03*
X14523400Y-8072120I-20000J0D01*
G01*
X14604680Y-8204200D02*
G75*
G03*
X14604680Y-8204200I-20000J0D01*
G01*
X14653594Y-8645608D02*
G75*
G03*
X14653594Y-8645608I-20000J0D01*
G01*
X14663100Y-8557260D02*
G75*
G03*
X14663100Y-8557260I-20000J0D01*
G01*
X14868460Y-10771120D02*
G75*
G03*
X14868460Y-10771120I-20000J0D01*
G01*
X15008540Y-10055860D02*
G75*
G03*
X15008540Y-10055860I-20000J0D01*
G01*
X15183800Y-7970520D02*
G75*
G03*
X15183800Y-7970520I-20000J0D01*
G01*
X15238335Y-8071081D02*
G75*
G03*
X15238335Y-8071081I-20000J0D01*
G01*
X15310800Y-10266680D02*
G75*
G03*
X15310800Y-10266680I-20000J0D01*
G01*
X15351440Y-8620760D02*
G75*
G03*
X15351440Y-8620760I-20000J0D01*
G01*
X16009300Y-7327900D02*
G75*
G03*
X16009300Y-7327900I-20000J0D01*
G01*
X16137800Y-8311920D02*
G75*
G03*
X16137800Y-8311920I-20000J0D01*
G01*
X16364900Y-10325100D02*
G75*
G03*
X16364900Y-10325100I-20000J0D01*
G01*
X16380140Y-7782560D02*
G75*
G03*
X16380140Y-7782560I-20000J0D01*
G01*
X16382680Y-9370060D02*
G75*
G03*
X16382680Y-9370060I-20000J0D01*
G01*
X16430940Y-6738947D02*
G75*
G03*
X16430940Y-6738947I-20000J0D01*
G01*
X16557940Y-7612380D02*
G75*
G03*
X16557940Y-7612380I-20000J0D01*
G01*
X16580800Y-9982200D02*
G75*
G03*
X16580800Y-9982200I-20000J0D01*
G01*
X16611280Y-8409940D02*
G75*
G03*
X16611280Y-8409940I-20000J0D01*
G01*
X16613820Y-10888980D02*
G75*
G03*
X16613820Y-10888980I-20000J0D01*
G01*
X16707800Y-6738947D02*
G75*
G03*
X16707800Y-6738947I-20000J0D01*
G01*
X16804320Y-6713220D02*
G75*
G03*
X16804320Y-6713220I-20000J0D01*
G01*
X16870360Y-7612380D02*
G75*
G03*
X16870360Y-7612380I-20000J0D01*
G01*
X16880520Y-9370060D02*
G75*
G03*
X16880520Y-9370060I-20000J0D01*
G01*
X17032920Y-9166860D02*
G75*
G03*
X17032920Y-9166860I-20000J0D01*
G01*
X17040540Y-7335520D02*
G75*
G03*
X17040540Y-7335520I-20000J0D01*
G01*
X17159920Y-8564880D02*
G75*
G03*
X17159920Y-8564880I-20000J0D01*
G01*
X17297080Y-10045700D02*
G75*
G03*
X17297080Y-10045700I-20000J0D01*
G01*
X17363120Y-7325360D02*
G75*
G03*
X17363120Y-7325360I-20000J0D01*
G01*
X17548540Y-9829800D02*
G75*
G03*
X17548540Y-9829800I-20000J0D01*
G01*
X18310540Y-9253220D02*
G75*
G03*
X18310540Y-9253220I-20000J0D01*
G01*
X18310540Y-9395460D02*
G75*
G03*
X18310540Y-9395460I-20000J0D01*
G01*
X18313080Y-9613900D02*
G75*
G03*
X18313080Y-9613900I-20000J0D01*
G01*
X18562000Y-10477500D02*
G75*
G03*
X18562000Y-10477500I-20000J0D01*
G01*
X18821080Y-10147300D02*
G75*
G03*
X18821080Y-10147300I-20000J0D01*
G01*
X19070000Y-10888980D02*
G75*
G03*
X19070000Y-10888980I-20000J0D01*
G01*
X19072540Y-8409940D02*
G75*
G03*
X19072540Y-8409940I-20000J0D01*
G01*
X19075080Y-8298180D02*
G75*
G03*
X19075080Y-8298180I-20000J0D01*
G01*
D14*
X14409040Y-10712700D02*
X14409040Y-10763500D01*
X14383640Y-10738100D02*
X14434440Y-10738100D01*
X14409040Y-11220700D02*
X14409040Y-11271500D01*
X14383640Y-11246100D02*
X14434440Y-11246100D01*
X14663040Y-11517880D02*
X14663040Y-11568680D01*
X14637640Y-11543280D02*
X14688440Y-11543280D01*
X15148180Y-11520420D02*
X15148180Y-11571220D01*
X15122780Y-11545820D02*
X15173580Y-11545820D01*
X15176120Y-10768580D02*
X15176120Y-10819380D01*
X15150720Y-10793980D02*
X15201520Y-10793980D01*
X15455520Y-11284200D02*
X15455520Y-11335000D01*
X15430120Y-11309600D02*
X15480920Y-11309600D01*
D15*
X16212411Y-10744451D02*
X16212411Y-10699549D01*
X16167509Y-10699549D01*
X16167509Y-10744451D01*
X16212411Y-10744451D01*
X16212411Y-10944451D02*
X16212411Y-10899549D01*
X16167509Y-10899549D01*
X16167509Y-10944451D01*
X16212411Y-10944451D01*
X16212411Y-11144451D02*
X16212411Y-11099549D01*
X16167509Y-11099549D01*
X16167509Y-11144451D01*
X16212411Y-11144451D01*
D16*
X16766540Y-7956180D02*
X16803040Y-7919680D01*
X16766540Y-7883180D01*
X16730040Y-7919680D01*
X16766540Y-7956180D01*
X16766540Y-8750180D02*
X16803040Y-8713680D01*
X16766540Y-8677180D01*
X16730040Y-8713680D01*
X16766540Y-8750180D01*
X16766540Y-10332180D02*
X16803040Y-10295680D01*
X16766540Y-10259180D01*
X16730040Y-10295680D01*
X16766540Y-10332180D01*
X16766540Y-11126180D02*
X16803040Y-11089680D01*
X16766540Y-11053180D01*
X16730040Y-11089680D01*
X16766540Y-11126180D01*
X17020540Y-7956180D02*
X17057040Y-7919680D01*
X17020540Y-7883180D01*
X16984040Y-7919680D01*
X17020540Y-7956180D01*
X17020540Y-8750180D02*
X17057040Y-8713680D01*
X17020540Y-8677180D01*
X16984040Y-8713680D01*
X17020540Y-8750180D01*
X17020540Y-10332180D02*
X17057040Y-10295680D01*
X17020540Y-10259180D01*
X16984040Y-10295680D01*
X17020540Y-10332180D01*
X17020540Y-11126180D02*
X17057040Y-11089680D01*
X17020540Y-11053180D01*
X16984040Y-11089680D01*
X17020540Y-11126180D01*
X17274540Y-7956180D02*
X17311040Y-7919680D01*
X17274540Y-7883180D01*
X17238040Y-7919680D01*
X17274540Y-7956180D01*
X17274540Y-8750180D02*
X17311040Y-8713680D01*
X17274540Y-8677180D01*
X17238040Y-8713680D01*
X17274540Y-8750180D01*
X17274540Y-10332180D02*
X17311040Y-10295680D01*
X17274540Y-10259180D01*
X17238040Y-10295680D01*
X17274540Y-10332180D01*
X17274540Y-11126180D02*
X17311040Y-11089680D01*
X17274540Y-11053180D01*
X17238040Y-11089680D01*
X17274540Y-11126180D01*
X17528540Y-7956180D02*
X17565040Y-7919680D01*
X17528540Y-7883180D01*
X17492040Y-7919680D01*
X17528540Y-7956180D01*
X17528540Y-8750180D02*
X17565040Y-8713680D01*
X17528540Y-8677180D01*
X17492040Y-8713680D01*
X17528540Y-8750180D01*
X17528540Y-10332180D02*
X17565040Y-10295680D01*
X17528540Y-10259180D01*
X17492040Y-10295680D01*
X17528540Y-10332180D01*
X17528540Y-11126180D02*
X17565040Y-11089680D01*
X17528540Y-11053180D01*
X17492040Y-11089680D01*
X17528540Y-11126180D01*
X17782540Y-7956180D02*
X17819040Y-7919680D01*
X17782540Y-7883180D01*
X17746040Y-7919680D01*
X17782540Y-7956180D01*
X17782540Y-8750180D02*
X17819040Y-8713680D01*
X17782540Y-8677180D01*
X17746040Y-8713680D01*
X17782540Y-8750180D01*
X17782540Y-10332180D02*
X17819040Y-10295680D01*
X17782540Y-10259180D01*
X17746040Y-10295680D01*
X17782540Y-10332180D01*
X17782540Y-11126180D02*
X17819040Y-11089680D01*
X17782540Y-11053180D01*
X17746040Y-11089680D01*
X17782540Y-11126180D01*
X18036540Y-7956180D02*
X18073040Y-7919680D01*
X18036540Y-7883180D01*
X18000040Y-7919680D01*
X18036540Y-7956180D01*
X18036540Y-8750180D02*
X18073040Y-8713680D01*
X18036540Y-8677180D01*
X18000040Y-8713680D01*
X18036540Y-8750180D01*
X18036540Y-10332180D02*
X18073040Y-10295680D01*
X18036540Y-10259180D01*
X18000040Y-10295680D01*
X18036540Y-10332180D01*
X18036540Y-11126180D02*
X18073040Y-11089680D01*
X18036540Y-11053180D01*
X18000040Y-11089680D01*
X18036540Y-11126180D01*
X18290540Y-7956180D02*
X18327040Y-7919680D01*
X18290540Y-7883180D01*
X18254040Y-7919680D01*
X18290540Y-7956180D01*
X18290540Y-8750180D02*
X18327040Y-8713680D01*
X18290540Y-8677180D01*
X18254040Y-8713680D01*
X18290540Y-8750180D01*
X18290540Y-10332180D02*
X18327040Y-10295680D01*
X18290540Y-10259180D01*
X18254040Y-10295680D01*
X18290540Y-10332180D01*
X18290540Y-11126180D02*
X18327040Y-11089680D01*
X18290540Y-11053180D01*
X18254040Y-11089680D01*
X18290540Y-11126180D01*
X18544540Y-7956180D02*
X18581040Y-7919680D01*
X18544540Y-7883180D01*
X18508040Y-7919680D01*
X18544540Y-7956180D01*
X18544540Y-8750180D02*
X18581040Y-8713680D01*
X18544540Y-8677180D01*
X18508040Y-8713680D01*
X18544540Y-8750180D01*
X18544540Y-10332180D02*
X18581040Y-10295680D01*
X18544540Y-10259180D01*
X18508040Y-10295680D01*
X18544540Y-10332180D01*
X18544540Y-11126180D02*
X18581040Y-11089680D01*
X18544540Y-11053180D01*
X18508040Y-11089680D01*
X18544540Y-11126180D01*
X18798540Y-7956180D02*
X18835040Y-7919680D01*
X18798540Y-7883180D01*
X18762040Y-7919680D01*
X18798540Y-7956180D01*
X18798540Y-8750180D02*
X18835040Y-8713680D01*
X18798540Y-8677180D01*
X18762040Y-8713680D01*
X18798540Y-8750180D01*
X18798540Y-10332180D02*
X18835040Y-10295680D01*
X18798540Y-10259180D01*
X18762040Y-10295680D01*
X18798540Y-10332180D01*
X18798540Y-11126180D02*
X18835040Y-11089680D01*
X18798540Y-11053180D01*
X18762040Y-11089680D01*
X18798540Y-11126180D01*
X19052540Y-7956180D02*
X19089040Y-7919680D01*
X19052540Y-7883180D01*
X19016040Y-7919680D01*
X19052540Y-7956180D01*
X19052540Y-8750180D02*
X19089040Y-8713680D01*
X19052540Y-8677180D01*
X19016040Y-8713680D01*
X19052540Y-8750180D01*
X19052540Y-10332180D02*
X19089040Y-10295680D01*
X19052540Y-10259180D01*
X19016040Y-10295680D01*
X19052540Y-10332180D01*
X19052540Y-11126180D02*
X19089040Y-11089680D01*
X19052540Y-11053180D01*
X19016040Y-11089680D01*
X19052540Y-11126180D01*
D17*
X13462640Y-9233540D02*
X13542640Y-9313540D01*
X13542640Y-9233540D02*
X13462640Y-9313540D01*
X13542640Y-9273540D02*
G75*
G03*
X13542640Y-9273540I-40000J0D01*
G01*
X13462640Y-9487540D02*
X13542640Y-9567540D01*
X13542640Y-9487540D02*
X13462640Y-9567540D01*
X13542640Y-9527540D02*
G75*
G03*
X13542640Y-9527540I-40000J0D01*
G01*
X13462640Y-9741540D02*
X13542640Y-9821540D01*
X13542640Y-9741540D02*
X13462640Y-9821540D01*
X13542640Y-9781540D02*
G75*
G03*
X13542640Y-9781540I-40000J0D01*
G01*
X13462640Y-9995540D02*
X13542640Y-10075540D01*
X13542640Y-9995540D02*
X13462640Y-10075540D01*
X13542640Y-10035540D02*
G75*
G03*
X13542640Y-10035540I-40000J0D01*
G01*
X13462640Y-10249540D02*
X13542640Y-10329540D01*
X13542640Y-10249540D02*
X13462640Y-10329540D01*
X13542640Y-10289540D02*
G75*
G03*
X13542640Y-10289540I-40000J0D01*
G01*
X13462640Y-10503540D02*
X13542640Y-10583540D01*
X13542640Y-10503540D02*
X13462640Y-10583540D01*
X13542640Y-10543540D02*
G75*
G03*
X13542640Y-10543540I-40000J0D01*
G01*
X14478640Y-9233540D02*
X14558640Y-9313540D01*
X14558640Y-9233540D02*
X14478640Y-9313540D01*
X14558640Y-9273540D02*
G75*
G03*
X14558640Y-9273540I-40000J0D01*
G01*
X14478640Y-9487540D02*
X14558640Y-9567540D01*
X14558640Y-9487540D02*
X14478640Y-9567540D01*
X14558640Y-9527540D02*
G75*
G03*
X14558640Y-9527540I-40000J0D01*
G01*
X14478640Y-9741540D02*
X14558640Y-9821540D01*
X14558640Y-9741540D02*
X14478640Y-9821540D01*
X14558640Y-9781540D02*
G75*
G03*
X14558640Y-9781540I-40000J0D01*
G01*
X14478640Y-9995540D02*
X14558640Y-10075540D01*
X14558640Y-9995540D02*
X14478640Y-10075540D01*
X14558640Y-10035540D02*
G75*
G03*
X14558640Y-10035540I-40000J0D01*
G01*
X14478640Y-10249540D02*
X14558640Y-10329540D01*
X14558640Y-10249540D02*
X14478640Y-10329540D01*
X14558640Y-10289540D02*
G75*
G03*
X14558640Y-10289540I-40000J0D01*
G01*
X14478640Y-10503540D02*
X14558640Y-10583540D01*
X14558640Y-10503540D02*
X14478640Y-10583540D01*
X14558640Y-10543540D02*
G75*
G03*
X14558640Y-10543540I-40000J0D01*
G01*
X15948560Y-9504320D02*
X16028560Y-9584320D01*
X16028560Y-9504320D02*
X15948560Y-9584320D01*
X16028560Y-9544320D02*
G75*
G03*
X16028560Y-9544320I-40000J0D01*
G01*
X15948560Y-9758320D02*
X16028560Y-9838320D01*
X16028560Y-9758320D02*
X15948560Y-9838320D01*
X16028560Y-9798320D02*
G75*
G03*
X16028560Y-9798320I-40000J0D01*
G01*
X15948560Y-10012320D02*
X16028560Y-10092320D01*
X16028560Y-10012320D02*
X15948560Y-10092320D01*
X16028560Y-10052320D02*
G75*
G03*
X16028560Y-10052320I-40000J0D01*
G01*
D18*
X12952020Y-7928060D02*
X13042020Y-8018060D01*
X13042020Y-7928060D02*
X12952020Y-8018060D01*
X12997020Y-7928060D02*
X12997020Y-8018060D01*
X12952020Y-7973060D02*
X13042020Y-7973060D01*
X13206020Y-7928060D02*
X13296020Y-8018060D01*
X13296020Y-7928060D02*
X13206020Y-8018060D01*
X13251020Y-7928060D02*
X13251020Y-8018060D01*
X13206020Y-7973060D02*
X13296020Y-7973060D01*
X15176720Y-9756860D02*
X15266720Y-9846860D01*
X15266720Y-9756860D02*
X15176720Y-9846860D01*
X15221720Y-9756860D02*
X15221720Y-9846860D01*
X15176720Y-9801860D02*
X15266720Y-9801860D01*
X15430720Y-9756860D02*
X15520720Y-9846860D01*
X15520720Y-9756860D02*
X15430720Y-9846860D01*
X15475720Y-9756860D02*
X15475720Y-9846860D01*
X15430720Y-9801860D02*
X15520720Y-9801860D01*
D19*
X15715780Y-10886740D02*
X15815780Y-10986740D01*
X15815780Y-10886740D02*
X15715780Y-10986740D01*
X15801136Y-10972096D02*
X15801136Y-10901384D01*
X15730424Y-10901384D01*
X15730424Y-10972096D01*
X15801136Y-10972096D01*
X15715780Y-11140740D02*
X15815780Y-11240740D01*
X15815780Y-11140740D02*
X15715780Y-11240740D01*
X15801136Y-11226096D02*
X15801136Y-11155384D01*
X15730424Y-11155384D01*
X15730424Y-11226096D01*
X15801136Y-11226096D01*
X19996220Y-8266680D02*
X20096220Y-8366680D01*
X20096220Y-8266680D02*
X19996220Y-8366680D01*
X20081576Y-8352036D02*
X20081576Y-8281324D01*
X20010864Y-8281324D01*
X20010864Y-8352036D01*
X20081576Y-8352036D01*
X19996220Y-8482680D02*
X20096220Y-8582680D01*
X20096220Y-8482680D02*
X19996220Y-8582680D01*
X20081576Y-8568036D02*
X20081576Y-8497324D01*
X20010864Y-8497324D01*
X20010864Y-8568036D01*
X20081576Y-8568036D01*
X19996220Y-8698680D02*
X20096220Y-8798680D01*
X20096220Y-8698680D02*
X19996220Y-8798680D01*
X20081576Y-8784036D02*
X20081576Y-8713324D01*
X20010864Y-8713324D01*
X20010864Y-8784036D01*
X20081576Y-8784036D01*
X19996220Y-8914680D02*
X20096220Y-9014680D01*
X20096220Y-8914680D02*
X19996220Y-9014680D01*
X20081576Y-9000036D02*
X20081576Y-8929324D01*
X20010864Y-8929324D01*
X20010864Y-9000036D01*
X20081576Y-9000036D01*
X19996220Y-9130680D02*
X20096220Y-9230680D01*
X20096220Y-9130680D02*
X19996220Y-9230680D01*
X20081576Y-9216036D02*
X20081576Y-9145324D01*
X20010864Y-9145324D01*
X20010864Y-9216036D01*
X20081576Y-9216036D01*
X19996220Y-9346680D02*
X20096220Y-9446680D01*
X20096220Y-9346680D02*
X19996220Y-9446680D01*
X20081576Y-9432036D02*
X20081576Y-9361324D01*
X20010864Y-9361324D01*
X20010864Y-9432036D01*
X20081576Y-9432036D01*
X19996220Y-9562680D02*
X20096220Y-9662680D01*
X20096220Y-9562680D02*
X19996220Y-9662680D01*
X20081576Y-9648036D02*
X20081576Y-9577324D01*
X20010864Y-9577324D01*
X20010864Y-9648036D01*
X20081576Y-9648036D01*
X19996220Y-9778680D02*
X20096220Y-9878680D01*
X20096220Y-9778680D02*
X19996220Y-9878680D01*
X20081576Y-9864036D02*
X20081576Y-9793324D01*
X20010864Y-9793324D01*
X20010864Y-9864036D01*
X20081576Y-9864036D01*
X19996220Y-9994680D02*
X20096220Y-10094680D01*
X20096220Y-9994680D02*
X19996220Y-10094680D01*
X20081576Y-10080036D02*
X20081576Y-10009324D01*
X20010864Y-10009324D01*
X20010864Y-10080036D01*
X20081576Y-10080036D01*
X19996220Y-10210680D02*
X20096220Y-10310680D01*
X20096220Y-10210680D02*
X19996220Y-10310680D01*
X20081576Y-10296036D02*
X20081576Y-10225324D01*
X20010864Y-10225324D01*
X20010864Y-10296036D01*
X20081576Y-10296036D01*
X19996220Y-10426680D02*
X20096220Y-10526680D01*
X20096220Y-10426680D02*
X19996220Y-10526680D01*
X20081576Y-10512036D02*
X20081576Y-10441324D01*
X20010864Y-10441324D01*
X20010864Y-10512036D01*
X20081576Y-10512036D01*
X19996220Y-10642680D02*
X20096220Y-10742680D01*
X20096220Y-10642680D02*
X19996220Y-10742680D01*
X20081576Y-10728036D02*
X20081576Y-10657324D01*
X20010864Y-10657324D01*
X20010864Y-10728036D01*
X20081576Y-10728036D01*
X20425220Y-8266680D02*
X20525220Y-8366680D01*
X20525220Y-8266680D02*
X20425220Y-8366680D01*
X20510576Y-8352036D02*
X20510576Y-8281324D01*
X20439864Y-8281324D01*
X20439864Y-8352036D01*
X20510576Y-8352036D01*
X20425220Y-8482680D02*
X20525220Y-8582680D01*
X20525220Y-8482680D02*
X20425220Y-8582680D01*
X20510576Y-8568036D02*
X20510576Y-8497324D01*
X20439864Y-8497324D01*
X20439864Y-8568036D01*
X20510576Y-8568036D01*
X20425220Y-8698680D02*
X20525220Y-8798680D01*
X20525220Y-8698680D02*
X20425220Y-8798680D01*
X20510576Y-8784036D02*
X20510576Y-8713324D01*
X20439864Y-8713324D01*
X20439864Y-8784036D01*
X20510576Y-8784036D01*
X20425220Y-8914680D02*
X20525220Y-9014680D01*
X20525220Y-8914680D02*
X20425220Y-9014680D01*
X20510576Y-9000036D02*
X20510576Y-8929324D01*
X20439864Y-8929324D01*
X20439864Y-9000036D01*
X20510576Y-9000036D01*
X20425220Y-9130680D02*
X20525220Y-9230680D01*
X20525220Y-9130680D02*
X20425220Y-9230680D01*
X20510576Y-9216036D02*
X20510576Y-9145324D01*
X20439864Y-9145324D01*
X20439864Y-9216036D01*
X20510576Y-9216036D01*
X20425220Y-9346680D02*
X20525220Y-9446680D01*
X20525220Y-9346680D02*
X20425220Y-9446680D01*
X20510576Y-9432036D02*
X20510576Y-9361324D01*
X20439864Y-9361324D01*
X20439864Y-9432036D01*
X20510576Y-9432036D01*
X20425220Y-9562680D02*
X20525220Y-9662680D01*
X20525220Y-9562680D02*
X20425220Y-9662680D01*
X20510576Y-9648036D02*
X20510576Y-9577324D01*
X20439864Y-9577324D01*
X20439864Y-9648036D01*
X20510576Y-9648036D01*
X20425220Y-9778680D02*
X20525220Y-9878680D01*
X20525220Y-9778680D02*
X20425220Y-9878680D01*
X20510576Y-9864036D02*
X20510576Y-9793324D01*
X20439864Y-9793324D01*
X20439864Y-9864036D01*
X20510576Y-9864036D01*
X20425220Y-9994680D02*
X20525220Y-10094680D01*
X20525220Y-9994680D02*
X20425220Y-10094680D01*
X20510576Y-10080036D02*
X20510576Y-10009324D01*
X20439864Y-10009324D01*
X20439864Y-10080036D01*
X20510576Y-10080036D01*
X20425220Y-10210680D02*
X20525220Y-10310680D01*
X20525220Y-10210680D02*
X20425220Y-10310680D01*
X20510576Y-10296036D02*
X20510576Y-10225324D01*
X20439864Y-10225324D01*
X20439864Y-10296036D01*
X20510576Y-10296036D01*
X20425220Y-10426680D02*
X20525220Y-10526680D01*
X20525220Y-10426680D02*
X20425220Y-10526680D01*
X20510576Y-10512036D02*
X20510576Y-10441324D01*
X20439864Y-10441324D01*
X20439864Y-10512036D01*
X20510576Y-10512036D01*
X20425220Y-10642680D02*
X20525220Y-10742680D01*
X20525220Y-10642680D02*
X20425220Y-10742680D01*
X20510576Y-10728036D02*
X20510576Y-10657324D01*
X20439864Y-10657324D01*
X20439864Y-10728036D01*
X20510576Y-10728036D01*
D20*
X12166600Y-7035800D02*
X12268200Y-7137400D01*
X12268200Y-7035800D02*
X12166600Y-7137400D01*
X12217400Y-7137400D02*
X12268200Y-7086600D01*
X12217400Y-7035800D01*
X12166600Y-7086600D01*
X12217400Y-7137400D01*
X12420600Y-7035800D02*
X12522200Y-7137400D01*
X12522200Y-7035800D02*
X12420600Y-7137400D01*
X12471400Y-7137400D02*
X12522200Y-7086600D01*
X12471400Y-7035800D01*
X12420600Y-7086600D01*
X12471400Y-7137400D01*
X12674600Y-7035800D02*
X12776200Y-7137400D01*
X12776200Y-7035800D02*
X12674600Y-7137400D01*
X12725400Y-7137400D02*
X12776200Y-7086600D01*
X12725400Y-7035800D01*
X12674600Y-7086600D01*
X12725400Y-7137400D01*
X12928600Y-7035800D02*
X13030200Y-7137400D01*
X13030200Y-7035800D02*
X12928600Y-7137400D01*
X12979400Y-7137400D02*
X13030200Y-7086600D01*
X12979400Y-7035800D01*
X12928600Y-7086600D01*
X12979400Y-7137400D01*
X13081000Y-11861800D02*
X13182600Y-11963400D01*
X13182600Y-11861800D02*
X13081000Y-11963400D01*
X13131800Y-11963400D02*
X13182600Y-11912600D01*
X13131800Y-11861800D01*
X13081000Y-11912600D01*
X13131800Y-11963400D01*
X13182600Y-7035800D02*
X13284200Y-7137400D01*
X13284200Y-7035800D02*
X13182600Y-7137400D01*
X13233400Y-7137400D02*
X13284200Y-7086600D01*
X13233400Y-7035800D01*
X13182600Y-7086600D01*
X13233400Y-7137400D01*
X13335000Y-11861800D02*
X13436600Y-11963400D01*
X13436600Y-11861800D02*
X13335000Y-11963400D01*
X13385800Y-11963400D02*
X13436600Y-11912600D01*
X13385800Y-11861800D01*
X13335000Y-11912600D01*
X13385800Y-11963400D01*
X13436600Y-7035800D02*
X13538200Y-7137400D01*
X13538200Y-7035800D02*
X13436600Y-7137400D01*
X13487400Y-7137400D02*
X13538200Y-7086600D01*
X13487400Y-7035800D01*
X13436600Y-7086600D01*
X13487400Y-7137400D01*
X13589000Y-11861800D02*
X13690600Y-11963400D01*
X13690600Y-11861800D02*
X13589000Y-11963400D01*
X13639800Y-11963400D02*
X13690600Y-11912600D01*
X13639800Y-11861800D01*
X13589000Y-11912600D01*
X13639800Y-11963400D01*
X13690600Y-7035800D02*
X13792200Y-7137400D01*
X13792200Y-7035800D02*
X13690600Y-7137400D01*
X13741400Y-7137400D02*
X13792200Y-7086600D01*
X13741400Y-7035800D01*
X13690600Y-7086600D01*
X13741400Y-7137400D01*
X13843000Y-11861800D02*
X13944600Y-11963400D01*
X13944600Y-11861800D02*
X13843000Y-11963400D01*
X13893800Y-11963400D02*
X13944600Y-11912600D01*
X13893800Y-11861800D01*
X13843000Y-11912600D01*
X13893800Y-11963400D01*
X13944600Y-7035800D02*
X14046200Y-7137400D01*
X14046200Y-7035800D02*
X13944600Y-7137400D01*
X13995400Y-7137400D02*
X14046200Y-7086600D01*
X13995400Y-7035800D01*
X13944600Y-7086600D01*
X13995400Y-7137400D01*
X14097000Y-11861800D02*
X14198600Y-11963400D01*
X14198600Y-11861800D02*
X14097000Y-11963400D01*
X14147800Y-11963400D02*
X14198600Y-11912600D01*
X14147800Y-11861800D01*
X14097000Y-11912600D01*
X14147800Y-11963400D01*
X14198600Y-7035800D02*
X14300200Y-7137400D01*
X14300200Y-7035800D02*
X14198600Y-7137400D01*
X14249400Y-7137400D02*
X14300200Y-7086600D01*
X14249400Y-7035800D01*
X14198600Y-7086600D01*
X14249400Y-7137400D01*
X14351000Y-11861800D02*
X14452600Y-11963400D01*
X14452600Y-11861800D02*
X14351000Y-11963400D01*
X14401800Y-11963400D02*
X14452600Y-11912600D01*
X14401800Y-11861800D01*
X14351000Y-11912600D01*
X14401800Y-11963400D01*
X14452600Y-7035800D02*
X14554200Y-7137400D01*
X14554200Y-7035800D02*
X14452600Y-7137400D01*
X14503400Y-7137400D02*
X14554200Y-7086600D01*
X14503400Y-7035800D01*
X14452600Y-7086600D01*
X14503400Y-7137400D01*
X14605000Y-11861800D02*
X14706600Y-11963400D01*
X14706600Y-11861800D02*
X14605000Y-11963400D01*
X14655800Y-11963400D02*
X14706600Y-11912600D01*
X14655800Y-11861800D01*
X14605000Y-11912600D01*
X14655800Y-11963400D01*
X14859000Y-7035800D02*
X14960600Y-7137400D01*
X14960600Y-7035800D02*
X14859000Y-7137400D01*
X14909800Y-7137400D02*
X14960600Y-7086600D01*
X14909800Y-7035800D01*
X14859000Y-7086600D01*
X14909800Y-7137400D01*
X14859000Y-11861800D02*
X14960600Y-11963400D01*
X14960600Y-11861800D02*
X14859000Y-11963400D01*
X14909800Y-11963400D02*
X14960600Y-11912600D01*
X14909800Y-11861800D01*
X14859000Y-11912600D01*
X14909800Y-11963400D01*
X15113000Y-7035800D02*
X15214600Y-7137400D01*
X15214600Y-7035800D02*
X15113000Y-7137400D01*
X15163800Y-7137400D02*
X15214600Y-7086600D01*
X15163800Y-7035800D01*
X15113000Y-7086600D01*
X15163800Y-7137400D01*
X15367000Y-7035800D02*
X15468600Y-7137400D01*
X15468600Y-7035800D02*
X15367000Y-7137400D01*
X15417800Y-7137400D02*
X15468600Y-7086600D01*
X15417800Y-7035800D01*
X15367000Y-7086600D01*
X15417800Y-7137400D01*
X15367000Y-11861800D02*
X15468600Y-11963400D01*
X15468600Y-11861800D02*
X15367000Y-11963400D01*
X15417800Y-11963400D02*
X15468600Y-11912600D01*
X15417800Y-11861800D01*
X15367000Y-11912600D01*
X15417800Y-11963400D01*
X15621000Y-7035800D02*
X15722600Y-7137400D01*
X15722600Y-7035800D02*
X15621000Y-7137400D01*
X15671800Y-7137400D02*
X15722600Y-7086600D01*
X15671800Y-7035800D01*
X15621000Y-7086600D01*
X15671800Y-7137400D01*
X15621000Y-11861800D02*
X15722600Y-11963400D01*
X15722600Y-11861800D02*
X15621000Y-11963400D01*
X15671800Y-11963400D02*
X15722600Y-11912600D01*
X15671800Y-11861800D01*
X15621000Y-11912600D01*
X15671800Y-11963400D01*
X15875000Y-7035800D02*
X15976600Y-7137400D01*
X15976600Y-7035800D02*
X15875000Y-7137400D01*
X15925800Y-7137400D02*
X15976600Y-7086600D01*
X15925800Y-7035800D01*
X15875000Y-7086600D01*
X15925800Y-7137400D01*
X15875000Y-11861800D02*
X15976600Y-11963400D01*
X15976600Y-11861800D02*
X15875000Y-11963400D01*
X15925800Y-11963400D02*
X15976600Y-11912600D01*
X15925800Y-11861800D01*
X15875000Y-11912600D01*
X15925800Y-11963400D01*
X16129000Y-7035800D02*
X16230600Y-7137400D01*
X16230600Y-7035800D02*
X16129000Y-7137400D01*
X16179800Y-7137400D02*
X16230600Y-7086600D01*
X16179800Y-7035800D01*
X16129000Y-7086600D01*
X16179800Y-7137400D01*
X16129000Y-11861800D02*
X16230600Y-11963400D01*
X16230600Y-11861800D02*
X16129000Y-11963400D01*
X16179800Y-11963400D02*
X16230600Y-11912600D01*
X16179800Y-11861800D01*
X16129000Y-11912600D01*
X16179800Y-11963400D01*
X16383000Y-7035800D02*
X16484600Y-7137400D01*
X16484600Y-7035800D02*
X16383000Y-7137400D01*
X16433800Y-7137400D02*
X16484600Y-7086600D01*
X16433800Y-7035800D01*
X16383000Y-7086600D01*
X16433800Y-7137400D01*
X16383000Y-11861800D02*
X16484600Y-11963400D01*
X16484600Y-11861800D02*
X16383000Y-11963400D01*
X16433800Y-11963400D02*
X16484600Y-11912600D01*
X16433800Y-11861800D01*
X16383000Y-11912600D01*
X16433800Y-11963400D01*
X16637000Y-7035800D02*
X16738600Y-7137400D01*
X16738600Y-7035800D02*
X16637000Y-7137400D01*
X16687800Y-7137400D02*
X16738600Y-7086600D01*
X16687800Y-7035800D01*
X16637000Y-7086600D01*
X16687800Y-7137400D01*
X16637000Y-11861800D02*
X16738600Y-11963400D01*
X16738600Y-11861800D02*
X16637000Y-11963400D01*
X16687800Y-11963400D02*
X16738600Y-11912600D01*
X16687800Y-11861800D01*
X16637000Y-11912600D01*
X16687800Y-11963400D01*
X16891000Y-11861800D02*
X16992600Y-11963400D01*
X16992600Y-11861800D02*
X16891000Y-11963400D01*
X16941800Y-11963400D02*
X16992600Y-11912600D01*
X16941800Y-11861800D01*
X16891000Y-11912600D01*
X16941800Y-11963400D01*
X17145000Y-7035800D02*
X17246600Y-7137400D01*
X17246600Y-7035800D02*
X17145000Y-7137400D01*
X17195800Y-7137400D02*
X17246600Y-7086600D01*
X17195800Y-7035800D01*
X17145000Y-7086600D01*
X17195800Y-7137400D01*
X17145000Y-11861800D02*
X17246600Y-11963400D01*
X17246600Y-11861800D02*
X17145000Y-11963400D01*
X17195800Y-11963400D02*
X17246600Y-11912600D01*
X17195800Y-11861800D01*
X17145000Y-11912600D01*
X17195800Y-11963400D01*
X17399000Y-7035800D02*
X17500600Y-7137400D01*
X17500600Y-7035800D02*
X17399000Y-7137400D01*
X17449800Y-7137400D02*
X17500600Y-7086600D01*
X17449800Y-7035800D01*
X17399000Y-7086600D01*
X17449800Y-7137400D01*
X17653000Y-7035800D02*
X17754600Y-7137400D01*
X17754600Y-7035800D02*
X17653000Y-7137400D01*
X17703800Y-7137400D02*
X17754600Y-7086600D01*
X17703800Y-7035800D01*
X17653000Y-7086600D01*
X17703800Y-7137400D01*
X17653000Y-11861800D02*
X17754600Y-11963400D01*
X17754600Y-11861800D02*
X17653000Y-11963400D01*
X17703800Y-11963400D02*
X17754600Y-11912600D01*
X17703800Y-11861800D01*
X17653000Y-11912600D01*
X17703800Y-11963400D01*
X17907000Y-7035800D02*
X18008600Y-7137400D01*
X18008600Y-7035800D02*
X17907000Y-7137400D01*
X17957800Y-7137400D02*
X18008600Y-7086600D01*
X17957800Y-7035800D01*
X17907000Y-7086600D01*
X17957800Y-7137400D01*
X17907000Y-11861800D02*
X18008600Y-11963400D01*
X18008600Y-11861800D02*
X17907000Y-11963400D01*
X17957800Y-11963400D02*
X18008600Y-11912600D01*
X17957800Y-11861800D01*
X17907000Y-11912600D01*
X17957800Y-11963400D01*
X18161000Y-7035800D02*
X18262600Y-7137400D01*
X18262600Y-7035800D02*
X18161000Y-7137400D01*
X18211800Y-7137400D02*
X18262600Y-7086600D01*
X18211800Y-7035800D01*
X18161000Y-7086600D01*
X18211800Y-7137400D01*
X18161000Y-11861800D02*
X18262600Y-11963400D01*
X18262600Y-11861800D02*
X18161000Y-11963400D01*
X18211800Y-11963400D02*
X18262600Y-11912600D01*
X18211800Y-11861800D01*
X18161000Y-11912600D01*
X18211800Y-11963400D01*
X18415000Y-7035800D02*
X18516600Y-7137400D01*
X18516600Y-7035800D02*
X18415000Y-7137400D01*
X18465800Y-7137400D02*
X18516600Y-7086600D01*
X18465800Y-7035800D01*
X18415000Y-7086600D01*
X18465800Y-7137400D01*
X18415000Y-11861800D02*
X18516600Y-11963400D01*
X18516600Y-11861800D02*
X18415000Y-11963400D01*
X18465800Y-11963400D02*
X18516600Y-11912600D01*
X18465800Y-11861800D01*
X18415000Y-11912600D01*
X18465800Y-11963400D01*
X18669000Y-7035800D02*
X18770600Y-7137400D01*
X18770600Y-7035800D02*
X18669000Y-7137400D01*
X18719800Y-7137400D02*
X18770600Y-7086600D01*
X18719800Y-7035800D01*
X18669000Y-7086600D01*
X18719800Y-7137400D01*
X18669000Y-11861800D02*
X18770600Y-11963400D01*
X18770600Y-11861800D02*
X18669000Y-11963400D01*
X18719800Y-11963400D02*
X18770600Y-11912600D01*
X18719800Y-11861800D01*
X18669000Y-11912600D01*
X18719800Y-11963400D01*
X18923000Y-7035800D02*
X19024600Y-7137400D01*
X19024600Y-7035800D02*
X18923000Y-7137400D01*
X18973800Y-7137400D02*
X19024600Y-7086600D01*
X18973800Y-7035800D01*
X18923000Y-7086600D01*
X18973800Y-7137400D01*
X18923000Y-11861800D02*
X19024600Y-11963400D01*
X19024600Y-11861800D02*
X18923000Y-11963400D01*
X18973800Y-11963400D02*
X19024600Y-11912600D01*
X18973800Y-11861800D01*
X18923000Y-11912600D01*
X18973800Y-11963400D01*
X19177000Y-11861800D02*
X19278600Y-11963400D01*
X19278600Y-11861800D02*
X19177000Y-11963400D01*
X19227800Y-11963400D02*
X19278600Y-11912600D01*
X19227800Y-11861800D01*
X19177000Y-11912600D01*
X19227800Y-11963400D01*
X19431000Y-11861800D02*
X19532600Y-11963400D01*
X19532600Y-11861800D02*
X19431000Y-11963400D01*
X19481800Y-11963400D02*
X19532600Y-11912600D01*
X19481800Y-11861800D01*
X19431000Y-11912600D01*
X19481800Y-11963400D01*
D21*
X13007340Y-9221240D02*
X13007340Y-9351240D01*
X12942340Y-9286240D02*
X13072340Y-9286240D01*
X13072340Y-9286240D02*
G75*
G03*
X13072340Y-9286240I-65000J0D01*
G01*
X13007340Y-9475240D02*
X13007340Y-9605240D01*
X12942340Y-9540240D02*
X13072340Y-9540240D01*
X13072340Y-9540240D02*
G75*
G03*
X13072340Y-9540240I-65000J0D01*
G01*
X13007340Y-9729240D02*
X13007340Y-9859240D01*
X12942340Y-9794240D02*
X13072340Y-9794240D01*
X13072340Y-9794240D02*
G75*
G03*
X13072340Y-9794240I-65000J0D01*
G01*
X13007340Y-9983240D02*
X13007340Y-10113240D01*
X12942340Y-10048240D02*
X13072340Y-10048240D01*
X13072340Y-10048240D02*
G75*
G03*
X13072340Y-10048240I-65000J0D01*
G01*
X13007340Y-10237240D02*
X13007340Y-10367240D01*
X12942340Y-10302240D02*
X13072340Y-10302240D01*
X13072340Y-10302240D02*
G75*
G03*
X13072340Y-10302240I-65000J0D01*
G01*
X13007340Y-10491240D02*
X13007340Y-10621240D01*
X12942340Y-10556240D02*
X13072340Y-10556240D01*
X13072340Y-10556240D02*
G75*
G03*
X13072340Y-10556240I-65000J0D01*
G01*
D22*
X20370323Y-7274283D02*
X20370323Y-7055077D01*
X20151117Y-7055077D01*
X20151117Y-7274283D01*
X20370323Y-7274283D01*
X20415720Y-7164680D02*
G75*
G03*
X20415720Y-7164680I-155000J0D01*
G01*
X20370323Y-11954283D02*
X20370323Y-11735077D01*
X20151117Y-11735077D01*
X20151117Y-11954283D01*
X20370323Y-11954283D01*
X20415720Y-11844680D02*
G75*
G03*
X20415720Y-11844680I-155000J0D01*
G01*
D11*
X12238919Y-12713176D02*
X12238919Y-12513176D01*
X12286538Y-12513176D01*
X12315109Y-12522700D01*
X12334157Y-12541748D01*
X12343681Y-12560795D01*
X12353205Y-12598890D01*
X12353205Y-12627462D01*
X12343681Y-12665557D01*
X12334157Y-12684605D01*
X12315109Y-12703652D01*
X12286538Y-12713176D01*
X12238919Y-12713176D01*
X12438919Y-12713176D02*
X12438919Y-12579843D01*
X12438919Y-12617938D02*
X12448443Y-12598890D01*
X12457967Y-12589367D01*
X12477014Y-12579843D01*
X12496062Y-12579843D01*
X12562728Y-12713176D02*
X12562728Y-12579843D01*
X12562728Y-12513176D02*
X12553205Y-12522700D01*
X12562728Y-12532224D01*
X12572252Y-12522700D01*
X12562728Y-12513176D01*
X12562728Y-12532224D01*
X12686538Y-12713176D02*
X12667490Y-12703652D01*
X12657967Y-12684605D01*
X12657967Y-12513176D01*
X12791300Y-12713176D02*
X12772252Y-12703652D01*
X12762728Y-12684605D01*
X12762728Y-12513176D01*
X13019871Y-12713176D02*
X13019871Y-12513176D01*
X13086538Y-12656033D01*
X13153205Y-12513176D01*
X13153205Y-12713176D01*
X13334157Y-12713176D02*
X13334157Y-12608414D01*
X13324633Y-12589367D01*
X13305586Y-12579843D01*
X13267490Y-12579843D01*
X13248443Y-12589367D01*
X13334157Y-12703652D02*
X13315109Y-12713176D01*
X13267490Y-12713176D01*
X13248443Y-12703652D01*
X13238919Y-12684605D01*
X13238919Y-12665557D01*
X13248443Y-12646509D01*
X13267490Y-12636986D01*
X13315109Y-12636986D01*
X13334157Y-12627462D01*
X13429395Y-12579843D02*
X13429395Y-12779843D01*
X13429395Y-12589367D02*
X13448443Y-12579843D01*
X13486538Y-12579843D01*
X13505586Y-12589367D01*
X13515109Y-12598890D01*
X13524633Y-12617938D01*
X13524633Y-12675081D01*
X13515109Y-12694128D01*
X13505586Y-12703652D01*
X13486538Y-12713176D01*
X13448443Y-12713176D01*
X13429395Y-12703652D01*
X13610348Y-12694128D02*
X13619871Y-12703652D01*
X13610348Y-12713176D01*
X13600824Y-12703652D01*
X13610348Y-12694128D01*
X13610348Y-12713176D01*
X13610348Y-12589367D02*
X13619871Y-12598890D01*
X13610348Y-12608414D01*
X13600824Y-12598890D01*
X13610348Y-12589367D01*
X13610348Y-12608414D01*
D12*
X11950820Y-13027460D02*
X11981300Y-13057940D01*
X11981300Y-13027460D02*
X11950820Y-13057940D01*
D11*
X12277014Y-12933176D02*
X12296062Y-12933176D01*
X12315109Y-12942700D01*
X12324633Y-12952224D01*
X12334157Y-12971271D01*
X12343681Y-13009367D01*
X12343681Y-13056986D01*
X12334157Y-13095081D01*
X12324633Y-13114128D01*
X12315109Y-13123652D01*
X12296062Y-13133176D01*
X12277014Y-13133176D01*
X12257967Y-13123652D01*
X12248443Y-13114128D01*
X12238919Y-13095081D01*
X12229395Y-13056986D01*
X12229395Y-13009367D01*
X12238919Y-12971271D01*
X12248443Y-12952224D01*
X12257967Y-12942700D01*
X12277014Y-12933176D01*
X12429395Y-13114128D02*
X12438919Y-13123652D01*
X12429395Y-13133176D01*
X12419871Y-13123652D01*
X12429395Y-13114128D01*
X12429395Y-13133176D01*
X12505586Y-12933176D02*
X12629395Y-12933176D01*
X12562728Y-13009367D01*
X12591300Y-13009367D01*
X12610348Y-13018890D01*
X12619871Y-13028414D01*
X12629395Y-13047462D01*
X12629395Y-13095081D01*
X12619871Y-13114128D01*
X12610348Y-13123652D01*
X12591300Y-13133176D01*
X12534157Y-13133176D01*
X12515109Y-13123652D01*
X12505586Y-13114128D01*
X12753205Y-12933176D02*
X12772252Y-12933176D01*
X12791300Y-12942700D01*
X12800824Y-12952224D01*
X12810348Y-12971271D01*
X12819871Y-13009367D01*
X12819871Y-13056986D01*
X12810348Y-13095081D01*
X12800824Y-13114128D01*
X12791300Y-13123652D01*
X12772252Y-13133176D01*
X12753205Y-13133176D01*
X12734157Y-13123652D01*
X12724633Y-13114128D01*
X12715109Y-13095081D01*
X12705586Y-13056986D01*
X12705586Y-13009367D01*
X12715109Y-12971271D01*
X12724633Y-12952224D01*
X12734157Y-12942700D01*
X12753205Y-12933176D01*
X13000824Y-12933176D02*
X12905586Y-12933176D01*
X12896062Y-13028414D01*
X12905586Y-13018890D01*
X12924633Y-13009367D01*
X12972252Y-13009367D01*
X12991300Y-13018890D01*
X13000824Y-13028414D01*
X13010348Y-13047462D01*
X13010348Y-13095081D01*
X13000824Y-13114128D01*
X12991300Y-13123652D01*
X12972252Y-13133176D01*
X12924633Y-13133176D01*
X12905586Y-13123652D01*
X12896062Y-13114128D01*
X13096062Y-13133176D02*
X13096062Y-12999843D01*
X13096062Y-13018890D02*
X13105586Y-13009367D01*
X13124633Y-12999843D01*
X13153205Y-12999843D01*
X13172252Y-13009367D01*
X13181776Y-13028414D01*
X13181776Y-13133176D01*
X13181776Y-13028414D02*
X13191300Y-13009367D01*
X13210348Y-12999843D01*
X13238919Y-12999843D01*
X13257967Y-13009367D01*
X13267490Y-13028414D01*
X13267490Y-13133176D01*
X13362728Y-13133176D02*
X13362728Y-12999843D01*
X13362728Y-13018890D02*
X13372252Y-13009367D01*
X13391300Y-12999843D01*
X13419871Y-12999843D01*
X13438919Y-13009367D01*
X13448443Y-13028414D01*
X13448443Y-13133176D01*
X13448443Y-13028414D02*
X13457967Y-13009367D01*
X13477014Y-12999843D01*
X13505586Y-12999843D01*
X13524633Y-13009367D01*
X13534157Y-13028414D01*
X13534157Y-13133176D01*
X13924633Y-12923652D02*
X13753205Y-13180795D01*
X14181776Y-12933176D02*
X14200824Y-12933176D01*
X14219871Y-12942700D01*
X14229395Y-12952224D01*
X14238919Y-12971271D01*
X14248443Y-13009367D01*
X14248443Y-13056986D01*
X14238919Y-13095081D01*
X14229395Y-13114128D01*
X14219871Y-13123652D01*
X14200824Y-13133176D01*
X14181776Y-13133176D01*
X14162728Y-13123652D01*
X14153205Y-13114128D01*
X14143681Y-13095081D01*
X14134157Y-13056986D01*
X14134157Y-13009367D01*
X14143681Y-12971271D01*
X14153205Y-12952224D01*
X14162728Y-12942700D01*
X14181776Y-12933176D01*
X14334157Y-13114128D02*
X14343681Y-13123652D01*
X14334157Y-13133176D01*
X14324633Y-13123652D01*
X14334157Y-13114128D01*
X14334157Y-13133176D01*
X14467490Y-12933176D02*
X14486538Y-12933176D01*
X14505586Y-12942700D01*
X14515109Y-12952224D01*
X14524633Y-12971271D01*
X14534157Y-13009367D01*
X14534157Y-13056986D01*
X14524633Y-13095081D01*
X14515109Y-13114128D01*
X14505586Y-13123652D01*
X14486538Y-13133176D01*
X14467490Y-13133176D01*
X14448443Y-13123652D01*
X14438919Y-13114128D01*
X14429395Y-13095081D01*
X14419871Y-13056986D01*
X14419871Y-13009367D01*
X14429395Y-12971271D01*
X14438919Y-12952224D01*
X14448443Y-12942700D01*
X14467490Y-12933176D01*
X14724633Y-13133176D02*
X14610348Y-13133176D01*
X14667490Y-13133176D02*
X14667490Y-12933176D01*
X14648443Y-12961748D01*
X14629395Y-12980795D01*
X14610348Y-12990319D01*
X14800824Y-12952224D02*
X14810348Y-12942700D01*
X14829395Y-12933176D01*
X14877014Y-12933176D01*
X14896062Y-12942700D01*
X14905586Y-12952224D01*
X14915109Y-12971271D01*
X14915109Y-12990319D01*
X14905586Y-13018890D01*
X14791300Y-13133176D01*
X14915109Y-13133176D01*
X15038919Y-12933176D02*
X15057967Y-12933176D01*
X15077014Y-12942700D01*
X15086538Y-12952224D01*
X15096062Y-12971271D01*
X15105586Y-13009367D01*
X15105586Y-13056986D01*
X15096062Y-13095081D01*
X15086538Y-13114128D01*
X15077014Y-13123652D01*
X15057967Y-13133176D01*
X15038919Y-13133176D01*
X15019871Y-13123652D01*
X15010348Y-13114128D01*
X15000824Y-13095081D01*
X14991300Y-13056986D01*
X14991300Y-13009367D01*
X15000824Y-12971271D01*
X15010348Y-12952224D01*
X15019871Y-12942700D01*
X15038919Y-12933176D01*
X15181776Y-12933176D02*
X15181776Y-12971271D01*
X15257967Y-12933176D02*
X15257967Y-12971271D01*
X15553205Y-13209367D02*
X15543681Y-13199843D01*
X15524633Y-13171271D01*
X15515109Y-13152224D01*
X15505586Y-13123652D01*
X15496062Y-13076033D01*
X15496062Y-13037938D01*
X15505586Y-12990319D01*
X15515109Y-12961748D01*
X15524633Y-12942700D01*
X15543681Y-12914128D01*
X15553205Y-12904605D01*
X15619871Y-12952224D02*
X15629395Y-12942700D01*
X15648443Y-12933176D01*
X15696062Y-12933176D01*
X15715109Y-12942700D01*
X15724633Y-12952224D01*
X15734157Y-12971271D01*
X15734157Y-12990319D01*
X15724633Y-13018890D01*
X15610348Y-13133176D01*
X15734157Y-13133176D01*
X15915109Y-12933176D02*
X15819871Y-12933176D01*
X15810348Y-13028414D01*
X15819871Y-13018890D01*
X15838919Y-13009367D01*
X15886538Y-13009367D01*
X15905586Y-13018890D01*
X15915109Y-13028414D01*
X15924633Y-13047462D01*
X15924633Y-13095081D01*
X15915109Y-13114128D01*
X15905586Y-13123652D01*
X15886538Y-13133176D01*
X15838919Y-13133176D01*
X15819871Y-13123652D01*
X15810348Y-13114128D01*
X16162728Y-13133176D02*
X16162728Y-12933176D01*
X16248443Y-13133176D02*
X16248443Y-13028414D01*
X16238919Y-13009367D01*
X16219871Y-12999843D01*
X16191300Y-12999843D01*
X16172252Y-13009367D01*
X16162728Y-13018890D01*
X16372252Y-13133176D02*
X16353205Y-13123652D01*
X16343681Y-13114128D01*
X16334157Y-13095081D01*
X16334157Y-13037938D01*
X16343681Y-13018890D01*
X16353205Y-13009367D01*
X16372252Y-12999843D01*
X16400824Y-12999843D01*
X16419871Y-13009367D01*
X16429395Y-13018890D01*
X16438919Y-13037938D01*
X16438919Y-13095081D01*
X16429395Y-13114128D01*
X16419871Y-13123652D01*
X16400824Y-13133176D01*
X16372252Y-13133176D01*
X16553205Y-13133176D02*
X16534157Y-13123652D01*
X16524633Y-13104605D01*
X16524633Y-12933176D01*
X16705586Y-13123652D02*
X16686538Y-13133176D01*
X16648443Y-13133176D01*
X16629395Y-13123652D01*
X16619871Y-13104605D01*
X16619871Y-13028414D01*
X16629395Y-13009367D01*
X16648443Y-12999843D01*
X16686538Y-12999843D01*
X16705586Y-13009367D01*
X16715109Y-13028414D01*
X16715109Y-13047462D01*
X16619871Y-13066509D01*
X16791300Y-13123652D02*
X16810348Y-13133176D01*
X16848443Y-13133176D01*
X16867490Y-13123652D01*
X16877014Y-13104605D01*
X16877014Y-13095081D01*
X16867490Y-13076033D01*
X16848443Y-13066509D01*
X16819871Y-13066509D01*
X16800824Y-13056986D01*
X16791300Y-13037938D01*
X16791300Y-13028414D01*
X16800824Y-13009367D01*
X16819871Y-12999843D01*
X16848443Y-12999843D01*
X16867490Y-13009367D01*
X16943681Y-13209367D02*
X16953205Y-13199843D01*
X16972252Y-13171271D01*
X16981776Y-13152224D01*
X16991300Y-13123652D01*
X17000824Y-13076033D01*
X17000824Y-13037938D01*
X16991300Y-12990319D01*
X16981776Y-12961748D01*
X16972252Y-12942700D01*
X16953205Y-12914128D01*
X16943681Y-12904605D01*
D13*
X11981300Y-13306700D02*
G75*
G03*
X11981300Y-13306700I-20000J0D01*
G01*
D11*
X12277014Y-13197176D02*
X12296062Y-13197176D01*
X12315109Y-13206700D01*
X12324633Y-13216224D01*
X12334157Y-13235271D01*
X12343681Y-13273367D01*
X12343681Y-13320986D01*
X12334157Y-13359081D01*
X12324633Y-13378128D01*
X12315109Y-13387652D01*
X12296062Y-13397176D01*
X12277014Y-13397176D01*
X12257967Y-13387652D01*
X12248443Y-13378128D01*
X12238919Y-13359081D01*
X12229395Y-13320986D01*
X12229395Y-13273367D01*
X12238919Y-13235271D01*
X12248443Y-13216224D01*
X12257967Y-13206700D01*
X12277014Y-13197176D01*
X12429395Y-13378128D02*
X12438919Y-13387652D01*
X12429395Y-13397176D01*
X12419871Y-13387652D01*
X12429395Y-13378128D01*
X12429395Y-13397176D01*
X12610348Y-13263843D02*
X12610348Y-13397176D01*
X12562728Y-13187652D02*
X12515109Y-13330509D01*
X12638919Y-13330509D01*
X12753205Y-13197176D02*
X12772252Y-13197176D01*
X12791300Y-13206700D01*
X12800824Y-13216224D01*
X12810348Y-13235271D01*
X12819871Y-13273367D01*
X12819871Y-13320986D01*
X12810348Y-13359081D01*
X12800824Y-13378128D01*
X12791300Y-13387652D01*
X12772252Y-13397176D01*
X12753205Y-13397176D01*
X12734157Y-13387652D01*
X12724633Y-13378128D01*
X12715109Y-13359081D01*
X12705586Y-13320986D01*
X12705586Y-13273367D01*
X12715109Y-13235271D01*
X12724633Y-13216224D01*
X12734157Y-13206700D01*
X12753205Y-13197176D01*
X12943681Y-13197176D02*
X12962728Y-13197176D01*
X12981776Y-13206700D01*
X12991300Y-13216224D01*
X13000824Y-13235271D01*
X13010348Y-13273367D01*
X13010348Y-13320986D01*
X13000824Y-13359081D01*
X12991300Y-13378128D01*
X12981776Y-13387652D01*
X12962728Y-13397176D01*
X12943681Y-13397176D01*
X12924633Y-13387652D01*
X12915109Y-13378128D01*
X12905586Y-13359081D01*
X12896062Y-13320986D01*
X12896062Y-13273367D01*
X12905586Y-13235271D01*
X12915109Y-13216224D01*
X12924633Y-13206700D01*
X12943681Y-13197176D01*
X13096062Y-13397176D02*
X13096062Y-13263843D01*
X13096062Y-13282890D02*
X13105586Y-13273367D01*
X13124633Y-13263843D01*
X13153205Y-13263843D01*
X13172252Y-13273367D01*
X13181776Y-13292414D01*
X13181776Y-13397176D01*
X13181776Y-13292414D02*
X13191300Y-13273367D01*
X13210348Y-13263843D01*
X13238919Y-13263843D01*
X13257967Y-13273367D01*
X13267490Y-13292414D01*
X13267490Y-13397176D01*
X13362728Y-13397176D02*
X13362728Y-13263843D01*
X13362728Y-13282890D02*
X13372252Y-13273367D01*
X13391300Y-13263843D01*
X13419871Y-13263843D01*
X13438919Y-13273367D01*
X13448443Y-13292414D01*
X13448443Y-13397176D01*
X13448443Y-13292414D02*
X13457967Y-13273367D01*
X13477014Y-13263843D01*
X13505586Y-13263843D01*
X13524633Y-13273367D01*
X13534157Y-13292414D01*
X13534157Y-13397176D01*
X13924633Y-13187652D02*
X13753205Y-13444795D01*
X14181776Y-13197176D02*
X14200824Y-13197176D01*
X14219871Y-13206700D01*
X14229395Y-13216224D01*
X14238919Y-13235271D01*
X14248443Y-13273367D01*
X14248443Y-13320986D01*
X14238919Y-13359081D01*
X14229395Y-13378128D01*
X14219871Y-13387652D01*
X14200824Y-13397176D01*
X14181776Y-13397176D01*
X14162728Y-13387652D01*
X14153205Y-13378128D01*
X14143681Y-13359081D01*
X14134157Y-13320986D01*
X14134157Y-13273367D01*
X14143681Y-13235271D01*
X14153205Y-13216224D01*
X14162728Y-13206700D01*
X14181776Y-13197176D01*
X14334157Y-13378128D02*
X14343681Y-13387652D01*
X14334157Y-13397176D01*
X14324633Y-13387652D01*
X14334157Y-13378128D01*
X14334157Y-13397176D01*
X14467490Y-13197176D02*
X14486538Y-13197176D01*
X14505586Y-13206700D01*
X14515109Y-13216224D01*
X14524633Y-13235271D01*
X14534157Y-13273367D01*
X14534157Y-13320986D01*
X14524633Y-13359081D01*
X14515109Y-13378128D01*
X14505586Y-13387652D01*
X14486538Y-13397176D01*
X14467490Y-13397176D01*
X14448443Y-13387652D01*
X14438919Y-13378128D01*
X14429395Y-13359081D01*
X14419871Y-13320986D01*
X14419871Y-13273367D01*
X14429395Y-13235271D01*
X14438919Y-13216224D01*
X14448443Y-13206700D01*
X14467490Y-13197176D01*
X14724633Y-13397176D02*
X14610348Y-13397176D01*
X14667490Y-13397176D02*
X14667490Y-13197176D01*
X14648443Y-13225748D01*
X14629395Y-13244795D01*
X14610348Y-13254319D01*
X14905586Y-13197176D02*
X14810348Y-13197176D01*
X14800824Y-13292414D01*
X14810348Y-13282890D01*
X14829395Y-13273367D01*
X14877014Y-13273367D01*
X14896062Y-13282890D01*
X14905586Y-13292414D01*
X14915109Y-13311462D01*
X14915109Y-13359081D01*
X14905586Y-13378128D01*
X14896062Y-13387652D01*
X14877014Y-13397176D01*
X14829395Y-13397176D01*
X14810348Y-13387652D01*
X14800824Y-13378128D01*
X14981776Y-13197176D02*
X15115109Y-13197176D01*
X15029395Y-13397176D01*
X15181776Y-13197176D02*
X15181776Y-13235271D01*
X15257967Y-13197176D02*
X15257967Y-13235271D01*
X15553205Y-13473367D02*
X15543681Y-13463843D01*
X15524633Y-13435271D01*
X15515109Y-13416224D01*
X15505586Y-13387652D01*
X15496062Y-13340033D01*
X15496062Y-13301938D01*
X15505586Y-13254319D01*
X15515109Y-13225748D01*
X15524633Y-13206700D01*
X15543681Y-13178128D01*
X15553205Y-13168605D01*
X15724633Y-13197176D02*
X15629395Y-13197176D01*
X15619871Y-13292414D01*
X15629395Y-13282890D01*
X15648443Y-13273367D01*
X15696062Y-13273367D01*
X15715109Y-13282890D01*
X15724633Y-13292414D01*
X15734157Y-13311462D01*
X15734157Y-13359081D01*
X15724633Y-13378128D01*
X15715109Y-13387652D01*
X15696062Y-13397176D01*
X15648443Y-13397176D01*
X15629395Y-13387652D01*
X15619871Y-13378128D01*
X15800824Y-13197176D02*
X15924633Y-13197176D01*
X15857967Y-13273367D01*
X15886538Y-13273367D01*
X15905586Y-13282890D01*
X15915109Y-13292414D01*
X15924633Y-13311462D01*
X15924633Y-13359081D01*
X15915109Y-13378128D01*
X15905586Y-13387652D01*
X15886538Y-13397176D01*
X15829395Y-13397176D01*
X15810348Y-13387652D01*
X15800824Y-13378128D01*
X16162728Y-13397176D02*
X16162728Y-13197176D01*
X16248443Y-13397176D02*
X16248443Y-13292414D01*
X16238919Y-13273367D01*
X16219871Y-13263843D01*
X16191300Y-13263843D01*
X16172252Y-13273367D01*
X16162728Y-13282890D01*
X16372252Y-13397176D02*
X16353205Y-13387652D01*
X16343681Y-13378128D01*
X16334157Y-13359081D01*
X16334157Y-13301938D01*
X16343681Y-13282890D01*
X16353205Y-13273367D01*
X16372252Y-13263843D01*
X16400824Y-13263843D01*
X16419871Y-13273367D01*
X16429395Y-13282890D01*
X16438919Y-13301938D01*
X16438919Y-13359081D01*
X16429395Y-13378128D01*
X16419871Y-13387652D01*
X16400824Y-13397176D01*
X16372252Y-13397176D01*
X16553205Y-13397176D02*
X16534157Y-13387652D01*
X16524633Y-13368605D01*
X16524633Y-13197176D01*
X16705586Y-13387652D02*
X16686538Y-13397176D01*
X16648443Y-13397176D01*
X16629395Y-13387652D01*
X16619871Y-13368605D01*
X16619871Y-13292414D01*
X16629395Y-13273367D01*
X16648443Y-13263843D01*
X16686538Y-13263843D01*
X16705586Y-13273367D01*
X16715109Y-13292414D01*
X16715109Y-13311462D01*
X16619871Y-13330509D01*
X16791300Y-13387652D02*
X16810348Y-13397176D01*
X16848443Y-13397176D01*
X16867490Y-13387652D01*
X16877014Y-13368605D01*
X16877014Y-13359081D01*
X16867490Y-13340033D01*
X16848443Y-13330509D01*
X16819871Y-13330509D01*
X16800824Y-13320986D01*
X16791300Y-13301938D01*
X16791300Y-13292414D01*
X16800824Y-13273367D01*
X16819871Y-13263843D01*
X16848443Y-13263843D01*
X16867490Y-13273367D01*
X16943681Y-13473367D02*
X16953205Y-13463843D01*
X16972252Y-13435271D01*
X16981776Y-13416224D01*
X16991300Y-13387652D01*
X17000824Y-13340033D01*
X17000824Y-13301938D01*
X16991300Y-13254319D01*
X16981776Y-13225748D01*
X16972252Y-13206700D01*
X16953205Y-13178128D01*
X16943681Y-13168605D01*
D14*
X11955900Y-13545300D02*
X11955900Y-13596100D01*
X11930500Y-13570700D02*
X11981300Y-13570700D01*
D11*
X12277014Y-13461176D02*
X12296062Y-13461176D01*
X12315109Y-13470700D01*
X12324633Y-13480224D01*
X12334157Y-13499271D01*
X12343681Y-13537367D01*
X12343681Y-13584986D01*
X12334157Y-13623081D01*
X12324633Y-13642128D01*
X12315109Y-13651652D01*
X12296062Y-13661176D01*
X12277014Y-13661176D01*
X12257967Y-13651652D01*
X12248443Y-13642128D01*
X12238919Y-13623081D01*
X12229395Y-13584986D01*
X12229395Y-13537367D01*
X12238919Y-13499271D01*
X12248443Y-13480224D01*
X12257967Y-13470700D01*
X12277014Y-13461176D01*
X12429395Y-13642128D02*
X12438919Y-13651652D01*
X12429395Y-13661176D01*
X12419871Y-13651652D01*
X12429395Y-13642128D01*
X12429395Y-13661176D01*
X12619871Y-13461176D02*
X12524633Y-13461176D01*
X12515109Y-13556414D01*
X12524633Y-13546890D01*
X12543681Y-13537367D01*
X12591300Y-13537367D01*
X12610348Y-13546890D01*
X12619871Y-13556414D01*
X12629395Y-13575462D01*
X12629395Y-13623081D01*
X12619871Y-13642128D01*
X12610348Y-13651652D01*
X12591300Y-13661176D01*
X12543681Y-13661176D01*
X12524633Y-13651652D01*
X12515109Y-13642128D01*
X12753205Y-13461176D02*
X12772252Y-13461176D01*
X12791300Y-13470700D01*
X12800824Y-13480224D01*
X12810348Y-13499271D01*
X12819871Y-13537367D01*
X12819871Y-13584986D01*
X12810348Y-13623081D01*
X12800824Y-13642128D01*
X12791300Y-13651652D01*
X12772252Y-13661176D01*
X12753205Y-13661176D01*
X12734157Y-13651652D01*
X12724633Y-13642128D01*
X12715109Y-13623081D01*
X12705586Y-13584986D01*
X12705586Y-13537367D01*
X12715109Y-13499271D01*
X12724633Y-13480224D01*
X12734157Y-13470700D01*
X12753205Y-13461176D01*
X12934157Y-13546890D02*
X12915109Y-13537367D01*
X12905586Y-13527843D01*
X12896062Y-13508795D01*
X12896062Y-13499271D01*
X12905586Y-13480224D01*
X12915109Y-13470700D01*
X12934157Y-13461176D01*
X12972252Y-13461176D01*
X12991300Y-13470700D01*
X13000824Y-13480224D01*
X13010348Y-13499271D01*
X13010348Y-13508795D01*
X13000824Y-13527843D01*
X12991300Y-13537367D01*
X12972252Y-13546890D01*
X12934157Y-13546890D01*
X12915109Y-13556414D01*
X12905586Y-13565938D01*
X12896062Y-13584986D01*
X12896062Y-13623081D01*
X12905586Y-13642128D01*
X12915109Y-13651652D01*
X12934157Y-13661176D01*
X12972252Y-13661176D01*
X12991300Y-13651652D01*
X13000824Y-13642128D01*
X13010348Y-13623081D01*
X13010348Y-13584986D01*
X13000824Y-13565938D01*
X12991300Y-13556414D01*
X12972252Y-13546890D01*
X13096062Y-13661176D02*
X13096062Y-13527843D01*
X13096062Y-13546890D02*
X13105586Y-13537367D01*
X13124633Y-13527843D01*
X13153205Y-13527843D01*
X13172252Y-13537367D01*
X13181776Y-13556414D01*
X13181776Y-13661176D01*
X13181776Y-13556414D02*
X13191300Y-13537367D01*
X13210348Y-13527843D01*
X13238919Y-13527843D01*
X13257967Y-13537367D01*
X13267490Y-13556414D01*
X13267490Y-13661176D01*
X13362728Y-13661176D02*
X13362728Y-13527843D01*
X13362728Y-13546890D02*
X13372252Y-13537367D01*
X13391300Y-13527843D01*
X13419871Y-13527843D01*
X13438919Y-13537367D01*
X13448443Y-13556414D01*
X13448443Y-13661176D01*
X13448443Y-13556414D02*
X13457967Y-13537367D01*
X13477014Y-13527843D01*
X13505586Y-13527843D01*
X13524633Y-13537367D01*
X13534157Y-13556414D01*
X13534157Y-13661176D01*
X13924633Y-13451652D02*
X13753205Y-13708795D01*
X14181776Y-13461176D02*
X14200824Y-13461176D01*
X14219871Y-13470700D01*
X14229395Y-13480224D01*
X14238919Y-13499271D01*
X14248443Y-13537367D01*
X14248443Y-13584986D01*
X14238919Y-13623081D01*
X14229395Y-13642128D01*
X14219871Y-13651652D01*
X14200824Y-13661176D01*
X14181776Y-13661176D01*
X14162728Y-13651652D01*
X14153205Y-13642128D01*
X14143681Y-13623081D01*
X14134157Y-13584986D01*
X14134157Y-13537367D01*
X14143681Y-13499271D01*
X14153205Y-13480224D01*
X14162728Y-13470700D01*
X14181776Y-13461176D01*
X14334157Y-13642128D02*
X14343681Y-13651652D01*
X14334157Y-13661176D01*
X14324633Y-13651652D01*
X14334157Y-13642128D01*
X14334157Y-13661176D01*
X14467490Y-13461176D02*
X14486538Y-13461176D01*
X14505586Y-13470700D01*
X14515109Y-13480224D01*
X14524633Y-13499271D01*
X14534157Y-13537367D01*
X14534157Y-13584986D01*
X14524633Y-13623081D01*
X14515109Y-13642128D01*
X14505586Y-13651652D01*
X14486538Y-13661176D01*
X14467490Y-13661176D01*
X14448443Y-13651652D01*
X14438919Y-13642128D01*
X14429395Y-13623081D01*
X14419871Y-13584986D01*
X14419871Y-13537367D01*
X14429395Y-13499271D01*
X14438919Y-13480224D01*
X14448443Y-13470700D01*
X14467490Y-13461176D01*
X14610348Y-13480224D02*
X14619871Y-13470700D01*
X14638919Y-13461176D01*
X14686538Y-13461176D01*
X14705586Y-13470700D01*
X14715109Y-13480224D01*
X14724633Y-13499271D01*
X14724633Y-13518319D01*
X14715109Y-13546890D01*
X14600824Y-13661176D01*
X14724633Y-13661176D01*
X14848443Y-13461176D02*
X14867490Y-13461176D01*
X14886538Y-13470700D01*
X14896062Y-13480224D01*
X14905586Y-13499271D01*
X14915109Y-13537367D01*
X14915109Y-13584986D01*
X14905586Y-13623081D01*
X14896062Y-13642128D01*
X14886538Y-13651652D01*
X14867490Y-13661176D01*
X14848443Y-13661176D01*
X14829395Y-13651652D01*
X14819871Y-13642128D01*
X14810348Y-13623081D01*
X14800824Y-13584986D01*
X14800824Y-13537367D01*
X14810348Y-13499271D01*
X14819871Y-13480224D01*
X14829395Y-13470700D01*
X14848443Y-13461176D01*
X15038919Y-13461176D02*
X15057967Y-13461176D01*
X15077014Y-13470700D01*
X15086538Y-13480224D01*
X15096062Y-13499271D01*
X15105586Y-13537367D01*
X15105586Y-13584986D01*
X15096062Y-13623081D01*
X15086538Y-13642128D01*
X15077014Y-13651652D01*
X15057967Y-13661176D01*
X15038919Y-13661176D01*
X15019871Y-13651652D01*
X15010348Y-13642128D01*
X15000824Y-13623081D01*
X14991300Y-13584986D01*
X14991300Y-13537367D01*
X15000824Y-13499271D01*
X15010348Y-13480224D01*
X15019871Y-13470700D01*
X15038919Y-13461176D01*
X15181776Y-13461176D02*
X15181776Y-13499271D01*
X15257967Y-13461176D02*
X15257967Y-13499271D01*
X15553205Y-13737367D02*
X15543681Y-13727843D01*
X15524633Y-13699271D01*
X15515109Y-13680224D01*
X15505586Y-13651652D01*
X15496062Y-13604033D01*
X15496062Y-13565938D01*
X15505586Y-13518319D01*
X15515109Y-13489748D01*
X15524633Y-13470700D01*
X15543681Y-13442128D01*
X15553205Y-13432605D01*
X15715109Y-13461176D02*
X15677014Y-13461176D01*
X15657967Y-13470700D01*
X15648443Y-13480224D01*
X15629395Y-13508795D01*
X15619871Y-13546890D01*
X15619871Y-13623081D01*
X15629395Y-13642128D01*
X15638919Y-13651652D01*
X15657967Y-13661176D01*
X15696062Y-13661176D01*
X15715109Y-13651652D01*
X15724633Y-13642128D01*
X15734157Y-13623081D01*
X15734157Y-13575462D01*
X15724633Y-13556414D01*
X15715109Y-13546890D01*
X15696062Y-13537367D01*
X15657967Y-13537367D01*
X15638919Y-13546890D01*
X15629395Y-13556414D01*
X15619871Y-13575462D01*
X15972252Y-13661176D02*
X15972252Y-13461176D01*
X16057967Y-13661176D02*
X16057967Y-13556414D01*
X16048443Y-13537367D01*
X16029395Y-13527843D01*
X16000824Y-13527843D01*
X15981776Y-13537367D01*
X15972252Y-13546890D01*
X16181776Y-13661176D02*
X16162728Y-13651652D01*
X16153205Y-13642128D01*
X16143681Y-13623081D01*
X16143681Y-13565938D01*
X16153205Y-13546890D01*
X16162728Y-13537367D01*
X16181776Y-13527843D01*
X16210348Y-13527843D01*
X16229395Y-13537367D01*
X16238919Y-13546890D01*
X16248443Y-13565938D01*
X16248443Y-13623081D01*
X16238919Y-13642128D01*
X16229395Y-13651652D01*
X16210348Y-13661176D01*
X16181776Y-13661176D01*
X16362728Y-13661176D02*
X16343681Y-13651652D01*
X16334157Y-13632605D01*
X16334157Y-13461176D01*
X16515109Y-13651652D02*
X16496062Y-13661176D01*
X16457967Y-13661176D01*
X16438919Y-13651652D01*
X16429395Y-13632605D01*
X16429395Y-13556414D01*
X16438919Y-13537367D01*
X16457967Y-13527843D01*
X16496062Y-13527843D01*
X16515109Y-13537367D01*
X16524633Y-13556414D01*
X16524633Y-13575462D01*
X16429395Y-13594509D01*
X16600824Y-13651652D02*
X16619871Y-13661176D01*
X16657967Y-13661176D01*
X16677014Y-13651652D01*
X16686538Y-13632605D01*
X16686538Y-13623081D01*
X16677014Y-13604033D01*
X16657967Y-13594509D01*
X16629395Y-13594509D01*
X16610348Y-13584986D01*
X16600824Y-13565938D01*
X16600824Y-13556414D01*
X16610348Y-13537367D01*
X16629395Y-13527843D01*
X16657967Y-13527843D01*
X16677014Y-13537367D01*
X16753205Y-13737367D02*
X16762728Y-13727843D01*
X16781776Y-13699271D01*
X16791300Y-13680224D01*
X16800824Y-13651652D01*
X16810348Y-13604033D01*
X16810348Y-13565938D01*
X16800824Y-13518319D01*
X16791300Y-13489748D01*
X16781776Y-13470700D01*
X16762728Y-13442128D01*
X16753205Y-13432605D01*
D15*
X11972001Y-13857151D02*
X11972001Y-13812249D01*
X11927099Y-13812249D01*
X11927099Y-13857151D01*
X11972001Y-13857151D01*
D11*
X12277014Y-13725176D02*
X12296062Y-13725176D01*
X12315109Y-13734700D01*
X12324633Y-13744224D01*
X12334157Y-13763271D01*
X12343681Y-13801367D01*
X12343681Y-13848986D01*
X12334157Y-13887081D01*
X12324633Y-13906128D01*
X12315109Y-13915652D01*
X12296062Y-13925176D01*
X12277014Y-13925176D01*
X12257967Y-13915652D01*
X12248443Y-13906128D01*
X12238919Y-13887081D01*
X12229395Y-13848986D01*
X12229395Y-13801367D01*
X12238919Y-13763271D01*
X12248443Y-13744224D01*
X12257967Y-13734700D01*
X12277014Y-13725176D01*
X12429395Y-13906128D02*
X12438919Y-13915652D01*
X12429395Y-13925176D01*
X12419871Y-13915652D01*
X12429395Y-13906128D01*
X12429395Y-13925176D01*
X12610348Y-13725176D02*
X12572252Y-13725176D01*
X12553205Y-13734700D01*
X12543681Y-13744224D01*
X12524633Y-13772795D01*
X12515109Y-13810890D01*
X12515109Y-13887081D01*
X12524633Y-13906128D01*
X12534157Y-13915652D01*
X12553205Y-13925176D01*
X12591300Y-13925176D01*
X12610348Y-13915652D01*
X12619871Y-13906128D01*
X12629395Y-13887081D01*
X12629395Y-13839462D01*
X12619871Y-13820414D01*
X12610348Y-13810890D01*
X12591300Y-13801367D01*
X12553205Y-13801367D01*
X12534157Y-13810890D01*
X12524633Y-13820414D01*
X12515109Y-13839462D01*
X12696062Y-13725176D02*
X12819871Y-13725176D01*
X12753205Y-13801367D01*
X12781776Y-13801367D01*
X12800824Y-13810890D01*
X12810348Y-13820414D01*
X12819871Y-13839462D01*
X12819871Y-13887081D01*
X12810348Y-13906128D01*
X12800824Y-13915652D01*
X12781776Y-13925176D01*
X12724633Y-13925176D01*
X12705586Y-13915652D01*
X12696062Y-13906128D01*
X13000824Y-13725176D02*
X12905586Y-13725176D01*
X12896062Y-13820414D01*
X12905586Y-13810890D01*
X12924633Y-13801367D01*
X12972252Y-13801367D01*
X12991300Y-13810890D01*
X13000824Y-13820414D01*
X13010348Y-13839462D01*
X13010348Y-13887081D01*
X13000824Y-13906128D01*
X12991300Y-13915652D01*
X12972252Y-13925176D01*
X12924633Y-13925176D01*
X12905586Y-13915652D01*
X12896062Y-13906128D01*
X13096062Y-13925176D02*
X13096062Y-13791843D01*
X13096062Y-13810890D02*
X13105586Y-13801367D01*
X13124633Y-13791843D01*
X13153205Y-13791843D01*
X13172252Y-13801367D01*
X13181776Y-13820414D01*
X13181776Y-13925176D01*
X13181776Y-13820414D02*
X13191300Y-13801367D01*
X13210348Y-13791843D01*
X13238919Y-13791843D01*
X13257967Y-13801367D01*
X13267490Y-13820414D01*
X13267490Y-13925176D01*
X13362728Y-13925176D02*
X13362728Y-13791843D01*
X13362728Y-13810890D02*
X13372252Y-13801367D01*
X13391300Y-13791843D01*
X13419871Y-13791843D01*
X13438919Y-13801367D01*
X13448443Y-13820414D01*
X13448443Y-13925176D01*
X13448443Y-13820414D02*
X13457967Y-13801367D01*
X13477014Y-13791843D01*
X13505586Y-13791843D01*
X13524633Y-13801367D01*
X13534157Y-13820414D01*
X13534157Y-13925176D01*
X13924633Y-13715652D02*
X13753205Y-13972795D01*
X14181776Y-13725176D02*
X14200824Y-13725176D01*
X14219871Y-13734700D01*
X14229395Y-13744224D01*
X14238919Y-13763271D01*
X14248443Y-13801367D01*
X14248443Y-13848986D01*
X14238919Y-13887081D01*
X14229395Y-13906128D01*
X14219871Y-13915652D01*
X14200824Y-13925176D01*
X14181776Y-13925176D01*
X14162728Y-13915652D01*
X14153205Y-13906128D01*
X14143681Y-13887081D01*
X14134157Y-13848986D01*
X14134157Y-13801367D01*
X14143681Y-13763271D01*
X14153205Y-13744224D01*
X14162728Y-13734700D01*
X14181776Y-13725176D01*
X14334157Y-13906128D02*
X14343681Y-13915652D01*
X14334157Y-13925176D01*
X14324633Y-13915652D01*
X14334157Y-13906128D01*
X14334157Y-13925176D01*
X14467490Y-13725176D02*
X14486538Y-13725176D01*
X14505586Y-13734700D01*
X14515109Y-13744224D01*
X14524633Y-13763271D01*
X14534157Y-13801367D01*
X14534157Y-13848986D01*
X14524633Y-13887081D01*
X14515109Y-13906128D01*
X14505586Y-13915652D01*
X14486538Y-13925176D01*
X14467490Y-13925176D01*
X14448443Y-13915652D01*
X14438919Y-13906128D01*
X14429395Y-13887081D01*
X14419871Y-13848986D01*
X14419871Y-13801367D01*
X14429395Y-13763271D01*
X14438919Y-13744224D01*
X14448443Y-13734700D01*
X14467490Y-13725176D01*
X14610348Y-13744224D02*
X14619871Y-13734700D01*
X14638919Y-13725176D01*
X14686538Y-13725176D01*
X14705586Y-13734700D01*
X14715109Y-13744224D01*
X14724633Y-13763271D01*
X14724633Y-13782319D01*
X14715109Y-13810890D01*
X14600824Y-13925176D01*
X14724633Y-13925176D01*
X14905586Y-13725176D02*
X14810348Y-13725176D01*
X14800824Y-13820414D01*
X14810348Y-13810890D01*
X14829395Y-13801367D01*
X14877014Y-13801367D01*
X14896062Y-13810890D01*
X14905586Y-13820414D01*
X14915109Y-13839462D01*
X14915109Y-13887081D01*
X14905586Y-13906128D01*
X14896062Y-13915652D01*
X14877014Y-13925176D01*
X14829395Y-13925176D01*
X14810348Y-13915652D01*
X14800824Y-13906128D01*
X15038919Y-13725176D02*
X15057967Y-13725176D01*
X15077014Y-13734700D01*
X15086538Y-13744224D01*
X15096062Y-13763271D01*
X15105586Y-13801367D01*
X15105586Y-13848986D01*
X15096062Y-13887081D01*
X15086538Y-13906128D01*
X15077014Y-13915652D01*
X15057967Y-13925176D01*
X15038919Y-13925176D01*
X15019871Y-13915652D01*
X15010348Y-13906128D01*
X15000824Y-13887081D01*
X14991300Y-13848986D01*
X14991300Y-13801367D01*
X15000824Y-13763271D01*
X15010348Y-13744224D01*
X15019871Y-13734700D01*
X15038919Y-13725176D01*
X15181776Y-13725176D02*
X15181776Y-13763271D01*
X15257967Y-13725176D02*
X15257967Y-13763271D01*
X15553205Y-14001367D02*
X15543681Y-13991843D01*
X15524633Y-13963271D01*
X15515109Y-13944224D01*
X15505586Y-13915652D01*
X15496062Y-13868033D01*
X15496062Y-13829938D01*
X15505586Y-13782319D01*
X15515109Y-13753748D01*
X15524633Y-13734700D01*
X15543681Y-13706128D01*
X15553205Y-13696605D01*
X15610348Y-13725176D02*
X15734157Y-13725176D01*
X15667490Y-13801367D01*
X15696062Y-13801367D01*
X15715109Y-13810890D01*
X15724633Y-13820414D01*
X15734157Y-13839462D01*
X15734157Y-13887081D01*
X15724633Y-13906128D01*
X15715109Y-13915652D01*
X15696062Y-13925176D01*
X15638919Y-13925176D01*
X15619871Y-13915652D01*
X15610348Y-13906128D01*
X15972252Y-13925176D02*
X15972252Y-13725176D01*
X16057967Y-13925176D02*
X16057967Y-13820414D01*
X16048443Y-13801367D01*
X16029395Y-13791843D01*
X16000824Y-13791843D01*
X15981776Y-13801367D01*
X15972252Y-13810890D01*
X16181776Y-13925176D02*
X16162728Y-13915652D01*
X16153205Y-13906128D01*
X16143681Y-13887081D01*
X16143681Y-13829938D01*
X16153205Y-13810890D01*
X16162728Y-13801367D01*
X16181776Y-13791843D01*
X16210348Y-13791843D01*
X16229395Y-13801367D01*
X16238919Y-13810890D01*
X16248443Y-13829938D01*
X16248443Y-13887081D01*
X16238919Y-13906128D01*
X16229395Y-13915652D01*
X16210348Y-13925176D01*
X16181776Y-13925176D01*
X16362728Y-13925176D02*
X16343681Y-13915652D01*
X16334157Y-13896605D01*
X16334157Y-13725176D01*
X16515109Y-13915652D02*
X16496062Y-13925176D01*
X16457967Y-13925176D01*
X16438919Y-13915652D01*
X16429395Y-13896605D01*
X16429395Y-13820414D01*
X16438919Y-13801367D01*
X16457967Y-13791843D01*
X16496062Y-13791843D01*
X16515109Y-13801367D01*
X16524633Y-13820414D01*
X16524633Y-13839462D01*
X16429395Y-13858509D01*
X16600824Y-13915652D02*
X16619871Y-13925176D01*
X16657967Y-13925176D01*
X16677014Y-13915652D01*
X16686538Y-13896605D01*
X16686538Y-13887081D01*
X16677014Y-13868033D01*
X16657967Y-13858509D01*
X16629395Y-13858509D01*
X16610348Y-13848986D01*
X16600824Y-13829938D01*
X16600824Y-13820414D01*
X16610348Y-13801367D01*
X16629395Y-13791843D01*
X16657967Y-13791843D01*
X16677014Y-13801367D01*
X16753205Y-14001367D02*
X16762728Y-13991843D01*
X16781776Y-13963271D01*
X16791300Y-13944224D01*
X16800824Y-13915652D01*
X16810348Y-13868033D01*
X16810348Y-13829938D01*
X16800824Y-13782319D01*
X16791300Y-13753748D01*
X16781776Y-13734700D01*
X16762728Y-13706128D01*
X16753205Y-13696605D01*
D16*
X11944800Y-14135200D02*
X11981300Y-14098700D01*
X11944800Y-14062200D01*
X11908300Y-14098700D01*
X11944800Y-14135200D01*
D11*
X12277014Y-13989176D02*
X12296062Y-13989176D01*
X12315109Y-13998700D01*
X12324633Y-14008224D01*
X12334157Y-14027271D01*
X12343681Y-14065367D01*
X12343681Y-14112986D01*
X12334157Y-14151081D01*
X12324633Y-14170128D01*
X12315109Y-14179652D01*
X12296062Y-14189176D01*
X12277014Y-14189176D01*
X12257967Y-14179652D01*
X12248443Y-14170128D01*
X12238919Y-14151081D01*
X12229395Y-14112986D01*
X12229395Y-14065367D01*
X12238919Y-14027271D01*
X12248443Y-14008224D01*
X12257967Y-13998700D01*
X12277014Y-13989176D01*
X12429395Y-14170128D02*
X12438919Y-14179652D01*
X12429395Y-14189176D01*
X12419871Y-14179652D01*
X12429395Y-14170128D01*
X12429395Y-14189176D01*
X12505586Y-13989176D02*
X12638919Y-13989176D01*
X12553205Y-14189176D01*
X12696062Y-13989176D02*
X12819871Y-13989176D01*
X12753205Y-14065367D01*
X12781776Y-14065367D01*
X12800824Y-14074890D01*
X12810348Y-14084414D01*
X12819871Y-14103462D01*
X12819871Y-14151081D01*
X12810348Y-14170128D01*
X12800824Y-14179652D01*
X12781776Y-14189176D01*
X12724633Y-14189176D01*
X12705586Y-14179652D01*
X12696062Y-14170128D01*
X12943681Y-13989176D02*
X12962728Y-13989176D01*
X12981776Y-13998700D01*
X12991300Y-14008224D01*
X13000824Y-14027271D01*
X13010348Y-14065367D01*
X13010348Y-14112986D01*
X13000824Y-14151081D01*
X12991300Y-14170128D01*
X12981776Y-14179652D01*
X12962728Y-14189176D01*
X12943681Y-14189176D01*
X12924633Y-14179652D01*
X12915109Y-14170128D01*
X12905586Y-14151081D01*
X12896062Y-14112986D01*
X12896062Y-14065367D01*
X12905586Y-14027271D01*
X12915109Y-14008224D01*
X12924633Y-13998700D01*
X12943681Y-13989176D01*
X13096062Y-14189176D02*
X13096062Y-14055843D01*
X13096062Y-14074890D02*
X13105586Y-14065367D01*
X13124633Y-14055843D01*
X13153205Y-14055843D01*
X13172252Y-14065367D01*
X13181776Y-14084414D01*
X13181776Y-14189176D01*
X13181776Y-14084414D02*
X13191300Y-14065367D01*
X13210348Y-14055843D01*
X13238919Y-14055843D01*
X13257967Y-14065367D01*
X13267490Y-14084414D01*
X13267490Y-14189176D01*
X13362728Y-14189176D02*
X13362728Y-14055843D01*
X13362728Y-14074890D02*
X13372252Y-14065367D01*
X13391300Y-14055843D01*
X13419871Y-14055843D01*
X13438919Y-14065367D01*
X13448443Y-14084414D01*
X13448443Y-14189176D01*
X13448443Y-14084414D02*
X13457967Y-14065367D01*
X13477014Y-14055843D01*
X13505586Y-14055843D01*
X13524633Y-14065367D01*
X13534157Y-14084414D01*
X13534157Y-14189176D01*
X13924633Y-13979652D02*
X13753205Y-14236795D01*
X14181776Y-13989176D02*
X14200824Y-13989176D01*
X14219871Y-13998700D01*
X14229395Y-14008224D01*
X14238919Y-14027271D01*
X14248443Y-14065367D01*
X14248443Y-14112986D01*
X14238919Y-14151081D01*
X14229395Y-14170128D01*
X14219871Y-14179652D01*
X14200824Y-14189176D01*
X14181776Y-14189176D01*
X14162728Y-14179652D01*
X14153205Y-14170128D01*
X14143681Y-14151081D01*
X14134157Y-14112986D01*
X14134157Y-14065367D01*
X14143681Y-14027271D01*
X14153205Y-14008224D01*
X14162728Y-13998700D01*
X14181776Y-13989176D01*
X14334157Y-14170128D02*
X14343681Y-14179652D01*
X14334157Y-14189176D01*
X14324633Y-14179652D01*
X14334157Y-14170128D01*
X14334157Y-14189176D01*
X14467490Y-13989176D02*
X14486538Y-13989176D01*
X14505586Y-13998700D01*
X14515109Y-14008224D01*
X14524633Y-14027271D01*
X14534157Y-14065367D01*
X14534157Y-14112986D01*
X14524633Y-14151081D01*
X14515109Y-14170128D01*
X14505586Y-14179652D01*
X14486538Y-14189176D01*
X14467490Y-14189176D01*
X14448443Y-14179652D01*
X14438919Y-14170128D01*
X14429395Y-14151081D01*
X14419871Y-14112986D01*
X14419871Y-14065367D01*
X14429395Y-14027271D01*
X14438919Y-14008224D01*
X14448443Y-13998700D01*
X14467490Y-13989176D01*
X14610348Y-14008224D02*
X14619871Y-13998700D01*
X14638919Y-13989176D01*
X14686538Y-13989176D01*
X14705586Y-13998700D01*
X14715109Y-14008224D01*
X14724633Y-14027271D01*
X14724633Y-14046319D01*
X14715109Y-14074890D01*
X14600824Y-14189176D01*
X14724633Y-14189176D01*
X14838919Y-14074890D02*
X14819871Y-14065367D01*
X14810348Y-14055843D01*
X14800824Y-14036795D01*
X14800824Y-14027271D01*
X14810348Y-14008224D01*
X14819871Y-13998700D01*
X14838919Y-13989176D01*
X14877014Y-13989176D01*
X14896062Y-13998700D01*
X14905586Y-14008224D01*
X14915109Y-14027271D01*
X14915109Y-14036795D01*
X14905586Y-14055843D01*
X14896062Y-14065367D01*
X14877014Y-14074890D01*
X14838919Y-14074890D01*
X14819871Y-14084414D01*
X14810348Y-14093938D01*
X14800824Y-14112986D01*
X14800824Y-14151081D01*
X14810348Y-14170128D01*
X14819871Y-14179652D01*
X14838919Y-14189176D01*
X14877014Y-14189176D01*
X14896062Y-14179652D01*
X14905586Y-14170128D01*
X14915109Y-14151081D01*
X14915109Y-14112986D01*
X14905586Y-14093938D01*
X14896062Y-14084414D01*
X14877014Y-14074890D01*
X14981776Y-13989176D02*
X15115109Y-13989176D01*
X15029395Y-14189176D01*
X15181776Y-13989176D02*
X15181776Y-14027271D01*
X15257967Y-13989176D02*
X15257967Y-14027271D01*
X15553205Y-14265367D02*
X15543681Y-14255843D01*
X15524633Y-14227271D01*
X15515109Y-14208224D01*
X15505586Y-14179652D01*
X15496062Y-14132033D01*
X15496062Y-14093938D01*
X15505586Y-14046319D01*
X15515109Y-14017748D01*
X15524633Y-13998700D01*
X15543681Y-13970128D01*
X15553205Y-13960605D01*
X15715109Y-14055843D02*
X15715109Y-14189176D01*
X15667490Y-13979652D02*
X15619871Y-14122509D01*
X15743681Y-14122509D01*
X15857967Y-13989176D02*
X15877014Y-13989176D01*
X15896062Y-13998700D01*
X15905586Y-14008224D01*
X15915109Y-14027271D01*
X15924633Y-14065367D01*
X15924633Y-14112986D01*
X15915109Y-14151081D01*
X15905586Y-14170128D01*
X15896062Y-14179652D01*
X15877014Y-14189176D01*
X15857967Y-14189176D01*
X15838919Y-14179652D01*
X15829395Y-14170128D01*
X15819871Y-14151081D01*
X15810348Y-14112986D01*
X15810348Y-14065367D01*
X15819871Y-14027271D01*
X15829395Y-14008224D01*
X15838919Y-13998700D01*
X15857967Y-13989176D01*
X16162728Y-14189176D02*
X16162728Y-13989176D01*
X16248443Y-14189176D02*
X16248443Y-14084414D01*
X16238919Y-14065367D01*
X16219871Y-14055843D01*
X16191300Y-14055843D01*
X16172252Y-14065367D01*
X16162728Y-14074890D01*
X16372252Y-14189176D02*
X16353205Y-14179652D01*
X16343681Y-14170128D01*
X16334157Y-14151081D01*
X16334157Y-14093938D01*
X16343681Y-14074890D01*
X16353205Y-14065367D01*
X16372252Y-14055843D01*
X16400824Y-14055843D01*
X16419871Y-14065367D01*
X16429395Y-14074890D01*
X16438919Y-14093938D01*
X16438919Y-14151081D01*
X16429395Y-14170128D01*
X16419871Y-14179652D01*
X16400824Y-14189176D01*
X16372252Y-14189176D01*
X16553205Y-14189176D02*
X16534157Y-14179652D01*
X16524633Y-14160605D01*
X16524633Y-13989176D01*
X16705586Y-14179652D02*
X16686538Y-14189176D01*
X16648443Y-14189176D01*
X16629395Y-14179652D01*
X16619871Y-14160605D01*
X16619871Y-14084414D01*
X16629395Y-14065367D01*
X16648443Y-14055843D01*
X16686538Y-14055843D01*
X16705586Y-14065367D01*
X16715109Y-14084414D01*
X16715109Y-14103462D01*
X16619871Y-14122509D01*
X16791300Y-14179652D02*
X16810348Y-14189176D01*
X16848443Y-14189176D01*
X16867490Y-14179652D01*
X16877014Y-14160605D01*
X16877014Y-14151081D01*
X16867490Y-14132033D01*
X16848443Y-14122509D01*
X16819871Y-14122509D01*
X16800824Y-14112986D01*
X16791300Y-14093938D01*
X16791300Y-14084414D01*
X16800824Y-14065367D01*
X16819871Y-14055843D01*
X16848443Y-14055843D01*
X16867490Y-14065367D01*
X16943681Y-14265367D02*
X16953205Y-14255843D01*
X16972252Y-14227271D01*
X16981776Y-14208224D01*
X16991300Y-14179652D01*
X17000824Y-14132033D01*
X17000824Y-14093938D01*
X16991300Y-14046319D01*
X16981776Y-14017748D01*
X16972252Y-13998700D01*
X16953205Y-13970128D01*
X16943681Y-13960605D01*
D17*
X11901300Y-14322700D02*
X11981300Y-14402700D01*
X11981300Y-14322700D02*
X11901300Y-14402700D01*
X11981300Y-14362700D02*
G75*
G03*
X11981300Y-14362700I-40000J0D01*
G01*
D11*
X12277014Y-14253176D02*
X12296062Y-14253176D01*
X12315109Y-14262700D01*
X12324633Y-14272224D01*
X12334157Y-14291271D01*
X12343681Y-14329367D01*
X12343681Y-14376986D01*
X12334157Y-14415081D01*
X12324633Y-14434128D01*
X12315109Y-14443652D01*
X12296062Y-14453176D01*
X12277014Y-14453176D01*
X12257967Y-14443652D01*
X12248443Y-14434128D01*
X12238919Y-14415081D01*
X12229395Y-14376986D01*
X12229395Y-14329367D01*
X12238919Y-14291271D01*
X12248443Y-14272224D01*
X12257967Y-14262700D01*
X12277014Y-14253176D01*
X12429395Y-14434128D02*
X12438919Y-14443652D01*
X12429395Y-14453176D01*
X12419871Y-14443652D01*
X12429395Y-14434128D01*
X12429395Y-14453176D01*
X12553205Y-14338890D02*
X12534157Y-14329367D01*
X12524633Y-14319843D01*
X12515109Y-14300795D01*
X12515109Y-14291271D01*
X12524633Y-14272224D01*
X12534157Y-14262700D01*
X12553205Y-14253176D01*
X12591300Y-14253176D01*
X12610348Y-14262700D01*
X12619871Y-14272224D01*
X12629395Y-14291271D01*
X12629395Y-14300795D01*
X12619871Y-14319843D01*
X12610348Y-14329367D01*
X12591300Y-14338890D01*
X12553205Y-14338890D01*
X12534157Y-14348414D01*
X12524633Y-14357938D01*
X12515109Y-14376986D01*
X12515109Y-14415081D01*
X12524633Y-14434128D01*
X12534157Y-14443652D01*
X12553205Y-14453176D01*
X12591300Y-14453176D01*
X12610348Y-14443652D01*
X12619871Y-14434128D01*
X12629395Y-14415081D01*
X12629395Y-14376986D01*
X12619871Y-14357938D01*
X12610348Y-14348414D01*
X12591300Y-14338890D01*
X12753205Y-14253176D02*
X12772252Y-14253176D01*
X12791300Y-14262700D01*
X12800824Y-14272224D01*
X12810348Y-14291271D01*
X12819871Y-14329367D01*
X12819871Y-14376986D01*
X12810348Y-14415081D01*
X12800824Y-14434128D01*
X12791300Y-14443652D01*
X12772252Y-14453176D01*
X12753205Y-14453176D01*
X12734157Y-14443652D01*
X12724633Y-14434128D01*
X12715109Y-14415081D01*
X12705586Y-14376986D01*
X12705586Y-14329367D01*
X12715109Y-14291271D01*
X12724633Y-14272224D01*
X12734157Y-14262700D01*
X12753205Y-14253176D01*
X12943681Y-14253176D02*
X12962728Y-14253176D01*
X12981776Y-14262700D01*
X12991300Y-14272224D01*
X13000824Y-14291271D01*
X13010348Y-14329367D01*
X13010348Y-14376986D01*
X13000824Y-14415081D01*
X12991300Y-14434128D01*
X12981776Y-14443652D01*
X12962728Y-14453176D01*
X12943681Y-14453176D01*
X12924633Y-14443652D01*
X12915109Y-14434128D01*
X12905586Y-14415081D01*
X12896062Y-14376986D01*
X12896062Y-14329367D01*
X12905586Y-14291271D01*
X12915109Y-14272224D01*
X12924633Y-14262700D01*
X12943681Y-14253176D01*
X13096062Y-14453176D02*
X13096062Y-14319843D01*
X13096062Y-14338890D02*
X13105586Y-14329367D01*
X13124633Y-14319843D01*
X13153205Y-14319843D01*
X13172252Y-14329367D01*
X13181776Y-14348414D01*
X13181776Y-14453176D01*
X13181776Y-14348414D02*
X13191300Y-14329367D01*
X13210348Y-14319843D01*
X13238919Y-14319843D01*
X13257967Y-14329367D01*
X13267490Y-14348414D01*
X13267490Y-14453176D01*
X13362728Y-14453176D02*
X13362728Y-14319843D01*
X13362728Y-14338890D02*
X13372252Y-14329367D01*
X13391300Y-14319843D01*
X13419871Y-14319843D01*
X13438919Y-14329367D01*
X13448443Y-14348414D01*
X13448443Y-14453176D01*
X13448443Y-14348414D02*
X13457967Y-14329367D01*
X13477014Y-14319843D01*
X13505586Y-14319843D01*
X13524633Y-14329367D01*
X13534157Y-14348414D01*
X13534157Y-14453176D01*
X13924633Y-14243652D02*
X13753205Y-14500795D01*
X14181776Y-14253176D02*
X14200824Y-14253176D01*
X14219871Y-14262700D01*
X14229395Y-14272224D01*
X14238919Y-14291271D01*
X14248443Y-14329367D01*
X14248443Y-14376986D01*
X14238919Y-14415081D01*
X14229395Y-14434128D01*
X14219871Y-14443652D01*
X14200824Y-14453176D01*
X14181776Y-14453176D01*
X14162728Y-14443652D01*
X14153205Y-14434128D01*
X14143681Y-14415081D01*
X14134157Y-14376986D01*
X14134157Y-14329367D01*
X14143681Y-14291271D01*
X14153205Y-14272224D01*
X14162728Y-14262700D01*
X14181776Y-14253176D01*
X14334157Y-14434128D02*
X14343681Y-14443652D01*
X14334157Y-14453176D01*
X14324633Y-14443652D01*
X14334157Y-14434128D01*
X14334157Y-14453176D01*
X14467490Y-14253176D02*
X14486538Y-14253176D01*
X14505586Y-14262700D01*
X14515109Y-14272224D01*
X14524633Y-14291271D01*
X14534157Y-14329367D01*
X14534157Y-14376986D01*
X14524633Y-14415081D01*
X14515109Y-14434128D01*
X14505586Y-14443652D01*
X14486538Y-14453176D01*
X14467490Y-14453176D01*
X14448443Y-14443652D01*
X14438919Y-14434128D01*
X14429395Y-14415081D01*
X14419871Y-14376986D01*
X14419871Y-14329367D01*
X14429395Y-14291271D01*
X14438919Y-14272224D01*
X14448443Y-14262700D01*
X14467490Y-14253176D01*
X14600824Y-14253176D02*
X14724633Y-14253176D01*
X14657967Y-14329367D01*
X14686538Y-14329367D01*
X14705586Y-14338890D01*
X14715109Y-14348414D01*
X14724633Y-14367462D01*
X14724633Y-14415081D01*
X14715109Y-14434128D01*
X14705586Y-14443652D01*
X14686538Y-14453176D01*
X14629395Y-14453176D01*
X14610348Y-14443652D01*
X14600824Y-14434128D01*
X14915109Y-14453176D02*
X14800824Y-14453176D01*
X14857967Y-14453176D02*
X14857967Y-14253176D01*
X14838919Y-14281748D01*
X14819871Y-14300795D01*
X14800824Y-14310319D01*
X15096062Y-14253176D02*
X15000824Y-14253176D01*
X14991300Y-14348414D01*
X15000824Y-14338890D01*
X15019871Y-14329367D01*
X15067490Y-14329367D01*
X15086538Y-14338890D01*
X15096062Y-14348414D01*
X15105586Y-14367462D01*
X15105586Y-14415081D01*
X15096062Y-14434128D01*
X15086538Y-14443652D01*
X15067490Y-14453176D01*
X15019871Y-14453176D01*
X15000824Y-14443652D01*
X14991300Y-14434128D01*
X15181776Y-14253176D02*
X15181776Y-14291271D01*
X15257967Y-14253176D02*
X15257967Y-14291271D01*
X15553205Y-14529367D02*
X15543681Y-14519843D01*
X15524633Y-14491271D01*
X15515109Y-14472224D01*
X15505586Y-14443652D01*
X15496062Y-14396033D01*
X15496062Y-14357938D01*
X15505586Y-14310319D01*
X15515109Y-14281748D01*
X15524633Y-14262700D01*
X15543681Y-14234128D01*
X15553205Y-14224605D01*
X15734157Y-14453176D02*
X15619871Y-14453176D01*
X15677014Y-14453176D02*
X15677014Y-14253176D01*
X15657967Y-14281748D01*
X15638919Y-14300795D01*
X15619871Y-14310319D01*
X15915109Y-14253176D02*
X15819871Y-14253176D01*
X15810348Y-14348414D01*
X15819871Y-14338890D01*
X15838919Y-14329367D01*
X15886538Y-14329367D01*
X15905586Y-14338890D01*
X15915109Y-14348414D01*
X15924633Y-14367462D01*
X15924633Y-14415081D01*
X15915109Y-14434128D01*
X15905586Y-14443652D01*
X15886538Y-14453176D01*
X15838919Y-14453176D01*
X15819871Y-14443652D01*
X15810348Y-14434128D01*
X16162728Y-14453176D02*
X16162728Y-14253176D01*
X16248443Y-14453176D02*
X16248443Y-14348414D01*
X16238919Y-14329367D01*
X16219871Y-14319843D01*
X16191300Y-14319843D01*
X16172252Y-14329367D01*
X16162728Y-14338890D01*
X16372252Y-14453176D02*
X16353205Y-14443652D01*
X16343681Y-14434128D01*
X16334157Y-14415081D01*
X16334157Y-14357938D01*
X16343681Y-14338890D01*
X16353205Y-14329367D01*
X16372252Y-14319843D01*
X16400824Y-14319843D01*
X16419871Y-14329367D01*
X16429395Y-14338890D01*
X16438919Y-14357938D01*
X16438919Y-14415081D01*
X16429395Y-14434128D01*
X16419871Y-14443652D01*
X16400824Y-14453176D01*
X16372252Y-14453176D01*
X16553205Y-14453176D02*
X16534157Y-14443652D01*
X16524633Y-14424605D01*
X16524633Y-14253176D01*
X16705586Y-14443652D02*
X16686538Y-14453176D01*
X16648443Y-14453176D01*
X16629395Y-14443652D01*
X16619871Y-14424605D01*
X16619871Y-14348414D01*
X16629395Y-14329367D01*
X16648443Y-14319843D01*
X16686538Y-14319843D01*
X16705586Y-14329367D01*
X16715109Y-14348414D01*
X16715109Y-14367462D01*
X16619871Y-14386509D01*
X16791300Y-14443652D02*
X16810348Y-14453176D01*
X16848443Y-14453176D01*
X16867490Y-14443652D01*
X16877014Y-14424605D01*
X16877014Y-14415081D01*
X16867490Y-14396033D01*
X16848443Y-14386509D01*
X16819871Y-14386509D01*
X16800824Y-14376986D01*
X16791300Y-14357938D01*
X16791300Y-14348414D01*
X16800824Y-14329367D01*
X16819871Y-14319843D01*
X16848443Y-14319843D01*
X16867490Y-14329367D01*
X16943681Y-14529367D02*
X16953205Y-14519843D01*
X16972252Y-14491271D01*
X16981776Y-14472224D01*
X16991300Y-14443652D01*
X17000824Y-14396033D01*
X17000824Y-14357938D01*
X16991300Y-14310319D01*
X16981776Y-14281748D01*
X16972252Y-14262700D01*
X16953205Y-14234128D01*
X16943681Y-14224605D01*
D18*
X11891300Y-14581700D02*
X11981300Y-14671700D01*
X11981300Y-14581700D02*
X11891300Y-14671700D01*
X11936300Y-14581700D02*
X11936300Y-14671700D01*
X11891300Y-14626700D02*
X11981300Y-14626700D01*
D11*
X12277014Y-14517176D02*
X12296062Y-14517176D01*
X12315109Y-14526700D01*
X12324633Y-14536224D01*
X12334157Y-14555271D01*
X12343681Y-14593367D01*
X12343681Y-14640986D01*
X12334157Y-14679081D01*
X12324633Y-14698128D01*
X12315109Y-14707652D01*
X12296062Y-14717176D01*
X12277014Y-14717176D01*
X12257967Y-14707652D01*
X12248443Y-14698128D01*
X12238919Y-14679081D01*
X12229395Y-14640986D01*
X12229395Y-14593367D01*
X12238919Y-14555271D01*
X12248443Y-14536224D01*
X12257967Y-14526700D01*
X12277014Y-14517176D01*
X12429395Y-14698128D02*
X12438919Y-14707652D01*
X12429395Y-14717176D01*
X12419871Y-14707652D01*
X12429395Y-14698128D01*
X12429395Y-14717176D01*
X12534157Y-14717176D02*
X12572252Y-14717176D01*
X12591300Y-14707652D01*
X12600824Y-14698128D01*
X12619871Y-14669557D01*
X12629395Y-14631462D01*
X12629395Y-14555271D01*
X12619871Y-14536224D01*
X12610348Y-14526700D01*
X12591300Y-14517176D01*
X12553205Y-14517176D01*
X12534157Y-14526700D01*
X12524633Y-14536224D01*
X12515109Y-14555271D01*
X12515109Y-14602890D01*
X12524633Y-14621938D01*
X12534157Y-14631462D01*
X12553205Y-14640986D01*
X12591300Y-14640986D01*
X12610348Y-14631462D01*
X12619871Y-14621938D01*
X12629395Y-14602890D01*
X12753205Y-14517176D02*
X12772252Y-14517176D01*
X12791300Y-14526700D01*
X12800824Y-14536224D01*
X12810348Y-14555271D01*
X12819871Y-14593367D01*
X12819871Y-14640986D01*
X12810348Y-14679081D01*
X12800824Y-14698128D01*
X12791300Y-14707652D01*
X12772252Y-14717176D01*
X12753205Y-14717176D01*
X12734157Y-14707652D01*
X12724633Y-14698128D01*
X12715109Y-14679081D01*
X12705586Y-14640986D01*
X12705586Y-14593367D01*
X12715109Y-14555271D01*
X12724633Y-14536224D01*
X12734157Y-14526700D01*
X12753205Y-14517176D01*
X12943681Y-14517176D02*
X12962728Y-14517176D01*
X12981776Y-14526700D01*
X12991300Y-14536224D01*
X13000824Y-14555271D01*
X13010348Y-14593367D01*
X13010348Y-14640986D01*
X13000824Y-14679081D01*
X12991300Y-14698128D01*
X12981776Y-14707652D01*
X12962728Y-14717176D01*
X12943681Y-14717176D01*
X12924633Y-14707652D01*
X12915109Y-14698128D01*
X12905586Y-14679081D01*
X12896062Y-14640986D01*
X12896062Y-14593367D01*
X12905586Y-14555271D01*
X12915109Y-14536224D01*
X12924633Y-14526700D01*
X12943681Y-14517176D01*
X13096062Y-14717176D02*
X13096062Y-14583843D01*
X13096062Y-14602890D02*
X13105586Y-14593367D01*
X13124633Y-14583843D01*
X13153205Y-14583843D01*
X13172252Y-14593367D01*
X13181776Y-14612414D01*
X13181776Y-14717176D01*
X13181776Y-14612414D02*
X13191300Y-14593367D01*
X13210348Y-14583843D01*
X13238919Y-14583843D01*
X13257967Y-14593367D01*
X13267490Y-14612414D01*
X13267490Y-14717176D01*
X13362728Y-14717176D02*
X13362728Y-14583843D01*
X13362728Y-14602890D02*
X13372252Y-14593367D01*
X13391300Y-14583843D01*
X13419871Y-14583843D01*
X13438919Y-14593367D01*
X13448443Y-14612414D01*
X13448443Y-14717176D01*
X13448443Y-14612414D02*
X13457967Y-14593367D01*
X13477014Y-14583843D01*
X13505586Y-14583843D01*
X13524633Y-14593367D01*
X13534157Y-14612414D01*
X13534157Y-14717176D01*
X13924633Y-14507652D02*
X13753205Y-14764795D01*
X14181776Y-14517176D02*
X14200824Y-14517176D01*
X14219871Y-14526700D01*
X14229395Y-14536224D01*
X14238919Y-14555271D01*
X14248443Y-14593367D01*
X14248443Y-14640986D01*
X14238919Y-14679081D01*
X14229395Y-14698128D01*
X14219871Y-14707652D01*
X14200824Y-14717176D01*
X14181776Y-14717176D01*
X14162728Y-14707652D01*
X14153205Y-14698128D01*
X14143681Y-14679081D01*
X14134157Y-14640986D01*
X14134157Y-14593367D01*
X14143681Y-14555271D01*
X14153205Y-14536224D01*
X14162728Y-14526700D01*
X14181776Y-14517176D01*
X14334157Y-14698128D02*
X14343681Y-14707652D01*
X14334157Y-14717176D01*
X14324633Y-14707652D01*
X14334157Y-14698128D01*
X14334157Y-14717176D01*
X14467490Y-14517176D02*
X14486538Y-14517176D01*
X14505586Y-14526700D01*
X14515109Y-14536224D01*
X14524633Y-14555271D01*
X14534157Y-14593367D01*
X14534157Y-14640986D01*
X14524633Y-14679081D01*
X14515109Y-14698128D01*
X14505586Y-14707652D01*
X14486538Y-14717176D01*
X14467490Y-14717176D01*
X14448443Y-14707652D01*
X14438919Y-14698128D01*
X14429395Y-14679081D01*
X14419871Y-14640986D01*
X14419871Y-14593367D01*
X14429395Y-14555271D01*
X14438919Y-14536224D01*
X14448443Y-14526700D01*
X14467490Y-14517176D01*
X14600824Y-14517176D02*
X14724633Y-14517176D01*
X14657967Y-14593367D01*
X14686538Y-14593367D01*
X14705586Y-14602890D01*
X14715109Y-14612414D01*
X14724633Y-14631462D01*
X14724633Y-14679081D01*
X14715109Y-14698128D01*
X14705586Y-14707652D01*
X14686538Y-14717176D01*
X14629395Y-14717176D01*
X14610348Y-14707652D01*
X14600824Y-14698128D01*
X14905586Y-14517176D02*
X14810348Y-14517176D01*
X14800824Y-14612414D01*
X14810348Y-14602890D01*
X14829395Y-14593367D01*
X14877014Y-14593367D01*
X14896062Y-14602890D01*
X14905586Y-14612414D01*
X14915109Y-14631462D01*
X14915109Y-14679081D01*
X14905586Y-14698128D01*
X14896062Y-14707652D01*
X14877014Y-14717176D01*
X14829395Y-14717176D01*
X14810348Y-14707652D01*
X14800824Y-14698128D01*
X15086538Y-14583843D02*
X15086538Y-14717176D01*
X15038919Y-14507652D02*
X14991300Y-14650509D01*
X15115109Y-14650509D01*
X15181776Y-14517176D02*
X15181776Y-14555271D01*
X15257967Y-14517176D02*
X15257967Y-14555271D01*
X15553205Y-14793367D02*
X15543681Y-14783843D01*
X15524633Y-14755271D01*
X15515109Y-14736224D01*
X15505586Y-14707652D01*
X15496062Y-14660033D01*
X15496062Y-14621938D01*
X15505586Y-14574319D01*
X15515109Y-14545748D01*
X15524633Y-14526700D01*
X15543681Y-14498128D01*
X15553205Y-14488605D01*
X15715109Y-14583843D02*
X15715109Y-14717176D01*
X15667490Y-14507652D02*
X15619871Y-14650509D01*
X15743681Y-14650509D01*
X15972252Y-14717176D02*
X15972252Y-14517176D01*
X16057967Y-14717176D02*
X16057967Y-14612414D01*
X16048443Y-14593367D01*
X16029395Y-14583843D01*
X16000824Y-14583843D01*
X15981776Y-14593367D01*
X15972252Y-14602890D01*
X16181776Y-14717176D02*
X16162728Y-14707652D01*
X16153205Y-14698128D01*
X16143681Y-14679081D01*
X16143681Y-14621938D01*
X16153205Y-14602890D01*
X16162728Y-14593367D01*
X16181776Y-14583843D01*
X16210348Y-14583843D01*
X16229395Y-14593367D01*
X16238919Y-14602890D01*
X16248443Y-14621938D01*
X16248443Y-14679081D01*
X16238919Y-14698128D01*
X16229395Y-14707652D01*
X16210348Y-14717176D01*
X16181776Y-14717176D01*
X16362728Y-14717176D02*
X16343681Y-14707652D01*
X16334157Y-14688605D01*
X16334157Y-14517176D01*
X16515109Y-14707652D02*
X16496062Y-14717176D01*
X16457967Y-14717176D01*
X16438919Y-14707652D01*
X16429395Y-14688605D01*
X16429395Y-14612414D01*
X16438919Y-14593367D01*
X16457967Y-14583843D01*
X16496062Y-14583843D01*
X16515109Y-14593367D01*
X16524633Y-14612414D01*
X16524633Y-14631462D01*
X16429395Y-14650509D01*
X16600824Y-14707652D02*
X16619871Y-14717176D01*
X16657967Y-14717176D01*
X16677014Y-14707652D01*
X16686538Y-14688605D01*
X16686538Y-14679081D01*
X16677014Y-14660033D01*
X16657967Y-14650509D01*
X16629395Y-14650509D01*
X16610348Y-14640986D01*
X16600824Y-14621938D01*
X16600824Y-14612414D01*
X16610348Y-14593367D01*
X16629395Y-14583843D01*
X16657967Y-14583843D01*
X16677014Y-14593367D01*
X16753205Y-14793367D02*
X16762728Y-14783843D01*
X16781776Y-14755271D01*
X16791300Y-14736224D01*
X16800824Y-14707652D01*
X16810348Y-14660033D01*
X16810348Y-14621938D01*
X16800824Y-14574319D01*
X16791300Y-14545748D01*
X16781776Y-14526700D01*
X16762728Y-14498128D01*
X16753205Y-14488605D01*
D19*
X11881300Y-14840700D02*
X11981300Y-14940700D01*
X11981300Y-14840700D02*
X11881300Y-14940700D01*
X11966656Y-14926056D02*
X11966656Y-14855344D01*
X11895944Y-14855344D01*
X11895944Y-14926056D01*
X11966656Y-14926056D01*
D11*
X12343681Y-14981176D02*
X12229395Y-14981176D01*
X12286538Y-14981176D02*
X12286538Y-14781176D01*
X12267490Y-14809748D01*
X12248443Y-14828795D01*
X12229395Y-14838319D01*
X12429395Y-14962128D02*
X12438919Y-14971652D01*
X12429395Y-14981176D01*
X12419871Y-14971652D01*
X12429395Y-14962128D01*
X12429395Y-14981176D01*
X12562728Y-14781176D02*
X12581776Y-14781176D01*
X12600824Y-14790700D01*
X12610348Y-14800224D01*
X12619871Y-14819271D01*
X12629395Y-14857367D01*
X12629395Y-14904986D01*
X12619871Y-14943081D01*
X12610348Y-14962128D01*
X12600824Y-14971652D01*
X12581776Y-14981176D01*
X12562728Y-14981176D01*
X12543681Y-14971652D01*
X12534157Y-14962128D01*
X12524633Y-14943081D01*
X12515109Y-14904986D01*
X12515109Y-14857367D01*
X12524633Y-14819271D01*
X12534157Y-14800224D01*
X12543681Y-14790700D01*
X12562728Y-14781176D01*
X12753205Y-14781176D02*
X12772252Y-14781176D01*
X12791300Y-14790700D01*
X12800824Y-14800224D01*
X12810348Y-14819271D01*
X12819871Y-14857367D01*
X12819871Y-14904986D01*
X12810348Y-14943081D01*
X12800824Y-14962128D01*
X12791300Y-14971652D01*
X12772252Y-14981176D01*
X12753205Y-14981176D01*
X12734157Y-14971652D01*
X12724633Y-14962128D01*
X12715109Y-14943081D01*
X12705586Y-14904986D01*
X12705586Y-14857367D01*
X12715109Y-14819271D01*
X12724633Y-14800224D01*
X12734157Y-14790700D01*
X12753205Y-14781176D01*
X12943681Y-14781176D02*
X12962728Y-14781176D01*
X12981776Y-14790700D01*
X12991300Y-14800224D01*
X13000824Y-14819271D01*
X13010348Y-14857367D01*
X13010348Y-14904986D01*
X13000824Y-14943081D01*
X12991300Y-14962128D01*
X12981776Y-14971652D01*
X12962728Y-14981176D01*
X12943681Y-14981176D01*
X12924633Y-14971652D01*
X12915109Y-14962128D01*
X12905586Y-14943081D01*
X12896062Y-14904986D01*
X12896062Y-14857367D01*
X12905586Y-14819271D01*
X12915109Y-14800224D01*
X12924633Y-14790700D01*
X12943681Y-14781176D01*
X13096062Y-14981176D02*
X13096062Y-14847843D01*
X13096062Y-14866890D02*
X13105586Y-14857367D01*
X13124633Y-14847843D01*
X13153205Y-14847843D01*
X13172252Y-14857367D01*
X13181776Y-14876414D01*
X13181776Y-14981176D01*
X13181776Y-14876414D02*
X13191300Y-14857367D01*
X13210348Y-14847843D01*
X13238919Y-14847843D01*
X13257967Y-14857367D01*
X13267490Y-14876414D01*
X13267490Y-14981176D01*
X13362728Y-14981176D02*
X13362728Y-14847843D01*
X13362728Y-14866890D02*
X13372252Y-14857367D01*
X13391300Y-14847843D01*
X13419871Y-14847843D01*
X13438919Y-14857367D01*
X13448443Y-14876414D01*
X13448443Y-14981176D01*
X13448443Y-14876414D02*
X13457967Y-14857367D01*
X13477014Y-14847843D01*
X13505586Y-14847843D01*
X13524633Y-14857367D01*
X13534157Y-14876414D01*
X13534157Y-14981176D01*
X13924633Y-14771652D02*
X13753205Y-15028795D01*
X14181776Y-14781176D02*
X14200824Y-14781176D01*
X14219871Y-14790700D01*
X14229395Y-14800224D01*
X14238919Y-14819271D01*
X14248443Y-14857367D01*
X14248443Y-14904986D01*
X14238919Y-14943081D01*
X14229395Y-14962128D01*
X14219871Y-14971652D01*
X14200824Y-14981176D01*
X14181776Y-14981176D01*
X14162728Y-14971652D01*
X14153205Y-14962128D01*
X14143681Y-14943081D01*
X14134157Y-14904986D01*
X14134157Y-14857367D01*
X14143681Y-14819271D01*
X14153205Y-14800224D01*
X14162728Y-14790700D01*
X14181776Y-14781176D01*
X14334157Y-14962128D02*
X14343681Y-14971652D01*
X14334157Y-14981176D01*
X14324633Y-14971652D01*
X14334157Y-14962128D01*
X14334157Y-14981176D01*
X14467490Y-14781176D02*
X14486538Y-14781176D01*
X14505586Y-14790700D01*
X14515109Y-14800224D01*
X14524633Y-14819271D01*
X14534157Y-14857367D01*
X14534157Y-14904986D01*
X14524633Y-14943081D01*
X14515109Y-14962128D01*
X14505586Y-14971652D01*
X14486538Y-14981176D01*
X14467490Y-14981176D01*
X14448443Y-14971652D01*
X14438919Y-14962128D01*
X14429395Y-14943081D01*
X14419871Y-14904986D01*
X14419871Y-14857367D01*
X14429395Y-14819271D01*
X14438919Y-14800224D01*
X14448443Y-14790700D01*
X14467490Y-14781176D01*
X14600824Y-14781176D02*
X14724633Y-14781176D01*
X14657967Y-14857367D01*
X14686538Y-14857367D01*
X14705586Y-14866890D01*
X14715109Y-14876414D01*
X14724633Y-14895462D01*
X14724633Y-14943081D01*
X14715109Y-14962128D01*
X14705586Y-14971652D01*
X14686538Y-14981176D01*
X14629395Y-14981176D01*
X14610348Y-14971652D01*
X14600824Y-14962128D01*
X14819871Y-14981176D02*
X14857967Y-14981176D01*
X14877014Y-14971652D01*
X14886538Y-14962128D01*
X14905586Y-14933557D01*
X14915109Y-14895462D01*
X14915109Y-14819271D01*
X14905586Y-14800224D01*
X14896062Y-14790700D01*
X14877014Y-14781176D01*
X14838919Y-14781176D01*
X14819871Y-14790700D01*
X14810348Y-14800224D01*
X14800824Y-14819271D01*
X14800824Y-14866890D01*
X14810348Y-14885938D01*
X14819871Y-14895462D01*
X14838919Y-14904986D01*
X14877014Y-14904986D01*
X14896062Y-14895462D01*
X14905586Y-14885938D01*
X14915109Y-14866890D01*
X15086538Y-14847843D02*
X15086538Y-14981176D01*
X15038919Y-14771652D02*
X14991300Y-14914509D01*
X15115109Y-14914509D01*
X15181776Y-14781176D02*
X15181776Y-14819271D01*
X15257967Y-14781176D02*
X15257967Y-14819271D01*
X15553205Y-15057367D02*
X15543681Y-15047843D01*
X15524633Y-15019271D01*
X15515109Y-15000224D01*
X15505586Y-14971652D01*
X15496062Y-14924033D01*
X15496062Y-14885938D01*
X15505586Y-14838319D01*
X15515109Y-14809748D01*
X15524633Y-14790700D01*
X15543681Y-14762128D01*
X15553205Y-14752605D01*
X15619871Y-14800224D02*
X15629395Y-14790700D01*
X15648443Y-14781176D01*
X15696062Y-14781176D01*
X15715109Y-14790700D01*
X15724633Y-14800224D01*
X15734157Y-14819271D01*
X15734157Y-14838319D01*
X15724633Y-14866890D01*
X15610348Y-14981176D01*
X15734157Y-14981176D01*
X15905586Y-14781176D02*
X15867490Y-14781176D01*
X15848443Y-14790700D01*
X15838919Y-14800224D01*
X15819871Y-14828795D01*
X15810348Y-14866890D01*
X15810348Y-14943081D01*
X15819871Y-14962128D01*
X15829395Y-14971652D01*
X15848443Y-14981176D01*
X15886538Y-14981176D01*
X15905586Y-14971652D01*
X15915109Y-14962128D01*
X15924633Y-14943081D01*
X15924633Y-14895462D01*
X15915109Y-14876414D01*
X15905586Y-14866890D01*
X15886538Y-14857367D01*
X15848443Y-14857367D01*
X15829395Y-14866890D01*
X15819871Y-14876414D01*
X15810348Y-14895462D01*
X16162728Y-14981176D02*
X16162728Y-14781176D01*
X16248443Y-14981176D02*
X16248443Y-14876414D01*
X16238919Y-14857367D01*
X16219871Y-14847843D01*
X16191300Y-14847843D01*
X16172252Y-14857367D01*
X16162728Y-14866890D01*
X16372252Y-14981176D02*
X16353205Y-14971652D01*
X16343681Y-14962128D01*
X16334157Y-14943081D01*
X16334157Y-14885938D01*
X16343681Y-14866890D01*
X16353205Y-14857367D01*
X16372252Y-14847843D01*
X16400824Y-14847843D01*
X16419871Y-14857367D01*
X16429395Y-14866890D01*
X16438919Y-14885938D01*
X16438919Y-14943081D01*
X16429395Y-14962128D01*
X16419871Y-14971652D01*
X16400824Y-14981176D01*
X16372252Y-14981176D01*
X16553205Y-14981176D02*
X16534157Y-14971652D01*
X16524633Y-14952605D01*
X16524633Y-14781176D01*
X16705586Y-14971652D02*
X16686538Y-14981176D01*
X16648443Y-14981176D01*
X16629395Y-14971652D01*
X16619871Y-14952605D01*
X16619871Y-14876414D01*
X16629395Y-14857367D01*
X16648443Y-14847843D01*
X16686538Y-14847843D01*
X16705586Y-14857367D01*
X16715109Y-14876414D01*
X16715109Y-14895462D01*
X16619871Y-14914509D01*
X16791300Y-14971652D02*
X16810348Y-14981176D01*
X16848443Y-14981176D01*
X16867490Y-14971652D01*
X16877014Y-14952605D01*
X16877014Y-14943081D01*
X16867490Y-14924033D01*
X16848443Y-14914509D01*
X16819871Y-14914509D01*
X16800824Y-14904986D01*
X16791300Y-14885938D01*
X16791300Y-14876414D01*
X16800824Y-14857367D01*
X16819871Y-14847843D01*
X16848443Y-14847843D01*
X16867490Y-14857367D01*
X16943681Y-15057367D02*
X16953205Y-15047843D01*
X16972252Y-15019271D01*
X16981776Y-15000224D01*
X16991300Y-14971652D01*
X17000824Y-14924033D01*
X17000824Y-14885938D01*
X16991300Y-14838319D01*
X16981776Y-14809748D01*
X16972252Y-14790700D01*
X16953205Y-14762128D01*
X16943681Y-14752605D01*
D20*
X11879700Y-15103900D02*
X11981300Y-15205500D01*
X11981300Y-15103900D02*
X11879700Y-15205500D01*
X11930500Y-15205500D02*
X11981300Y-15154700D01*
X11930500Y-15103900D01*
X11879700Y-15154700D01*
X11930500Y-15205500D01*
D11*
X12343681Y-15245176D02*
X12229395Y-15245176D01*
X12286538Y-15245176D02*
X12286538Y-15045176D01*
X12267490Y-15073748D01*
X12248443Y-15092795D01*
X12229395Y-15102319D01*
X12429395Y-15226128D02*
X12438919Y-15235652D01*
X12429395Y-15245176D01*
X12419871Y-15235652D01*
X12429395Y-15226128D01*
X12429395Y-15245176D01*
X12562728Y-15045176D02*
X12581776Y-15045176D01*
X12600824Y-15054700D01*
X12610348Y-15064224D01*
X12619871Y-15083271D01*
X12629395Y-15121367D01*
X12629395Y-15168986D01*
X12619871Y-15207081D01*
X12610348Y-15226128D01*
X12600824Y-15235652D01*
X12581776Y-15245176D01*
X12562728Y-15245176D01*
X12543681Y-15235652D01*
X12534157Y-15226128D01*
X12524633Y-15207081D01*
X12515109Y-15168986D01*
X12515109Y-15121367D01*
X12524633Y-15083271D01*
X12534157Y-15064224D01*
X12543681Y-15054700D01*
X12562728Y-15045176D01*
X12819871Y-15245176D02*
X12705586Y-15245176D01*
X12762728Y-15245176D02*
X12762728Y-15045176D01*
X12743681Y-15073748D01*
X12724633Y-15092795D01*
X12705586Y-15102319D01*
X12991300Y-15045176D02*
X12953205Y-15045176D01*
X12934157Y-15054700D01*
X12924633Y-15064224D01*
X12905586Y-15092795D01*
X12896062Y-15130890D01*
X12896062Y-15207081D01*
X12905586Y-15226128D01*
X12915109Y-15235652D01*
X12934157Y-15245176D01*
X12972252Y-15245176D01*
X12991300Y-15235652D01*
X13000824Y-15226128D01*
X13010348Y-15207081D01*
X13010348Y-15159462D01*
X13000824Y-15140414D01*
X12991300Y-15130890D01*
X12972252Y-15121367D01*
X12934157Y-15121367D01*
X12915109Y-15130890D01*
X12905586Y-15140414D01*
X12896062Y-15159462D01*
X13096062Y-15245176D02*
X13096062Y-15111843D01*
X13096062Y-15130890D02*
X13105586Y-15121367D01*
X13124633Y-15111843D01*
X13153205Y-15111843D01*
X13172252Y-15121367D01*
X13181776Y-15140414D01*
X13181776Y-15245176D01*
X13181776Y-15140414D02*
X13191300Y-15121367D01*
X13210348Y-15111843D01*
X13238919Y-15111843D01*
X13257967Y-15121367D01*
X13267490Y-15140414D01*
X13267490Y-15245176D01*
X13362728Y-15245176D02*
X13362728Y-15111843D01*
X13362728Y-15130890D02*
X13372252Y-15121367D01*
X13391300Y-15111843D01*
X13419871Y-15111843D01*
X13438919Y-15121367D01*
X13448443Y-15140414D01*
X13448443Y-15245176D01*
X13448443Y-15140414D02*
X13457967Y-15121367D01*
X13477014Y-15111843D01*
X13505586Y-15111843D01*
X13524633Y-15121367D01*
X13534157Y-15140414D01*
X13534157Y-15245176D01*
X13924633Y-15035652D02*
X13753205Y-15292795D01*
X14181776Y-15045176D02*
X14200824Y-15045176D01*
X14219871Y-15054700D01*
X14229395Y-15064224D01*
X14238919Y-15083271D01*
X14248443Y-15121367D01*
X14248443Y-15168986D01*
X14238919Y-15207081D01*
X14229395Y-15226128D01*
X14219871Y-15235652D01*
X14200824Y-15245176D01*
X14181776Y-15245176D01*
X14162728Y-15235652D01*
X14153205Y-15226128D01*
X14143681Y-15207081D01*
X14134157Y-15168986D01*
X14134157Y-15121367D01*
X14143681Y-15083271D01*
X14153205Y-15064224D01*
X14162728Y-15054700D01*
X14181776Y-15045176D01*
X14334157Y-15226128D02*
X14343681Y-15235652D01*
X14334157Y-15245176D01*
X14324633Y-15235652D01*
X14334157Y-15226128D01*
X14334157Y-15245176D01*
X14467490Y-15045176D02*
X14486538Y-15045176D01*
X14505586Y-15054700D01*
X14515109Y-15064224D01*
X14524633Y-15083271D01*
X14534157Y-15121367D01*
X14534157Y-15168986D01*
X14524633Y-15207081D01*
X14515109Y-15226128D01*
X14505586Y-15235652D01*
X14486538Y-15245176D01*
X14467490Y-15245176D01*
X14448443Y-15235652D01*
X14438919Y-15226128D01*
X14429395Y-15207081D01*
X14419871Y-15168986D01*
X14419871Y-15121367D01*
X14429395Y-15083271D01*
X14438919Y-15064224D01*
X14448443Y-15054700D01*
X14467490Y-15045176D01*
X14705586Y-15111843D02*
X14705586Y-15245176D01*
X14657967Y-15035652D02*
X14610348Y-15178509D01*
X14734157Y-15178509D01*
X14848443Y-15045176D02*
X14867490Y-15045176D01*
X14886538Y-15054700D01*
X14896062Y-15064224D01*
X14905586Y-15083271D01*
X14915109Y-15121367D01*
X14915109Y-15168986D01*
X14905586Y-15207081D01*
X14896062Y-15226128D01*
X14886538Y-15235652D01*
X14867490Y-15245176D01*
X14848443Y-15245176D01*
X14829395Y-15235652D01*
X14819871Y-15226128D01*
X14810348Y-15207081D01*
X14800824Y-15168986D01*
X14800824Y-15121367D01*
X14810348Y-15083271D01*
X14819871Y-15064224D01*
X14829395Y-15054700D01*
X14848443Y-15045176D01*
X15038919Y-15045176D02*
X15057967Y-15045176D01*
X15077014Y-15054700D01*
X15086538Y-15064224D01*
X15096062Y-15083271D01*
X15105586Y-15121367D01*
X15105586Y-15168986D01*
X15096062Y-15207081D01*
X15086538Y-15226128D01*
X15077014Y-15235652D01*
X15057967Y-15245176D01*
X15038919Y-15245176D01*
X15019871Y-15235652D01*
X15010348Y-15226128D01*
X15000824Y-15207081D01*
X14991300Y-15168986D01*
X14991300Y-15121367D01*
X15000824Y-15083271D01*
X15010348Y-15064224D01*
X15019871Y-15054700D01*
X15038919Y-15045176D01*
X15181776Y-15045176D02*
X15181776Y-15083271D01*
X15257967Y-15045176D02*
X15257967Y-15083271D01*
X15553205Y-15321367D02*
X15543681Y-15311843D01*
X15524633Y-15283271D01*
X15515109Y-15264224D01*
X15505586Y-15235652D01*
X15496062Y-15188033D01*
X15496062Y-15149938D01*
X15505586Y-15102319D01*
X15515109Y-15073748D01*
X15524633Y-15054700D01*
X15543681Y-15026128D01*
X15553205Y-15016605D01*
X15724633Y-15045176D02*
X15629395Y-15045176D01*
X15619871Y-15140414D01*
X15629395Y-15130890D01*
X15648443Y-15121367D01*
X15696062Y-15121367D01*
X15715109Y-15130890D01*
X15724633Y-15140414D01*
X15734157Y-15159462D01*
X15734157Y-15207081D01*
X15724633Y-15226128D01*
X15715109Y-15235652D01*
X15696062Y-15245176D01*
X15648443Y-15245176D01*
X15629395Y-15235652D01*
X15619871Y-15226128D01*
X15857967Y-15045176D02*
X15877014Y-15045176D01*
X15896062Y-15054700D01*
X15905586Y-15064224D01*
X15915109Y-15083271D01*
X15924633Y-15121367D01*
X15924633Y-15168986D01*
X15915109Y-15207081D01*
X15905586Y-15226128D01*
X15896062Y-15235652D01*
X15877014Y-15245176D01*
X15857967Y-15245176D01*
X15838919Y-15235652D01*
X15829395Y-15226128D01*
X15819871Y-15207081D01*
X15810348Y-15168986D01*
X15810348Y-15121367D01*
X15819871Y-15083271D01*
X15829395Y-15064224D01*
X15838919Y-15054700D01*
X15857967Y-15045176D01*
X16162728Y-15245176D02*
X16162728Y-15045176D01*
X16248443Y-15245176D02*
X16248443Y-15140414D01*
X16238919Y-15121367D01*
X16219871Y-15111843D01*
X16191300Y-15111843D01*
X16172252Y-15121367D01*
X16162728Y-15130890D01*
X16372252Y-15245176D02*
X16353205Y-15235652D01*
X16343681Y-15226128D01*
X16334157Y-15207081D01*
X16334157Y-15149938D01*
X16343681Y-15130890D01*
X16353205Y-15121367D01*
X16372252Y-15111843D01*
X16400824Y-15111843D01*
X16419871Y-15121367D01*
X16429395Y-15130890D01*
X16438919Y-15149938D01*
X16438919Y-15207081D01*
X16429395Y-15226128D01*
X16419871Y-15235652D01*
X16400824Y-15245176D01*
X16372252Y-15245176D01*
X16553205Y-15245176D02*
X16534157Y-15235652D01*
X16524633Y-15216605D01*
X16524633Y-15045176D01*
X16705586Y-15235652D02*
X16686538Y-15245176D01*
X16648443Y-15245176D01*
X16629395Y-15235652D01*
X16619871Y-15216605D01*
X16619871Y-15140414D01*
X16629395Y-15121367D01*
X16648443Y-15111843D01*
X16686538Y-15111843D01*
X16705586Y-15121367D01*
X16715109Y-15140414D01*
X16715109Y-15159462D01*
X16619871Y-15178509D01*
X16791300Y-15235652D02*
X16810348Y-15245176D01*
X16848443Y-15245176D01*
X16867490Y-15235652D01*
X16877014Y-15216605D01*
X16877014Y-15207081D01*
X16867490Y-15188033D01*
X16848443Y-15178509D01*
X16819871Y-15178509D01*
X16800824Y-15168986D01*
X16791300Y-15149938D01*
X16791300Y-15140414D01*
X16800824Y-15121367D01*
X16819871Y-15111843D01*
X16848443Y-15111843D01*
X16867490Y-15121367D01*
X16943681Y-15321367D02*
X16953205Y-15311843D01*
X16972252Y-15283271D01*
X16981776Y-15264224D01*
X16991300Y-15235652D01*
X17000824Y-15188033D01*
X17000824Y-15149938D01*
X16991300Y-15102319D01*
X16981776Y-15073748D01*
X16972252Y-15054700D01*
X16953205Y-15026128D01*
X16943681Y-15016605D01*
D21*
X11916300Y-15353700D02*
X11916300Y-15483700D01*
X11851300Y-15418700D02*
X11981300Y-15418700D01*
X11981300Y-15418700D02*
G75*
G03*
X11981300Y-15418700I-65000J0D01*
G01*
D11*
X12343681Y-15509176D02*
X12229395Y-15509176D01*
X12286538Y-15509176D02*
X12286538Y-15309176D01*
X12267490Y-15337748D01*
X12248443Y-15356795D01*
X12229395Y-15366319D01*
X12429395Y-15490128D02*
X12438919Y-15499652D01*
X12429395Y-15509176D01*
X12419871Y-15499652D01*
X12429395Y-15490128D01*
X12429395Y-15509176D01*
X12505586Y-15309176D02*
X12629395Y-15309176D01*
X12562728Y-15385367D01*
X12591300Y-15385367D01*
X12610348Y-15394890D01*
X12619871Y-15404414D01*
X12629395Y-15423462D01*
X12629395Y-15471081D01*
X12619871Y-15490128D01*
X12610348Y-15499652D01*
X12591300Y-15509176D01*
X12534157Y-15509176D01*
X12515109Y-15499652D01*
X12505586Y-15490128D01*
X12753205Y-15309176D02*
X12772252Y-15309176D01*
X12791300Y-15318700D01*
X12800824Y-15328224D01*
X12810348Y-15347271D01*
X12819871Y-15385367D01*
X12819871Y-15432986D01*
X12810348Y-15471081D01*
X12800824Y-15490128D01*
X12791300Y-15499652D01*
X12772252Y-15509176D01*
X12753205Y-15509176D01*
X12734157Y-15499652D01*
X12724633Y-15490128D01*
X12715109Y-15471081D01*
X12705586Y-15432986D01*
X12705586Y-15385367D01*
X12715109Y-15347271D01*
X12724633Y-15328224D01*
X12734157Y-15318700D01*
X12753205Y-15309176D01*
X12943681Y-15309176D02*
X12962728Y-15309176D01*
X12981776Y-15318700D01*
X12991300Y-15328224D01*
X13000824Y-15347271D01*
X13010348Y-15385367D01*
X13010348Y-15432986D01*
X13000824Y-15471081D01*
X12991300Y-15490128D01*
X12981776Y-15499652D01*
X12962728Y-15509176D01*
X12943681Y-15509176D01*
X12924633Y-15499652D01*
X12915109Y-15490128D01*
X12905586Y-15471081D01*
X12896062Y-15432986D01*
X12896062Y-15385367D01*
X12905586Y-15347271D01*
X12915109Y-15328224D01*
X12924633Y-15318700D01*
X12943681Y-15309176D01*
X13096062Y-15509176D02*
X13096062Y-15375843D01*
X13096062Y-15394890D02*
X13105586Y-15385367D01*
X13124633Y-15375843D01*
X13153205Y-15375843D01*
X13172252Y-15385367D01*
X13181776Y-15404414D01*
X13181776Y-15509176D01*
X13181776Y-15404414D02*
X13191300Y-15385367D01*
X13210348Y-15375843D01*
X13238919Y-15375843D01*
X13257967Y-15385367D01*
X13267490Y-15404414D01*
X13267490Y-15509176D01*
X13362728Y-15509176D02*
X13362728Y-15375843D01*
X13362728Y-15394890D02*
X13372252Y-15385367D01*
X13391300Y-15375843D01*
X13419871Y-15375843D01*
X13438919Y-15385367D01*
X13448443Y-15404414D01*
X13448443Y-15509176D01*
X13448443Y-15404414D02*
X13457967Y-15385367D01*
X13477014Y-15375843D01*
X13505586Y-15375843D01*
X13524633Y-15385367D01*
X13534157Y-15404414D01*
X13534157Y-15509176D01*
X13924633Y-15299652D02*
X13753205Y-15556795D01*
X14181776Y-15309176D02*
X14200824Y-15309176D01*
X14219871Y-15318700D01*
X14229395Y-15328224D01*
X14238919Y-15347271D01*
X14248443Y-15385367D01*
X14248443Y-15432986D01*
X14238919Y-15471081D01*
X14229395Y-15490128D01*
X14219871Y-15499652D01*
X14200824Y-15509176D01*
X14181776Y-15509176D01*
X14162728Y-15499652D01*
X14153205Y-15490128D01*
X14143681Y-15471081D01*
X14134157Y-15432986D01*
X14134157Y-15385367D01*
X14143681Y-15347271D01*
X14153205Y-15328224D01*
X14162728Y-15318700D01*
X14181776Y-15309176D01*
X14334157Y-15490128D02*
X14343681Y-15499652D01*
X14334157Y-15509176D01*
X14324633Y-15499652D01*
X14334157Y-15490128D01*
X14334157Y-15509176D01*
X14467490Y-15309176D02*
X14486538Y-15309176D01*
X14505586Y-15318700D01*
X14515109Y-15328224D01*
X14524633Y-15347271D01*
X14534157Y-15385367D01*
X14534157Y-15432986D01*
X14524633Y-15471081D01*
X14515109Y-15490128D01*
X14505586Y-15499652D01*
X14486538Y-15509176D01*
X14467490Y-15509176D01*
X14448443Y-15499652D01*
X14438919Y-15490128D01*
X14429395Y-15471081D01*
X14419871Y-15432986D01*
X14419871Y-15385367D01*
X14429395Y-15347271D01*
X14438919Y-15328224D01*
X14448443Y-15318700D01*
X14467490Y-15309176D01*
X14715109Y-15309176D02*
X14619871Y-15309176D01*
X14610348Y-15404414D01*
X14619871Y-15394890D01*
X14638919Y-15385367D01*
X14686538Y-15385367D01*
X14705586Y-15394890D01*
X14715109Y-15404414D01*
X14724633Y-15423462D01*
X14724633Y-15471081D01*
X14715109Y-15490128D01*
X14705586Y-15499652D01*
X14686538Y-15509176D01*
X14638919Y-15509176D01*
X14619871Y-15499652D01*
X14610348Y-15490128D01*
X14915109Y-15509176D02*
X14800824Y-15509176D01*
X14857967Y-15509176D02*
X14857967Y-15309176D01*
X14838919Y-15337748D01*
X14819871Y-15356795D01*
X14800824Y-15366319D01*
X14991300Y-15328224D02*
X15000824Y-15318700D01*
X15019871Y-15309176D01*
X15067490Y-15309176D01*
X15086538Y-15318700D01*
X15096062Y-15328224D01*
X15105586Y-15347271D01*
X15105586Y-15366319D01*
X15096062Y-15394890D01*
X14981776Y-15509176D01*
X15105586Y-15509176D01*
X15181776Y-15309176D02*
X15181776Y-15347271D01*
X15257967Y-15309176D02*
X15257967Y-15347271D01*
X15553205Y-15585367D02*
X15543681Y-15575843D01*
X15524633Y-15547271D01*
X15515109Y-15528224D01*
X15505586Y-15499652D01*
X15496062Y-15452033D01*
X15496062Y-15413938D01*
X15505586Y-15366319D01*
X15515109Y-15337748D01*
X15524633Y-15318700D01*
X15543681Y-15290128D01*
X15553205Y-15280605D01*
X15715109Y-15309176D02*
X15677014Y-15309176D01*
X15657967Y-15318700D01*
X15648443Y-15328224D01*
X15629395Y-15356795D01*
X15619871Y-15394890D01*
X15619871Y-15471081D01*
X15629395Y-15490128D01*
X15638919Y-15499652D01*
X15657967Y-15509176D01*
X15696062Y-15509176D01*
X15715109Y-15499652D01*
X15724633Y-15490128D01*
X15734157Y-15471081D01*
X15734157Y-15423462D01*
X15724633Y-15404414D01*
X15715109Y-15394890D01*
X15696062Y-15385367D01*
X15657967Y-15385367D01*
X15638919Y-15394890D01*
X15629395Y-15404414D01*
X15619871Y-15423462D01*
X15972252Y-15509176D02*
X15972252Y-15309176D01*
X16057967Y-15509176D02*
X16057967Y-15404414D01*
X16048443Y-15385367D01*
X16029395Y-15375843D01*
X16000824Y-15375843D01*
X15981776Y-15385367D01*
X15972252Y-15394890D01*
X16181776Y-15509176D02*
X16162728Y-15499652D01*
X16153205Y-15490128D01*
X16143681Y-15471081D01*
X16143681Y-15413938D01*
X16153205Y-15394890D01*
X16162728Y-15385367D01*
X16181776Y-15375843D01*
X16210348Y-15375843D01*
X16229395Y-15385367D01*
X16238919Y-15394890D01*
X16248443Y-15413938D01*
X16248443Y-15471081D01*
X16238919Y-15490128D01*
X16229395Y-15499652D01*
X16210348Y-15509176D01*
X16181776Y-15509176D01*
X16362728Y-15509176D02*
X16343681Y-15499652D01*
X16334157Y-15480605D01*
X16334157Y-15309176D01*
X16515109Y-15499652D02*
X16496062Y-15509176D01*
X16457967Y-15509176D01*
X16438919Y-15499652D01*
X16429395Y-15480605D01*
X16429395Y-15404414D01*
X16438919Y-15385367D01*
X16457967Y-15375843D01*
X16496062Y-15375843D01*
X16515109Y-15385367D01*
X16524633Y-15404414D01*
X16524633Y-15423462D01*
X16429395Y-15442509D01*
X16600824Y-15499652D02*
X16619871Y-15509176D01*
X16657967Y-15509176D01*
X16677014Y-15499652D01*
X16686538Y-15480605D01*
X16686538Y-15471081D01*
X16677014Y-15452033D01*
X16657967Y-15442509D01*
X16629395Y-15442509D01*
X16610348Y-15432986D01*
X16600824Y-15413938D01*
X16600824Y-15404414D01*
X16610348Y-15385367D01*
X16629395Y-15375843D01*
X16657967Y-15375843D01*
X16677014Y-15385367D01*
X16753205Y-15585367D02*
X16762728Y-15575843D01*
X16781776Y-15547271D01*
X16791300Y-15528224D01*
X16800824Y-15499652D01*
X16810348Y-15452033D01*
X16810348Y-15413938D01*
X16800824Y-15366319D01*
X16791300Y-15337748D01*
X16781776Y-15318700D01*
X16762728Y-15290128D01*
X16753205Y-15280605D01*
X11952011Y-15753411D02*
X11952011Y-15611989D01*
X11810589Y-15611989D01*
X11810589Y-15753411D01*
X11952011Y-15753411D01*
X11981300Y-15682700D02*
G75*
G03*
X11981300Y-15682700I-100000J0D01*
G01*
X12219871Y-15573176D02*
X12343681Y-15573176D01*
X12277014Y-15649367D01*
X12305586Y-15649367D01*
X12324633Y-15658890D01*
X12334157Y-15668414D01*
X12343681Y-15687462D01*
X12343681Y-15735081D01*
X12334157Y-15754128D01*
X12324633Y-15763652D01*
X12305586Y-15773176D01*
X12248443Y-15773176D01*
X12229395Y-15763652D01*
X12219871Y-15754128D01*
X12429395Y-15754128D02*
X12438919Y-15763652D01*
X12429395Y-15773176D01*
X12419871Y-15763652D01*
X12429395Y-15754128D01*
X12429395Y-15773176D01*
X12629395Y-15773176D02*
X12515109Y-15773176D01*
X12572252Y-15773176D02*
X12572252Y-15573176D01*
X12553205Y-15601748D01*
X12534157Y-15620795D01*
X12515109Y-15630319D01*
X12753205Y-15573176D02*
X12772252Y-15573176D01*
X12791300Y-15582700D01*
X12800824Y-15592224D01*
X12810348Y-15611271D01*
X12819871Y-15649367D01*
X12819871Y-15696986D01*
X12810348Y-15735081D01*
X12800824Y-15754128D01*
X12791300Y-15763652D01*
X12772252Y-15773176D01*
X12753205Y-15773176D01*
X12734157Y-15763652D01*
X12724633Y-15754128D01*
X12715109Y-15735081D01*
X12705586Y-15696986D01*
X12705586Y-15649367D01*
X12715109Y-15611271D01*
X12724633Y-15592224D01*
X12734157Y-15582700D01*
X12753205Y-15573176D01*
X12943681Y-15573176D02*
X12962728Y-15573176D01*
X12981776Y-15582700D01*
X12991300Y-15592224D01*
X13000824Y-15611271D01*
X13010348Y-15649367D01*
X13010348Y-15696986D01*
X13000824Y-15735081D01*
X12991300Y-15754128D01*
X12981776Y-15763652D01*
X12962728Y-15773176D01*
X12943681Y-15773176D01*
X12924633Y-15763652D01*
X12915109Y-15754128D01*
X12905586Y-15735081D01*
X12896062Y-15696986D01*
X12896062Y-15649367D01*
X12905586Y-15611271D01*
X12915109Y-15592224D01*
X12924633Y-15582700D01*
X12943681Y-15573176D01*
X13096062Y-15773176D02*
X13096062Y-15639843D01*
X13096062Y-15658890D02*
X13105586Y-15649367D01*
X13124633Y-15639843D01*
X13153205Y-15639843D01*
X13172252Y-15649367D01*
X13181776Y-15668414D01*
X13181776Y-15773176D01*
X13181776Y-15668414D02*
X13191300Y-15649367D01*
X13210348Y-15639843D01*
X13238919Y-15639843D01*
X13257967Y-15649367D01*
X13267490Y-15668414D01*
X13267490Y-15773176D01*
X13362728Y-15773176D02*
X13362728Y-15639843D01*
X13362728Y-15658890D02*
X13372252Y-15649367D01*
X13391300Y-15639843D01*
X13419871Y-15639843D01*
X13438919Y-15649367D01*
X13448443Y-15668414D01*
X13448443Y-15773176D01*
X13448443Y-15668414D02*
X13457967Y-15649367D01*
X13477014Y-15639843D01*
X13505586Y-15639843D01*
X13524633Y-15649367D01*
X13534157Y-15668414D01*
X13534157Y-15773176D01*
X13924633Y-15563652D02*
X13753205Y-15820795D01*
X14181776Y-15573176D02*
X14200824Y-15573176D01*
X14219871Y-15582700D01*
X14229395Y-15592224D01*
X14238919Y-15611271D01*
X14248443Y-15649367D01*
X14248443Y-15696986D01*
X14238919Y-15735081D01*
X14229395Y-15754128D01*
X14219871Y-15763652D01*
X14200824Y-15773176D01*
X14181776Y-15773176D01*
X14162728Y-15763652D01*
X14153205Y-15754128D01*
X14143681Y-15735081D01*
X14134157Y-15696986D01*
X14134157Y-15649367D01*
X14143681Y-15611271D01*
X14153205Y-15592224D01*
X14162728Y-15582700D01*
X14181776Y-15573176D01*
X14334157Y-15754128D02*
X14343681Y-15763652D01*
X14334157Y-15773176D01*
X14324633Y-15763652D01*
X14334157Y-15754128D01*
X14334157Y-15773176D01*
X14534157Y-15773176D02*
X14419871Y-15773176D01*
X14477014Y-15773176D02*
X14477014Y-15573176D01*
X14457967Y-15601748D01*
X14438919Y-15620795D01*
X14419871Y-15630319D01*
X14610348Y-15592224D02*
X14619871Y-15582700D01*
X14638919Y-15573176D01*
X14686538Y-15573176D01*
X14705586Y-15582700D01*
X14715109Y-15592224D01*
X14724633Y-15611271D01*
X14724633Y-15630319D01*
X14715109Y-15658890D01*
X14600824Y-15773176D01*
X14724633Y-15773176D01*
X14800824Y-15592224D02*
X14810348Y-15582700D01*
X14829395Y-15573176D01*
X14877014Y-15573176D01*
X14896062Y-15582700D01*
X14905586Y-15592224D01*
X14915109Y-15611271D01*
X14915109Y-15630319D01*
X14905586Y-15658890D01*
X14791300Y-15773176D01*
X14915109Y-15773176D01*
X15038919Y-15573176D02*
X15057967Y-15573176D01*
X15077014Y-15582700D01*
X15086538Y-15592224D01*
X15096062Y-15611271D01*
X15105586Y-15649367D01*
X15105586Y-15696986D01*
X15096062Y-15735081D01*
X15086538Y-15754128D01*
X15077014Y-15763652D01*
X15057967Y-15773176D01*
X15038919Y-15773176D01*
X15019871Y-15763652D01*
X15010348Y-15754128D01*
X15000824Y-15735081D01*
X14991300Y-15696986D01*
X14991300Y-15649367D01*
X15000824Y-15611271D01*
X15010348Y-15592224D01*
X15019871Y-15582700D01*
X15038919Y-15573176D01*
X15181776Y-15573176D02*
X15181776Y-15611271D01*
X15257967Y-15573176D02*
X15257967Y-15611271D01*
X15553205Y-15849367D02*
X15543681Y-15839843D01*
X15524633Y-15811271D01*
X15515109Y-15792224D01*
X15505586Y-15763652D01*
X15496062Y-15716033D01*
X15496062Y-15677938D01*
X15505586Y-15630319D01*
X15515109Y-15601748D01*
X15524633Y-15582700D01*
X15543681Y-15554128D01*
X15553205Y-15544605D01*
X15619871Y-15592224D02*
X15629395Y-15582700D01*
X15648443Y-15573176D01*
X15696062Y-15573176D01*
X15715109Y-15582700D01*
X15724633Y-15592224D01*
X15734157Y-15611271D01*
X15734157Y-15630319D01*
X15724633Y-15658890D01*
X15610348Y-15773176D01*
X15734157Y-15773176D01*
X15972252Y-15773176D02*
X15972252Y-15573176D01*
X16057967Y-15773176D02*
X16057967Y-15668414D01*
X16048443Y-15649367D01*
X16029395Y-15639843D01*
X16000824Y-15639843D01*
X15981776Y-15649367D01*
X15972252Y-15658890D01*
X16181776Y-15773176D02*
X16162728Y-15763652D01*
X16153205Y-15754128D01*
X16143681Y-15735081D01*
X16143681Y-15677938D01*
X16153205Y-15658890D01*
X16162728Y-15649367D01*
X16181776Y-15639843D01*
X16210348Y-15639843D01*
X16229395Y-15649367D01*
X16238919Y-15658890D01*
X16248443Y-15677938D01*
X16248443Y-15735081D01*
X16238919Y-15754128D01*
X16229395Y-15763652D01*
X16210348Y-15773176D01*
X16181776Y-15773176D01*
X16362728Y-15773176D02*
X16343681Y-15763652D01*
X16334157Y-15744605D01*
X16334157Y-15573176D01*
X16515109Y-15763652D02*
X16496062Y-15773176D01*
X16457967Y-15773176D01*
X16438919Y-15763652D01*
X16429395Y-15744605D01*
X16429395Y-15668414D01*
X16438919Y-15649367D01*
X16457967Y-15639843D01*
X16496062Y-15639843D01*
X16515109Y-15649367D01*
X16524633Y-15668414D01*
X16524633Y-15687462D01*
X16429395Y-15706509D01*
X16600824Y-15763652D02*
X16619871Y-15773176D01*
X16657967Y-15773176D01*
X16677014Y-15763652D01*
X16686538Y-15744605D01*
X16686538Y-15735081D01*
X16677014Y-15716033D01*
X16657967Y-15706509D01*
X16629395Y-15706509D01*
X16610348Y-15696986D01*
X16600824Y-15677938D01*
X16600824Y-15668414D01*
X16610348Y-15649367D01*
X16629395Y-15639843D01*
X16657967Y-15639843D01*
X16677014Y-15649367D01*
X16753205Y-15849367D02*
X16762728Y-15839843D01*
X16781776Y-15811271D01*
X16791300Y-15792224D01*
X16800824Y-15763652D01*
X16810348Y-15716033D01*
X16810348Y-15677938D01*
X16800824Y-15630319D01*
X16791300Y-15601748D01*
X16781776Y-15582700D01*
X16762728Y-15554128D01*
X16753205Y-15544605D01*
M02*
