M48
; DRILL file {KiCad (5.99.0-13200-g7b4d5b2312)} date Tue Dec 21 00:33:45 2021
; FORMAT={-:-/ absolute / inch / decimal}
; #@! TF.CreationDate,2021-12-21T00:33:45+00:00
; #@! TF.GenerationSoftware,Kicad,Pcbnew,(5.99.0-13200-g7b4d5b2312)
; #@! TF.FileFunction,Plated,1,2,PTH
FMAT,2
INCH
; #@! TA.AperFunction,Plated,PTH,ViaDrill
T1C0.0157
; #@! TA.AperFunction,Plated,PTH,ComponentDrill
T2C0.0287
; #@! TA.AperFunction,Plated,PTH,ComponentDrill
T3C0.0315
; #@! TA.AperFunction,Plated,PTH,ComponentDrill
T4C0.0354
; #@! TA.AperFunction,Plated,PTH,ComponentDrill
T5C0.0394
; #@! TA.AperFunction,Plated,PTH,ComponentDrill
T6C0.0400
; #@! TA.AperFunction,Plated,PTH,ComponentDrill
T7C0.0512
; #@! TA.AperFunction,Plated,PTH,ComponentDrill
T8C0.1220
%
G90
G05
T1
X4.885Y-2.648
X4.9Y-4.261
X4.9063Y-2.6868
X4.9424Y-2.6916
X4.975Y-2.693
X5.016Y-2.711
X5.07Y-2.712
X5.176Y-4.232
X5.199Y-2.72
X5.291Y-3.513
X5.319Y-3.486
X5.412Y-3.091
X5.442Y-3.058
X5.491Y-4.345
X5.509Y-3.0664
X5.542Y-3.034
X5.5463Y-4.374
X5.552Y-4.313
X5.553Y-3.951
X5.577Y-3.747
X5.613Y-3.801
X5.6133Y-3.9993
X5.62Y-3.254
X5.642Y-3.219
X5.675Y-3.939
X5.686Y-3.142
X5.711Y-3.117
X5.843Y-3.167
X5.87Y-4.317
X5.873Y-3.142
X5.873Y-4.43
X5.925Y-4.374
X5.942Y-3.19
X5.967Y-4.418
X5.97Y-3.166
X5.98Y-4.357
X6.072Y-4.333
X6.095Y-4.361
X6.173Y-4.3576
X6.197Y-4.386
X6.214Y-2.99
X6.2546Y-3.0094
X6.27Y-4.3822
X6.299Y-4.41
X6.328Y-3.255
X6.351Y-3.22
X6.373Y-4.4068
X6.402Y-4.436
X6.461Y-2.6531
X6.472Y-4.4313
X6.501Y-4.461
X6.57Y-2.6531
X6.573Y-4.4559
X6.594Y-4.331
X6.602Y-4.484
X6.608Y-2.643
X6.636Y-4.329
X6.65Y-3.909
X6.671Y-4.4805
X6.695Y-4.331
X6.699Y-4.508
X6.725Y-4.352
X6.771Y-4.5051
X6.798Y-4.331
X6.801Y-2.877
X6.802Y-4.532
X6.81Y-4.367
X6.8516Y-2.8736
X6.903Y-4.331
X6.906Y-3.672
X6.91Y-4.367
X6.9313Y-3.645
X6.99Y-3.73
X6.999Y-4.329
X7.004Y-4.367
X7.021Y-3.7
X7.086Y-3.809
X7.094Y-4.329
X7.1Y-4.368
X7.11Y-3.876
X7.1253Y-3.785
X7.15Y-3.8873
X7.197Y-4.332
X7.203Y-4.369
X7.297Y-4.331
X7.305Y-4.369
X7.46Y-4.554
X7.494Y-4.245
X7.494Y-4.553
X7.5186Y-4.5284
X7.5255Y-4.245
X7.5467Y-4.5038
X7.557Y-4.245
X7.5815Y-4.4792
X7.5884Y-4.245
X7.612Y-4.448
X7.6199Y-4.245
X7.6514Y-4.244
X7.6828Y-4.244
X8.079Y-4.272
X8.115Y-3.966
X8.115Y-4.051
X8.115Y-4.135
X8.115Y-4.221
X8.115Y-4.314
X8.165Y-4.016
X8.165Y-4.101
X8.165Y-4.185
X8.165Y-4.271
X8.165Y-4.364
X8.215Y-4.066
X8.215Y-4.151
X8.215Y-4.235
X8.215Y-4.321
X8.215Y-4.414
X8.225Y-4.45
X8.236Y-4.586
X8.2534Y-4.4792
X8.265Y-4.116
X8.265Y-4.201
X8.265Y-4.285
X8.278Y-4.5038
X8.286Y-4.586
X8.3035Y-4.5284
X8.315Y-4.166
X8.335Y-4.542
X8.336Y-4.586
T2
X6.5499Y-3.203
X6.5499Y-3.5156
X6.5499Y-3.9684
X6.5499Y-4.281
X6.6499Y-3.203
X6.6499Y-3.5156
X6.6499Y-3.9684
X6.6499Y-4.281
X6.7499Y-3.203
X6.7499Y-3.5156
X6.7499Y-3.9684
X6.7499Y-4.281
X6.8499Y-3.203
X6.8499Y-3.5156
X6.8499Y-3.9684
X6.8499Y-4.281
X6.9499Y-3.203
X6.9499Y-3.5156
X6.9499Y-3.9684
X6.9499Y-4.281
X7.0499Y-3.203
X7.0499Y-3.5156
X7.0499Y-3.9684
X7.0499Y-4.281
X7.1499Y-3.203
X7.1499Y-3.5156
X7.1499Y-3.9684
X7.1499Y-4.281
X7.2499Y-3.203
X7.2499Y-3.5156
X7.2499Y-3.9684
X7.2499Y-4.281
X7.3499Y-3.203
X7.3499Y-3.5156
X7.3499Y-3.9684
X7.3499Y-4.281
X7.4499Y-3.203
X7.4499Y-3.5156
X7.4499Y-3.9684
X7.4499Y-4.281
T3
X5.113Y-3.365
X5.312Y-3.695
X5.312Y-4.095
X5.412Y-3.695
X5.412Y-4.095
X5.512Y-3.695
X5.512Y-4.095
X5.513Y-3.365
X5.612Y-3.695
X5.612Y-4.095
X5.712Y-3.695
X5.712Y-4.095
X5.812Y-3.695
X5.812Y-4.095
T4
X5.1169Y-3.139
X5.2169Y-3.139
T5
X7.8912Y-3.2743
X7.8912Y-3.3593
X7.8912Y-3.4444
X7.8912Y-3.5294
X7.8912Y-3.6144
X7.8912Y-3.6995
X7.8912Y-3.7845
X7.8912Y-3.8696
X7.8912Y-3.9546
X7.8912Y-4.0396
X7.8912Y-4.1247
X7.8912Y-4.2097
X8.0601Y-3.2743
X8.0601Y-3.3593
X8.0601Y-3.4444
X8.0601Y-3.5294
X8.0601Y-3.6144
X8.0601Y-3.6995
X8.0601Y-3.7845
X8.0601Y-3.8696
X8.0601Y-3.9546
X8.0601Y-4.0396
X8.0601Y-4.1247
X8.0601Y-4.2097
T6
X4.81Y-2.79
X4.91Y-2.79
X5.01Y-2.79
X5.11Y-2.79
X5.17Y-4.69
X5.21Y-2.79
X5.27Y-4.69
X5.31Y-2.79
X5.37Y-4.69
X5.41Y-2.79
X5.47Y-4.69
X5.51Y-2.79
X5.57Y-4.69
X5.61Y-2.79
X5.67Y-4.69
X5.71Y-2.79
X5.77Y-4.69
X5.87Y-2.79
X5.87Y-4.69
X5.97Y-2.79
X6.07Y-2.79
X6.07Y-4.69
X6.17Y-2.79
X6.17Y-4.69
X6.27Y-2.79
X6.27Y-4.69
X6.37Y-2.79
X6.37Y-4.69
X6.47Y-2.79
X6.47Y-4.69
X6.57Y-2.79
X6.57Y-4.69
X6.67Y-4.69
X6.77Y-2.79
X6.77Y-4.69
X6.87Y-2.79
X6.97Y-2.79
X6.97Y-4.69
X7.07Y-2.79
X7.07Y-4.69
X7.17Y-2.79
X7.17Y-4.69
X7.27Y-2.79
X7.27Y-4.69
X7.37Y-2.79
X7.37Y-4.69
X7.47Y-2.79
X7.47Y-4.69
X7.57Y-4.69
X7.67Y-4.69
T7
X5.121Y-3.656
X5.121Y-3.756
X5.121Y-3.856
X5.121Y-3.956
X5.121Y-4.056
X5.121Y-4.156
T8
X7.9757Y-2.8207
X7.9757Y-4.6633
T0
M30
