%TF.GenerationSoftware,KiCad,Pcbnew,(6.0.0)*%
%TF.CreationDate,2022-02-01T22:46:00+00:00*%
%TF.ProjectId,AR488-Bluetooth,41523438-382d-4426-9c75-65746f6f7468,rev?*%
%TF.SameCoordinates,Original*%
%TF.FileFunction,Soldermask,Bot*%
%TF.FilePolarity,Negative*%
%FSLAX46Y46*%
G04 Gerber Fmt 4.6, Leading zero omitted, Abs format (unit mm)*
G04 Created by KiCad (PCBNEW (6.0.0)) date 2022-02-01 22:46:00*
%MOMM*%
%LPD*%
G01*
G04 APERTURE LIST*
%ADD10O,1.727200X2.032000*%
%ADD11R,1.130000X1.130000*%
%ADD12C,1.130000*%
%ADD13R,1.800000X1.800000*%
%ADD14C,1.800000*%
%ADD15C,1.270000*%
%ADD16C,1.440000*%
%ADD17O,2.000000X1.200000*%
%ADD18R,1.500000X1.500000*%
%ADD19C,1.500000*%
%ADD20C,4.650000*%
%ADD21R,1.950000X1.950000*%
%ADD22C,1.950000*%
%ADD23R,1.700000X1.700000*%
%ADD24O,1.700000X1.700000*%
G04 APERTURE END LIST*
D10*
%TO.C,P2*%
X131318000Y-119126000D03*
X133858000Y-119126000D03*
X136398000Y-119126000D03*
X138938000Y-119126000D03*
X141478000Y-119126000D03*
X144018000Y-119126000D03*
X146558000Y-119126000D03*
X149098000Y-119126000D03*
%TD*%
%TO.C,P3*%
X154178000Y-119126000D03*
X156718000Y-119126000D03*
X159258000Y-119126000D03*
X161798000Y-119126000D03*
X164338000Y-119126000D03*
X166878000Y-119126000D03*
X169418000Y-119126000D03*
X171958000Y-119126000D03*
%TD*%
%TO.C,P4*%
X177038000Y-119126000D03*
X179578000Y-119126000D03*
X182118000Y-119126000D03*
X184658000Y-119126000D03*
X187198000Y-119126000D03*
X189738000Y-119126000D03*
X192278000Y-119126000D03*
X194818000Y-119126000D03*
%TD*%
%TO.C,P5*%
X122174000Y-70866000D03*
X124714000Y-70866000D03*
X127254000Y-70866000D03*
X129794000Y-70866000D03*
X132334000Y-70866000D03*
X134874000Y-70866000D03*
X137414000Y-70866000D03*
X139954000Y-70866000D03*
X142494000Y-70866000D03*
X145034000Y-70866000D03*
%TD*%
%TO.C,P6*%
X149098000Y-70866000D03*
X151638000Y-70866000D03*
X154178000Y-70866000D03*
X156718000Y-70866000D03*
X159258000Y-70866000D03*
X161798000Y-70866000D03*
X164338000Y-70866000D03*
X166878000Y-70866000D03*
%TD*%
%TO.C,P7*%
X171958000Y-70866000D03*
X174498000Y-70866000D03*
X177038000Y-70866000D03*
X179578000Y-70866000D03*
X182118000Y-70866000D03*
X184658000Y-70866000D03*
X187198000Y-70866000D03*
X189738000Y-70866000D03*
%TD*%
D11*
%TO.C,U1*%
X167665400Y-110896800D03*
D12*
X170205400Y-110896800D03*
X172745400Y-110896800D03*
X175285400Y-110896800D03*
X177825400Y-110896800D03*
X180365400Y-110896800D03*
X182905400Y-110896800D03*
X185445400Y-110896800D03*
X187985400Y-110896800D03*
X190525400Y-110896800D03*
X190525400Y-102956800D03*
X187985400Y-102956800D03*
X185445400Y-102956800D03*
X182905400Y-102956800D03*
X180365400Y-102956800D03*
X177825400Y-102956800D03*
X175285400Y-102956800D03*
X172745400Y-102956800D03*
X170205400Y-102956800D03*
X167665400Y-102956800D03*
%TD*%
D13*
%TO.C,D2*%
X152217200Y-98018600D03*
D14*
X154757200Y-98018600D03*
%TD*%
D15*
%TO.C,SW1*%
X161899600Y-111220000D03*
X161899600Y-109220000D03*
X161899600Y-107220000D03*
%TD*%
D16*
%TO.C,RV1*%
X159885600Y-95443200D03*
X159885600Y-97983200D03*
X159885600Y-100523200D03*
%TD*%
D17*
%TO.C,U3*%
X135026400Y-92735400D03*
X135026400Y-95275400D03*
X135026400Y-97815400D03*
X135026400Y-100355400D03*
X135026400Y-102895400D03*
X135026400Y-105435400D03*
X145186400Y-105435400D03*
X145186400Y-102895400D03*
X145186400Y-100355400D03*
X145186400Y-97815400D03*
X145186400Y-95275400D03*
X145186400Y-92735400D03*
%TD*%
D18*
%TO.C,J1*%
X200462200Y-83166800D03*
D19*
X200462200Y-85326800D03*
X200462200Y-87486800D03*
X200462200Y-89646800D03*
X200462200Y-91806800D03*
X200462200Y-93966800D03*
X200462200Y-96126800D03*
X200462200Y-98286800D03*
X200462200Y-100446800D03*
X200462200Y-102606800D03*
X200462200Y-104766800D03*
X200462200Y-106926800D03*
X204752200Y-83166800D03*
X204752200Y-85326800D03*
X204752200Y-87486800D03*
X204752200Y-89646800D03*
X204752200Y-91806800D03*
X204752200Y-93966800D03*
X204752200Y-96126800D03*
X204752200Y-98286800D03*
X204752200Y-100446800D03*
X204752200Y-102606800D03*
X204752200Y-104766800D03*
X204752200Y-106926800D03*
D20*
X202607200Y-118446800D03*
X202607200Y-71646800D03*
%TD*%
D11*
%TO.C,U2*%
X167665400Y-87136800D03*
D12*
X170205400Y-87136800D03*
X172745400Y-87136800D03*
X175285400Y-87136800D03*
X177825400Y-87136800D03*
X180365400Y-87136800D03*
X182905400Y-87136800D03*
X185445400Y-87136800D03*
X187985400Y-87136800D03*
X190525400Y-87136800D03*
X190525400Y-79196800D03*
X187985400Y-79196800D03*
X185445400Y-79196800D03*
X182905400Y-79196800D03*
X180365400Y-79196800D03*
X177825400Y-79196800D03*
X175285400Y-79196800D03*
X172745400Y-79196800D03*
X170205400Y-79196800D03*
X167665400Y-79196800D03*
%TD*%
D21*
%TO.C,J3*%
X130073400Y-105562400D03*
D22*
X130073400Y-103022400D03*
X130073400Y-100482400D03*
X130073400Y-97942400D03*
X130073400Y-95402400D03*
X130073400Y-92862400D03*
%TD*%
D13*
%TO.C,D1*%
X129970200Y-79730600D03*
D14*
X132510200Y-79730600D03*
%TD*%
D23*
%TO.C,BT1*%
X157657800Y-109367400D03*
D24*
X157657800Y-111907400D03*
%TD*%
M02*
