%FSLAX45Y45*%
G04 Gerber Fmt 4.5, Leading zero omitted, Abs format (unit mm)*
G04 Created by KiCad (PCBNEW (5.99.0-13200-g7b4d5b2312)) date 2021-12-21 00:33:47*
%MOMM*%
%LPD*%
G01*
G04 APERTURE LIST*
%TA.AperFunction,Profile*%
%ADD10C,0.150000*%
%TD*%
%ADD11C,0.200000*%
%ADD12C,0.040000*%
%ADD13C,0.073000*%
%ADD14C,0.080000*%
%ADD15C,0.090000*%
%ADD16C,0.100000*%
%ADD17C,0.101600*%
%ADD18C,0.130000*%
%ADD19C,0.310000*%
G04 APERTURE END LIST*
D10*
X11988800Y-12395200D02*
X11988800Y-6604000D01*
X21336000Y-12395200D02*
X11988800Y-12395200D01*
X21336000Y-12395200D02*
X21336000Y-6604000D01*
X11988800Y-6604000D02*
X21336000Y-6604000D01*
D11*
D12*
X12387900Y-6705920D02*
X12427900Y-6745920D01*
X12427900Y-6705920D02*
X12387900Y-6745920D01*
X12426000Y-10802940D02*
X12466000Y-10842940D01*
X12466000Y-10802940D02*
X12426000Y-10842940D01*
X12442041Y-6804376D02*
X12482041Y-6844376D01*
X12482041Y-6804376D02*
X12442041Y-6844376D01*
X12533785Y-6816787D02*
X12573785Y-6856787D01*
X12573785Y-6816787D02*
X12533785Y-6856787D01*
X12616500Y-6820220D02*
X12656500Y-6860220D01*
X12656500Y-6820220D02*
X12616500Y-6860220D01*
X12720640Y-6865940D02*
X12760640Y-6905940D01*
X12760640Y-6865940D02*
X12720640Y-6905940D01*
X12857800Y-6868480D02*
X12897800Y-6908480D01*
X12897800Y-6868480D02*
X12857800Y-6908480D01*
X13127040Y-10729280D02*
X13167040Y-10769280D01*
X13167040Y-10729280D02*
X13127040Y-10769280D01*
X13185460Y-6888800D02*
X13225460Y-6928800D01*
X13225460Y-6888800D02*
X13185460Y-6928800D01*
X13419140Y-8903020D02*
X13459140Y-8943020D01*
X13459140Y-8903020D02*
X13419140Y-8943020D01*
X13490260Y-8834440D02*
X13530260Y-8874440D01*
X13530260Y-8834440D02*
X13490260Y-8874440D01*
X13726480Y-7831140D02*
X13766480Y-7871140D01*
X13766480Y-7831140D02*
X13726480Y-7871140D01*
X13802680Y-7747320D02*
X13842680Y-7787320D01*
X13842680Y-7747320D02*
X13802680Y-7787320D01*
X13927140Y-11016300D02*
X13967140Y-11056300D01*
X13967140Y-11016300D02*
X13927140Y-11056300D01*
X13972860Y-7768690D02*
X14012860Y-7808690D01*
X14012860Y-7768690D02*
X13972860Y-7808690D01*
X14056680Y-7686360D02*
X14096680Y-7726360D01*
X14096680Y-7686360D02*
X14056680Y-7726360D01*
X14067728Y-11089960D02*
X14107728Y-11129960D01*
X14107728Y-11089960D02*
X14067728Y-11129960D01*
X14082080Y-10935020D02*
X14122080Y-10975020D01*
X14122080Y-10935020D02*
X14082080Y-10975020D01*
X14084620Y-10015540D02*
X14124620Y-10055540D01*
X14124620Y-10015540D02*
X14084620Y-10055540D01*
X14145580Y-9497380D02*
X14185580Y-9537380D01*
X14185580Y-9497380D02*
X14145580Y-9537380D01*
X14237020Y-9634540D02*
X14277020Y-9674540D01*
X14277020Y-9634540D02*
X14237020Y-9674540D01*
X14237680Y-10138120D02*
X14277680Y-10178120D01*
X14277680Y-10138120D02*
X14237680Y-10178120D01*
X14254800Y-8245160D02*
X14294800Y-8285160D01*
X14294800Y-8245160D02*
X14254800Y-8285160D01*
X14310680Y-8156260D02*
X14350680Y-8196260D01*
X14350680Y-8156260D02*
X14310680Y-8196260D01*
X14394500Y-9985060D02*
X14434500Y-10025060D01*
X14434500Y-9985060D02*
X14394500Y-10025060D01*
X14422440Y-7960680D02*
X14462440Y-8000680D01*
X14462440Y-7960680D02*
X14422440Y-8000680D01*
X14485940Y-7897180D02*
X14525940Y-7937180D01*
X14525940Y-7897180D02*
X14485940Y-7937180D01*
X14821220Y-8024180D02*
X14861220Y-8064180D01*
X14861220Y-8024180D02*
X14821220Y-8064180D01*
X14889800Y-10945180D02*
X14929800Y-10985180D01*
X14929800Y-10945180D02*
X14889800Y-10985180D01*
X14897420Y-7960680D02*
X14937420Y-8000680D01*
X14937420Y-7960680D02*
X14897420Y-8000680D01*
X14897420Y-11232200D02*
X14937420Y-11272200D01*
X14937420Y-11232200D02*
X14897420Y-11272200D01*
X15029500Y-11089960D02*
X15069500Y-11129960D01*
X15069500Y-11089960D02*
X15029500Y-11129960D01*
X15072680Y-8082600D02*
X15112680Y-8122600D01*
X15112680Y-8082600D02*
X15072680Y-8122600D01*
X15136180Y-11201720D02*
X15176180Y-11241720D01*
X15176180Y-11201720D02*
X15136180Y-11241720D01*
X15143800Y-8021640D02*
X15183800Y-8061640D01*
X15183800Y-8021640D02*
X15143800Y-8061640D01*
X15169200Y-11046780D02*
X15209200Y-11086780D01*
X15209200Y-11046780D02*
X15169200Y-11086780D01*
X15402880Y-10985820D02*
X15442880Y-11025820D01*
X15442880Y-10985820D02*
X15402880Y-11025820D01*
X15461300Y-11056940D02*
X15501300Y-11096940D01*
X15501300Y-11056940D02*
X15461300Y-11096940D01*
X15659420Y-11048270D02*
X15699420Y-11088270D01*
X15699420Y-11048270D02*
X15659420Y-11088270D01*
X15720380Y-11120440D02*
X15760380Y-11160440D01*
X15760380Y-11120440D02*
X15720380Y-11160440D01*
X15763560Y-7574600D02*
X15803560Y-7614600D01*
X15803560Y-7574600D02*
X15763560Y-7614600D01*
X15866721Y-7623839D02*
X15906721Y-7663839D01*
X15906721Y-7623839D02*
X15866721Y-7663839D01*
X15905800Y-11110720D02*
X15945800Y-11150720D01*
X15945800Y-11110720D02*
X15905800Y-11150720D01*
X15979460Y-11181400D02*
X16019460Y-11221400D01*
X16019460Y-11181400D02*
X15979460Y-11221400D01*
X16053120Y-8247700D02*
X16093120Y-8287700D01*
X16093120Y-8247700D02*
X16053120Y-8287700D01*
X16111540Y-8158800D02*
X16151540Y-8198800D01*
X16151540Y-8158800D02*
X16111540Y-8198800D01*
X16167420Y-11173170D02*
X16207420Y-11213170D01*
X16207420Y-11173170D02*
X16167420Y-11213170D01*
X16241080Y-11247440D02*
X16281080Y-11287440D01*
X16281080Y-11247440D02*
X16241080Y-11287440D01*
X16390940Y-6718947D02*
X16430940Y-6758947D01*
X16430940Y-6718947D02*
X16390940Y-6758947D01*
X16418880Y-11235620D02*
X16458880Y-11275620D01*
X16458880Y-11235620D02*
X16418880Y-11275620D01*
X16492540Y-11310940D02*
X16532540Y-11350940D01*
X16532540Y-11310940D02*
X16492540Y-11350940D01*
X16667800Y-6718947D02*
X16707800Y-6758947D01*
X16707800Y-6718947D02*
X16667800Y-6758947D01*
X16675420Y-11298070D02*
X16715420Y-11338070D01*
X16715420Y-11298070D02*
X16675420Y-11338070D01*
X16728760Y-10980740D02*
X16768760Y-11020740D01*
X16768760Y-10980740D02*
X16728760Y-11020740D01*
X16749080Y-11369360D02*
X16789080Y-11409360D01*
X16789080Y-11369360D02*
X16749080Y-11409360D01*
X16764320Y-6693220D02*
X16804320Y-6733220D01*
X16804320Y-6693220D02*
X16764320Y-6733220D01*
X16835440Y-10975660D02*
X16875440Y-11015660D01*
X16875440Y-10975660D02*
X16835440Y-11015660D01*
X16871000Y-9908860D02*
X16911000Y-9948860D01*
X16911000Y-9908860D02*
X16871000Y-9948860D01*
X16924340Y-11360520D02*
X16964340Y-11400520D01*
X16964340Y-11360520D02*
X16924340Y-11400520D01*
X16985300Y-10980740D02*
X17025300Y-11020740D01*
X17025300Y-10980740D02*
X16985300Y-11020740D01*
X16995460Y-11430320D02*
X17035460Y-11470320D01*
X17035460Y-11430320D02*
X16995460Y-11470320D01*
X17061500Y-11034080D02*
X17101500Y-11074080D01*
X17101500Y-11034080D02*
X17061500Y-11074080D01*
X17178340Y-11422970D02*
X17218340Y-11462970D01*
X17218340Y-11422970D02*
X17178340Y-11462970D01*
X17246920Y-10980740D02*
X17286920Y-11020740D01*
X17286920Y-10980740D02*
X17246920Y-11020740D01*
X17254540Y-7287580D02*
X17294540Y-7327580D01*
X17294540Y-7287580D02*
X17254540Y-7327580D01*
X17257080Y-11491280D02*
X17297080Y-11531280D01*
X17297080Y-11491280D02*
X17257080Y-11531280D01*
X17277400Y-11072180D02*
X17317400Y-11112180D01*
X17317400Y-11072180D02*
X17277400Y-11112180D01*
X17383101Y-7278981D02*
X17423101Y-7318981D01*
X17423101Y-7278981D02*
X17383101Y-7318981D01*
X17513620Y-10980740D02*
X17553620Y-11020740D01*
X17553620Y-10980740D02*
X17513620Y-11020740D01*
X17521240Y-9306880D02*
X17561240Y-9346880D01*
X17561240Y-9306880D02*
X17521240Y-9346880D01*
X17531400Y-11072180D02*
X17571400Y-11112180D01*
X17571400Y-11072180D02*
X17531400Y-11112180D01*
X17585518Y-9238258D02*
X17625518Y-9278258D01*
X17625518Y-9238258D02*
X17585518Y-9278258D01*
X17734600Y-9454200D02*
X17774600Y-9494200D01*
X17774600Y-9454200D02*
X17734600Y-9494200D01*
X17757460Y-10975660D02*
X17797460Y-11015660D01*
X17797460Y-10975660D02*
X17757460Y-11015660D01*
X17770160Y-11072180D02*
X17810160Y-11112180D01*
X17810160Y-11072180D02*
X17770160Y-11112180D01*
X17813340Y-9378000D02*
X17853340Y-9418000D01*
X17853340Y-9378000D02*
X17813340Y-9418000D01*
X17978440Y-9654860D02*
X18018440Y-9694860D01*
X18018440Y-9654860D02*
X17978440Y-9694860D01*
X17998760Y-10975660D02*
X18038760Y-11015660D01*
X18038760Y-10975660D02*
X17998760Y-11015660D01*
X18014000Y-11074720D02*
X18054000Y-11114720D01*
X18054000Y-11074720D02*
X18014000Y-11114720D01*
X18039400Y-9825040D02*
X18079400Y-9865040D01*
X18079400Y-9825040D02*
X18039400Y-9865040D01*
X18078350Y-9593900D02*
X18118350Y-9633900D01*
X18118350Y-9593900D02*
X18078350Y-9633900D01*
X18141000Y-9853681D02*
X18181000Y-9893681D01*
X18181000Y-9853681D02*
X18141000Y-9893681D01*
X18260380Y-10983280D02*
X18300380Y-11023280D01*
X18300380Y-10983280D02*
X18260380Y-11023280D01*
X18275620Y-11077260D02*
X18315620Y-11117260D01*
X18315620Y-11077260D02*
X18275620Y-11117260D01*
X18514380Y-10980740D02*
X18554380Y-11020740D01*
X18554380Y-10980740D02*
X18514380Y-11020740D01*
X18534700Y-11077260D02*
X18574700Y-11117260D01*
X18574700Y-11077260D02*
X18534700Y-11117260D01*
X18928400Y-11547160D02*
X18968400Y-11587160D01*
X18968400Y-11547160D02*
X18928400Y-11587160D01*
X19014760Y-10762300D02*
X19054760Y-10802300D01*
X19054760Y-10762300D02*
X19014760Y-10802300D01*
X19014760Y-11544620D02*
X19054760Y-11584620D01*
X19054760Y-11544620D02*
X19014760Y-11584620D01*
X19077210Y-11482170D02*
X19117210Y-11522170D01*
X19117210Y-11482170D02*
X19077210Y-11522170D01*
X19094710Y-10762300D02*
X19134710Y-10802300D01*
X19134710Y-10762300D02*
X19094710Y-10802300D01*
X19148580Y-11419720D02*
X19188580Y-11459720D01*
X19188580Y-11419720D02*
X19148580Y-11459720D01*
X19174661Y-10762300D02*
X19214661Y-10802300D01*
X19214661Y-10762300D02*
X19174661Y-10802300D01*
X19237111Y-11357270D02*
X19277111Y-11397270D01*
X19277111Y-11357270D02*
X19237111Y-11397270D01*
X19254611Y-10762300D02*
X19294611Y-10802300D01*
X19294611Y-10762300D02*
X19254611Y-10802300D01*
X19314480Y-11277920D02*
X19354480Y-11317920D01*
X19354480Y-11277920D02*
X19314480Y-11317920D01*
X19334561Y-10762300D02*
X19374561Y-10802300D01*
X19374561Y-10762300D02*
X19334561Y-10802300D01*
X19414470Y-10759730D02*
X19454470Y-10799730D01*
X19454470Y-10759730D02*
X19414470Y-10799730D01*
X19494420Y-10759764D02*
X19534420Y-10799764D01*
X19534420Y-10759764D02*
X19494420Y-10799764D01*
X20500660Y-10830880D02*
X20540660Y-10870880D01*
X20540660Y-10830880D02*
X20500660Y-10870880D01*
X20592100Y-10053640D02*
X20632100Y-10093640D01*
X20632100Y-10053640D02*
X20592100Y-10093640D01*
X20592100Y-10269540D02*
X20632100Y-10309540D01*
X20632100Y-10269540D02*
X20592100Y-10309540D01*
X20592100Y-10482900D02*
X20632100Y-10522900D01*
X20632100Y-10482900D02*
X20592100Y-10522900D01*
X20592100Y-10701340D02*
X20632100Y-10741340D01*
X20632100Y-10701340D02*
X20592100Y-10741340D01*
X20592100Y-10937560D02*
X20632100Y-10977560D01*
X20632100Y-10937560D02*
X20592100Y-10977560D01*
X20719100Y-10180640D02*
X20759100Y-10220640D01*
X20759100Y-10180640D02*
X20719100Y-10220640D01*
X20719100Y-10396540D02*
X20759100Y-10436540D01*
X20759100Y-10396540D02*
X20719100Y-10436540D01*
X20719100Y-10609900D02*
X20759100Y-10649900D01*
X20759100Y-10609900D02*
X20719100Y-10649900D01*
X20719100Y-10828340D02*
X20759100Y-10868340D01*
X20759100Y-10828340D02*
X20719100Y-10868340D01*
X20719100Y-11064560D02*
X20759100Y-11104560D01*
X20759100Y-11064560D02*
X20719100Y-11104560D01*
X20846100Y-10307640D02*
X20886100Y-10347640D01*
X20886100Y-10307640D02*
X20846100Y-10347640D01*
X20846100Y-10523540D02*
X20886100Y-10563540D01*
X20886100Y-10523540D02*
X20846100Y-10563540D01*
X20846100Y-10736900D02*
X20886100Y-10776900D01*
X20886100Y-10736900D02*
X20846100Y-10776900D01*
X20846100Y-10955340D02*
X20886100Y-10995340D01*
X20886100Y-10955340D02*
X20846100Y-10995340D01*
X20846100Y-11191560D02*
X20886100Y-11231560D01*
X20886100Y-11191560D02*
X20846100Y-11231560D01*
X20871500Y-11283000D02*
X20911500Y-11323000D01*
X20911500Y-11283000D02*
X20871500Y-11323000D01*
X20899440Y-11628440D02*
X20939440Y-11668440D01*
X20939440Y-11628440D02*
X20899440Y-11668440D01*
X20943625Y-11357270D02*
X20983625Y-11397270D01*
X20983625Y-11357270D02*
X20943625Y-11397270D01*
X20973100Y-10434640D02*
X21013100Y-10474640D01*
X21013100Y-10434640D02*
X20973100Y-10474640D01*
X20973100Y-10650540D02*
X21013100Y-10690540D01*
X21013100Y-10650540D02*
X20973100Y-10690540D01*
X20973100Y-10863900D02*
X21013100Y-10903900D01*
X21013100Y-10863900D02*
X20973100Y-10903900D01*
X21006075Y-11419720D02*
X21046075Y-11459720D01*
X21046075Y-11419720D02*
X21006075Y-11459720D01*
X21026440Y-11628440D02*
X21066440Y-11668440D01*
X21066440Y-11628440D02*
X21026440Y-11668440D01*
X21070963Y-11482170D02*
X21110963Y-11522170D01*
X21110963Y-11482170D02*
X21070963Y-11522170D01*
X21100100Y-10561640D02*
X21140100Y-10601640D01*
X21140100Y-10561640D02*
X21100100Y-10601640D01*
X21150900Y-11516680D02*
X21190900Y-11556680D01*
X21190900Y-11516680D02*
X21150900Y-11556680D01*
X21153440Y-11628440D02*
X21193440Y-11668440D01*
X21193440Y-11628440D02*
X21153440Y-11668440D01*
D13*
X16673300Y-8135680D02*
G75*
G03*
X16673300Y-8135680I-36500J0D01*
G01*
X16673300Y-8929680D02*
G75*
G03*
X16673300Y-8929680I-36500J0D01*
G01*
X16673300Y-10079680D02*
G75*
G03*
X16673300Y-10079680I-36500J0D01*
G01*
X16673300Y-10873680D02*
G75*
G03*
X16673300Y-10873680I-36500J0D01*
G01*
X16927300Y-8135680D02*
G75*
G03*
X16927300Y-8135680I-36500J0D01*
G01*
X16927300Y-8929680D02*
G75*
G03*
X16927300Y-8929680I-36500J0D01*
G01*
X16927300Y-10079680D02*
G75*
G03*
X16927300Y-10079680I-36500J0D01*
G01*
X16927300Y-10873680D02*
G75*
G03*
X16927300Y-10873680I-36500J0D01*
G01*
X17181300Y-8135680D02*
G75*
G03*
X17181300Y-8135680I-36500J0D01*
G01*
X17181300Y-8929680D02*
G75*
G03*
X17181300Y-8929680I-36500J0D01*
G01*
X17181300Y-10079680D02*
G75*
G03*
X17181300Y-10079680I-36500J0D01*
G01*
X17181300Y-10873680D02*
G75*
G03*
X17181300Y-10873680I-36500J0D01*
G01*
X17435300Y-8135680D02*
G75*
G03*
X17435300Y-8135680I-36500J0D01*
G01*
X17435300Y-8929680D02*
G75*
G03*
X17435300Y-8929680I-36500J0D01*
G01*
X17435300Y-10079680D02*
G75*
G03*
X17435300Y-10079680I-36500J0D01*
G01*
X17435300Y-10873680D02*
G75*
G03*
X17435300Y-10873680I-36500J0D01*
G01*
X17689300Y-8135680D02*
G75*
G03*
X17689300Y-8135680I-36500J0D01*
G01*
X17689300Y-8929680D02*
G75*
G03*
X17689300Y-8929680I-36500J0D01*
G01*
X17689300Y-10079680D02*
G75*
G03*
X17689300Y-10079680I-36500J0D01*
G01*
X17689300Y-10873680D02*
G75*
G03*
X17689300Y-10873680I-36500J0D01*
G01*
X17943300Y-8135680D02*
G75*
G03*
X17943300Y-8135680I-36500J0D01*
G01*
X17943300Y-8929680D02*
G75*
G03*
X17943300Y-8929680I-36500J0D01*
G01*
X17943300Y-10079680D02*
G75*
G03*
X17943300Y-10079680I-36500J0D01*
G01*
X17943300Y-10873680D02*
G75*
G03*
X17943300Y-10873680I-36500J0D01*
G01*
X18197300Y-8135680D02*
G75*
G03*
X18197300Y-8135680I-36500J0D01*
G01*
X18197300Y-8929680D02*
G75*
G03*
X18197300Y-8929680I-36500J0D01*
G01*
X18197300Y-10079680D02*
G75*
G03*
X18197300Y-10079680I-36500J0D01*
G01*
X18197300Y-10873680D02*
G75*
G03*
X18197300Y-10873680I-36500J0D01*
G01*
X18451300Y-8135680D02*
G75*
G03*
X18451300Y-8135680I-36500J0D01*
G01*
X18451300Y-8929680D02*
G75*
G03*
X18451300Y-8929680I-36500J0D01*
G01*
X18451300Y-10079680D02*
G75*
G03*
X18451300Y-10079680I-36500J0D01*
G01*
X18451300Y-10873680D02*
G75*
G03*
X18451300Y-10873680I-36500J0D01*
G01*
X18705300Y-8135680D02*
G75*
G03*
X18705300Y-8135680I-36500J0D01*
G01*
X18705300Y-8929680D02*
G75*
G03*
X18705300Y-8929680I-36500J0D01*
G01*
X18705300Y-10079680D02*
G75*
G03*
X18705300Y-10079680I-36500J0D01*
G01*
X18705300Y-10873680D02*
G75*
G03*
X18705300Y-10873680I-36500J0D01*
G01*
X18959300Y-8135680D02*
G75*
G03*
X18959300Y-8135680I-36500J0D01*
G01*
X18959300Y-8929680D02*
G75*
G03*
X18959300Y-8929680I-36500J0D01*
G01*
X18959300Y-10079680D02*
G75*
G03*
X18959300Y-10079680I-36500J0D01*
G01*
X18959300Y-10873680D02*
G75*
G03*
X18959300Y-10873680I-36500J0D01*
G01*
D14*
X12987020Y-8507100D02*
X12987020Y-8587100D01*
X12947020Y-8547100D02*
X13027020Y-8547100D01*
X13492480Y-9345300D02*
X13492480Y-9425300D01*
X13452480Y-9385300D02*
X13532480Y-9385300D01*
X13492480Y-10361300D02*
X13492480Y-10441300D01*
X13452480Y-10401300D02*
X13532480Y-10401300D01*
X13746480Y-9345300D02*
X13746480Y-9425300D01*
X13706480Y-9385300D02*
X13786480Y-9385300D01*
X13746480Y-10361300D02*
X13746480Y-10441300D01*
X13706480Y-10401300D02*
X13786480Y-10401300D01*
X14000480Y-9345300D02*
X14000480Y-9425300D01*
X13960480Y-9385300D02*
X14040480Y-9385300D01*
X14000480Y-10361300D02*
X14000480Y-10441300D01*
X13960480Y-10401300D02*
X14040480Y-10401300D01*
X14003020Y-8507100D02*
X14003020Y-8587100D01*
X13963020Y-8547100D02*
X14043020Y-8547100D01*
X14254480Y-9345300D02*
X14254480Y-9425300D01*
X14214480Y-9385300D02*
X14294480Y-9385300D01*
X14254480Y-10361300D02*
X14254480Y-10441300D01*
X14214480Y-10401300D02*
X14294480Y-10401300D01*
X14508480Y-9345300D02*
X14508480Y-9425300D01*
X14468480Y-9385300D02*
X14548480Y-9385300D01*
X14508480Y-10361300D02*
X14508480Y-10441300D01*
X14468480Y-10401300D02*
X14548480Y-10401300D01*
X14762480Y-9345300D02*
X14762480Y-9425300D01*
X14722480Y-9385300D02*
X14802480Y-9385300D01*
X14762480Y-10361300D02*
X14762480Y-10441300D01*
X14722480Y-10401300D02*
X14802480Y-10401300D01*
D15*
X13028840Y-8004880D02*
X13028840Y-7941240D01*
X12965200Y-7941240D01*
X12965200Y-8004880D01*
X13028840Y-8004880D01*
X13282840Y-8004880D02*
X13282840Y-7941240D01*
X13219200Y-7941240D01*
X13219200Y-8004880D01*
X13282840Y-8004880D01*
D16*
X20043680Y-8366680D02*
X20093680Y-8316680D01*
X20043680Y-8266680D01*
X19993680Y-8316680D01*
X20043680Y-8366680D01*
X20043680Y-8582680D02*
X20093680Y-8532680D01*
X20043680Y-8482680D01*
X19993680Y-8532680D01*
X20043680Y-8582680D01*
X20043680Y-8798680D02*
X20093680Y-8748680D01*
X20043680Y-8698680D01*
X19993680Y-8748680D01*
X20043680Y-8798680D01*
X20043680Y-9014680D02*
X20093680Y-8964680D01*
X20043680Y-8914680D01*
X19993680Y-8964680D01*
X20043680Y-9014680D01*
X20043680Y-9230680D02*
X20093680Y-9180680D01*
X20043680Y-9130680D01*
X19993680Y-9180680D01*
X20043680Y-9230680D01*
X20043680Y-9446680D02*
X20093680Y-9396680D01*
X20043680Y-9346680D01*
X19993680Y-9396680D01*
X20043680Y-9446680D01*
X20043680Y-9662680D02*
X20093680Y-9612680D01*
X20043680Y-9562680D01*
X19993680Y-9612680D01*
X20043680Y-9662680D01*
X20043680Y-9878680D02*
X20093680Y-9828680D01*
X20043680Y-9778680D01*
X19993680Y-9828680D01*
X20043680Y-9878680D01*
X20043680Y-10094680D02*
X20093680Y-10044680D01*
X20043680Y-9994680D01*
X19993680Y-10044680D01*
X20043680Y-10094680D01*
X20043680Y-10310680D02*
X20093680Y-10260680D01*
X20043680Y-10210680D01*
X19993680Y-10260680D01*
X20043680Y-10310680D01*
X20043680Y-10526680D02*
X20093680Y-10476680D01*
X20043680Y-10426680D01*
X19993680Y-10476680D01*
X20043680Y-10526680D01*
X20043680Y-10742680D02*
X20093680Y-10692680D01*
X20043680Y-10642680D01*
X19993680Y-10692680D01*
X20043680Y-10742680D01*
X20472680Y-8366680D02*
X20522680Y-8316680D01*
X20472680Y-8266680D01*
X20422680Y-8316680D01*
X20472680Y-8366680D01*
X20472680Y-8582680D02*
X20522680Y-8532680D01*
X20472680Y-8482680D01*
X20422680Y-8532680D01*
X20472680Y-8582680D01*
X20472680Y-8798680D02*
X20522680Y-8748680D01*
X20472680Y-8698680D01*
X20422680Y-8748680D01*
X20472680Y-8798680D01*
X20472680Y-9014680D02*
X20522680Y-8964680D01*
X20472680Y-8914680D01*
X20422680Y-8964680D01*
X20472680Y-9014680D01*
X20472680Y-9230680D02*
X20522680Y-9180680D01*
X20472680Y-9130680D01*
X20422680Y-9180680D01*
X20472680Y-9230680D01*
X20472680Y-9446680D02*
X20522680Y-9396680D01*
X20472680Y-9346680D01*
X20422680Y-9396680D01*
X20472680Y-9446680D01*
X20472680Y-9662680D02*
X20522680Y-9612680D01*
X20472680Y-9562680D01*
X20422680Y-9612680D01*
X20472680Y-9662680D01*
X20472680Y-9878680D02*
X20522680Y-9828680D01*
X20472680Y-9778680D01*
X20422680Y-9828680D01*
X20472680Y-9878680D01*
X20472680Y-10094680D02*
X20522680Y-10044680D01*
X20472680Y-9994680D01*
X20422680Y-10044680D01*
X20472680Y-10094680D01*
X20472680Y-10310680D02*
X20522680Y-10260680D01*
X20472680Y-10210680D01*
X20422680Y-10260680D01*
X20472680Y-10310680D01*
X20472680Y-10526680D02*
X20522680Y-10476680D01*
X20472680Y-10426680D01*
X20422680Y-10476680D01*
X20472680Y-10526680D01*
X20472680Y-10742680D02*
X20522680Y-10692680D01*
X20472680Y-10642680D01*
X20422680Y-10692680D01*
X20472680Y-10742680D01*
D17*
X12166600Y-7035800D02*
X12268200Y-7137400D01*
X12268200Y-7035800D02*
X12166600Y-7137400D01*
X12268200Y-7086600D02*
G75*
G03*
X12268200Y-7086600I-50800J0D01*
G01*
X12420600Y-7035800D02*
X12522200Y-7137400D01*
X12522200Y-7035800D02*
X12420600Y-7137400D01*
X12522200Y-7086600D02*
G75*
G03*
X12522200Y-7086600I-50800J0D01*
G01*
X12674600Y-7035800D02*
X12776200Y-7137400D01*
X12776200Y-7035800D02*
X12674600Y-7137400D01*
X12776200Y-7086600D02*
G75*
G03*
X12776200Y-7086600I-50800J0D01*
G01*
X12928600Y-7035800D02*
X13030200Y-7137400D01*
X13030200Y-7035800D02*
X12928600Y-7137400D01*
X13030200Y-7086600D02*
G75*
G03*
X13030200Y-7086600I-50800J0D01*
G01*
X13081000Y-11861800D02*
X13182600Y-11963400D01*
X13182600Y-11861800D02*
X13081000Y-11963400D01*
X13182600Y-11912600D02*
G75*
G03*
X13182600Y-11912600I-50800J0D01*
G01*
X13182600Y-7035800D02*
X13284200Y-7137400D01*
X13284200Y-7035800D02*
X13182600Y-7137400D01*
X13284200Y-7086600D02*
G75*
G03*
X13284200Y-7086600I-50800J0D01*
G01*
X13335000Y-11861800D02*
X13436600Y-11963400D01*
X13436600Y-11861800D02*
X13335000Y-11963400D01*
X13436600Y-11912600D02*
G75*
G03*
X13436600Y-11912600I-50800J0D01*
G01*
X13436600Y-7035800D02*
X13538200Y-7137400D01*
X13538200Y-7035800D02*
X13436600Y-7137400D01*
X13538200Y-7086600D02*
G75*
G03*
X13538200Y-7086600I-50800J0D01*
G01*
X13589000Y-11861800D02*
X13690600Y-11963400D01*
X13690600Y-11861800D02*
X13589000Y-11963400D01*
X13690600Y-11912600D02*
G75*
G03*
X13690600Y-11912600I-50800J0D01*
G01*
X13690600Y-7035800D02*
X13792200Y-7137400D01*
X13792200Y-7035800D02*
X13690600Y-7137400D01*
X13792200Y-7086600D02*
G75*
G03*
X13792200Y-7086600I-50800J0D01*
G01*
X13843000Y-11861800D02*
X13944600Y-11963400D01*
X13944600Y-11861800D02*
X13843000Y-11963400D01*
X13944600Y-11912600D02*
G75*
G03*
X13944600Y-11912600I-50800J0D01*
G01*
X13944600Y-7035800D02*
X14046200Y-7137400D01*
X14046200Y-7035800D02*
X13944600Y-7137400D01*
X14046200Y-7086600D02*
G75*
G03*
X14046200Y-7086600I-50800J0D01*
G01*
X14097000Y-11861800D02*
X14198600Y-11963400D01*
X14198600Y-11861800D02*
X14097000Y-11963400D01*
X14198600Y-11912600D02*
G75*
G03*
X14198600Y-11912600I-50800J0D01*
G01*
X14198600Y-7035800D02*
X14300200Y-7137400D01*
X14300200Y-7035800D02*
X14198600Y-7137400D01*
X14300200Y-7086600D02*
G75*
G03*
X14300200Y-7086600I-50800J0D01*
G01*
X14351000Y-11861800D02*
X14452600Y-11963400D01*
X14452600Y-11861800D02*
X14351000Y-11963400D01*
X14452600Y-11912600D02*
G75*
G03*
X14452600Y-11912600I-50800J0D01*
G01*
X14452600Y-7035800D02*
X14554200Y-7137400D01*
X14554200Y-7035800D02*
X14452600Y-7137400D01*
X14554200Y-7086600D02*
G75*
G03*
X14554200Y-7086600I-50800J0D01*
G01*
X14605000Y-11861800D02*
X14706600Y-11963400D01*
X14706600Y-11861800D02*
X14605000Y-11963400D01*
X14706600Y-11912600D02*
G75*
G03*
X14706600Y-11912600I-50800J0D01*
G01*
X14859000Y-7035800D02*
X14960600Y-7137400D01*
X14960600Y-7035800D02*
X14859000Y-7137400D01*
X14960600Y-7086600D02*
G75*
G03*
X14960600Y-7086600I-50800J0D01*
G01*
X14859000Y-11861800D02*
X14960600Y-11963400D01*
X14960600Y-11861800D02*
X14859000Y-11963400D01*
X14960600Y-11912600D02*
G75*
G03*
X14960600Y-11912600I-50800J0D01*
G01*
X15113000Y-7035800D02*
X15214600Y-7137400D01*
X15214600Y-7035800D02*
X15113000Y-7137400D01*
X15214600Y-7086600D02*
G75*
G03*
X15214600Y-7086600I-50800J0D01*
G01*
X15367000Y-7035800D02*
X15468600Y-7137400D01*
X15468600Y-7035800D02*
X15367000Y-7137400D01*
X15468600Y-7086600D02*
G75*
G03*
X15468600Y-7086600I-50800J0D01*
G01*
X15367000Y-11861800D02*
X15468600Y-11963400D01*
X15468600Y-11861800D02*
X15367000Y-11963400D01*
X15468600Y-11912600D02*
G75*
G03*
X15468600Y-11912600I-50800J0D01*
G01*
X15621000Y-7035800D02*
X15722600Y-7137400D01*
X15722600Y-7035800D02*
X15621000Y-7137400D01*
X15722600Y-7086600D02*
G75*
G03*
X15722600Y-7086600I-50800J0D01*
G01*
X15621000Y-11861800D02*
X15722600Y-11963400D01*
X15722600Y-11861800D02*
X15621000Y-11963400D01*
X15722600Y-11912600D02*
G75*
G03*
X15722600Y-11912600I-50800J0D01*
G01*
X15875000Y-7035800D02*
X15976600Y-7137400D01*
X15976600Y-7035800D02*
X15875000Y-7137400D01*
X15976600Y-7086600D02*
G75*
G03*
X15976600Y-7086600I-50800J0D01*
G01*
X15875000Y-11861800D02*
X15976600Y-11963400D01*
X15976600Y-11861800D02*
X15875000Y-11963400D01*
X15976600Y-11912600D02*
G75*
G03*
X15976600Y-11912600I-50800J0D01*
G01*
X16129000Y-7035800D02*
X16230600Y-7137400D01*
X16230600Y-7035800D02*
X16129000Y-7137400D01*
X16230600Y-7086600D02*
G75*
G03*
X16230600Y-7086600I-50800J0D01*
G01*
X16129000Y-11861800D02*
X16230600Y-11963400D01*
X16230600Y-11861800D02*
X16129000Y-11963400D01*
X16230600Y-11912600D02*
G75*
G03*
X16230600Y-11912600I-50800J0D01*
G01*
X16383000Y-7035800D02*
X16484600Y-7137400D01*
X16484600Y-7035800D02*
X16383000Y-7137400D01*
X16484600Y-7086600D02*
G75*
G03*
X16484600Y-7086600I-50800J0D01*
G01*
X16383000Y-11861800D02*
X16484600Y-11963400D01*
X16484600Y-11861800D02*
X16383000Y-11963400D01*
X16484600Y-11912600D02*
G75*
G03*
X16484600Y-11912600I-50800J0D01*
G01*
X16637000Y-7035800D02*
X16738600Y-7137400D01*
X16738600Y-7035800D02*
X16637000Y-7137400D01*
X16738600Y-7086600D02*
G75*
G03*
X16738600Y-7086600I-50800J0D01*
G01*
X16637000Y-11861800D02*
X16738600Y-11963400D01*
X16738600Y-11861800D02*
X16637000Y-11963400D01*
X16738600Y-11912600D02*
G75*
G03*
X16738600Y-11912600I-50800J0D01*
G01*
X16891000Y-11861800D02*
X16992600Y-11963400D01*
X16992600Y-11861800D02*
X16891000Y-11963400D01*
X16992600Y-11912600D02*
G75*
G03*
X16992600Y-11912600I-50800J0D01*
G01*
X17145000Y-7035800D02*
X17246600Y-7137400D01*
X17246600Y-7035800D02*
X17145000Y-7137400D01*
X17246600Y-7086600D02*
G75*
G03*
X17246600Y-7086600I-50800J0D01*
G01*
X17145000Y-11861800D02*
X17246600Y-11963400D01*
X17246600Y-11861800D02*
X17145000Y-11963400D01*
X17246600Y-11912600D02*
G75*
G03*
X17246600Y-11912600I-50800J0D01*
G01*
X17399000Y-7035800D02*
X17500600Y-7137400D01*
X17500600Y-7035800D02*
X17399000Y-7137400D01*
X17500600Y-7086600D02*
G75*
G03*
X17500600Y-7086600I-50800J0D01*
G01*
X17653000Y-7035800D02*
X17754600Y-7137400D01*
X17754600Y-7035800D02*
X17653000Y-7137400D01*
X17754600Y-7086600D02*
G75*
G03*
X17754600Y-7086600I-50800J0D01*
G01*
X17653000Y-11861800D02*
X17754600Y-11963400D01*
X17754600Y-11861800D02*
X17653000Y-11963400D01*
X17754600Y-11912600D02*
G75*
G03*
X17754600Y-11912600I-50800J0D01*
G01*
X17907000Y-7035800D02*
X18008600Y-7137400D01*
X18008600Y-7035800D02*
X17907000Y-7137400D01*
X18008600Y-7086600D02*
G75*
G03*
X18008600Y-7086600I-50800J0D01*
G01*
X17907000Y-11861800D02*
X18008600Y-11963400D01*
X18008600Y-11861800D02*
X17907000Y-11963400D01*
X18008600Y-11912600D02*
G75*
G03*
X18008600Y-11912600I-50800J0D01*
G01*
X18161000Y-7035800D02*
X18262600Y-7137400D01*
X18262600Y-7035800D02*
X18161000Y-7137400D01*
X18262600Y-7086600D02*
G75*
G03*
X18262600Y-7086600I-50800J0D01*
G01*
X18161000Y-11861800D02*
X18262600Y-11963400D01*
X18262600Y-11861800D02*
X18161000Y-11963400D01*
X18262600Y-11912600D02*
G75*
G03*
X18262600Y-11912600I-50800J0D01*
G01*
X18415000Y-7035800D02*
X18516600Y-7137400D01*
X18516600Y-7035800D02*
X18415000Y-7137400D01*
X18516600Y-7086600D02*
G75*
G03*
X18516600Y-7086600I-50800J0D01*
G01*
X18415000Y-11861800D02*
X18516600Y-11963400D01*
X18516600Y-11861800D02*
X18415000Y-11963400D01*
X18516600Y-11912600D02*
G75*
G03*
X18516600Y-11912600I-50800J0D01*
G01*
X18669000Y-7035800D02*
X18770600Y-7137400D01*
X18770600Y-7035800D02*
X18669000Y-7137400D01*
X18770600Y-7086600D02*
G75*
G03*
X18770600Y-7086600I-50800J0D01*
G01*
X18669000Y-11861800D02*
X18770600Y-11963400D01*
X18770600Y-11861800D02*
X18669000Y-11963400D01*
X18770600Y-11912600D02*
G75*
G03*
X18770600Y-11912600I-50800J0D01*
G01*
X18923000Y-7035800D02*
X19024600Y-7137400D01*
X19024600Y-7035800D02*
X18923000Y-7137400D01*
X19024600Y-7086600D02*
G75*
G03*
X19024600Y-7086600I-50800J0D01*
G01*
X18923000Y-11861800D02*
X19024600Y-11963400D01*
X19024600Y-11861800D02*
X18923000Y-11963400D01*
X19024600Y-11912600D02*
G75*
G03*
X19024600Y-11912600I-50800J0D01*
G01*
X19177000Y-11861800D02*
X19278600Y-11963400D01*
X19278600Y-11861800D02*
X19177000Y-11963400D01*
X19278600Y-11912600D02*
G75*
G03*
X19278600Y-11912600I-50800J0D01*
G01*
X19431000Y-11861800D02*
X19532600Y-11963400D01*
X19532600Y-11861800D02*
X19431000Y-11963400D01*
X19532600Y-11912600D02*
G75*
G03*
X19532600Y-11912600I-50800J0D01*
G01*
D18*
X12942340Y-9221240D02*
X13072340Y-9351240D01*
X13072340Y-9221240D02*
X12942340Y-9351240D01*
X13007340Y-9221240D02*
X13007340Y-9351240D01*
X12942340Y-9286240D02*
X13072340Y-9286240D01*
X12942340Y-9475240D02*
X13072340Y-9605240D01*
X13072340Y-9475240D02*
X12942340Y-9605240D01*
X13007340Y-9475240D02*
X13007340Y-9605240D01*
X12942340Y-9540240D02*
X13072340Y-9540240D01*
X12942340Y-9729240D02*
X13072340Y-9859240D01*
X13072340Y-9729240D02*
X12942340Y-9859240D01*
X13007340Y-9729240D02*
X13007340Y-9859240D01*
X12942340Y-9794240D02*
X13072340Y-9794240D01*
X12942340Y-9983240D02*
X13072340Y-10113240D01*
X13072340Y-9983240D02*
X12942340Y-10113240D01*
X13007340Y-9983240D02*
X13007340Y-10113240D01*
X12942340Y-10048240D02*
X13072340Y-10048240D01*
X12942340Y-10237240D02*
X13072340Y-10367240D01*
X13072340Y-10237240D02*
X12942340Y-10367240D01*
X13007340Y-10237240D02*
X13007340Y-10367240D01*
X12942340Y-10302240D02*
X13072340Y-10302240D01*
X12942340Y-10491240D02*
X13072340Y-10621240D01*
X13072340Y-10491240D02*
X12942340Y-10621240D01*
X13007340Y-10491240D02*
X13007340Y-10621240D01*
X12942340Y-10556240D02*
X13072340Y-10556240D01*
D19*
X20103180Y-7009680D02*
X20413180Y-7319680D01*
X20413180Y-7009680D02*
X20103180Y-7319680D01*
X20367783Y-7274283D02*
X20367783Y-7055077D01*
X20148577Y-7055077D01*
X20148577Y-7274283D01*
X20367783Y-7274283D01*
X20103180Y-11689680D02*
X20413180Y-11999680D01*
X20413180Y-11689680D02*
X20103180Y-11999680D01*
X20367783Y-11954283D02*
X20367783Y-11735077D01*
X20148577Y-11735077D01*
X20148577Y-11954283D01*
X20367783Y-11954283D01*
D11*
X12238919Y-12713176D02*
X12238919Y-12513176D01*
X12286538Y-12513176D01*
X12315109Y-12522700D01*
X12334157Y-12541748D01*
X12343681Y-12560795D01*
X12353205Y-12598890D01*
X12353205Y-12627462D01*
X12343681Y-12665557D01*
X12334157Y-12684605D01*
X12315109Y-12703652D01*
X12286538Y-12713176D01*
X12238919Y-12713176D01*
X12438919Y-12713176D02*
X12438919Y-12579843D01*
X12438919Y-12617938D02*
X12448443Y-12598890D01*
X12457967Y-12589367D01*
X12477014Y-12579843D01*
X12496062Y-12579843D01*
X12562728Y-12713176D02*
X12562728Y-12579843D01*
X12562728Y-12513176D02*
X12553205Y-12522700D01*
X12562728Y-12532224D01*
X12572252Y-12522700D01*
X12562728Y-12513176D01*
X12562728Y-12532224D01*
X12686538Y-12713176D02*
X12667490Y-12703652D01*
X12657967Y-12684605D01*
X12657967Y-12513176D01*
X12791300Y-12713176D02*
X12772252Y-12703652D01*
X12762728Y-12684605D01*
X12762728Y-12513176D01*
X13019871Y-12713176D02*
X13019871Y-12513176D01*
X13086538Y-12656033D01*
X13153205Y-12513176D01*
X13153205Y-12713176D01*
X13334157Y-12713176D02*
X13334157Y-12608414D01*
X13324633Y-12589367D01*
X13305586Y-12579843D01*
X13267490Y-12579843D01*
X13248443Y-12589367D01*
X13334157Y-12703652D02*
X13315109Y-12713176D01*
X13267490Y-12713176D01*
X13248443Y-12703652D01*
X13238919Y-12684605D01*
X13238919Y-12665557D01*
X13248443Y-12646509D01*
X13267490Y-12636986D01*
X13315109Y-12636986D01*
X13334157Y-12627462D01*
X13429395Y-12579843D02*
X13429395Y-12779843D01*
X13429395Y-12589367D02*
X13448443Y-12579843D01*
X13486538Y-12579843D01*
X13505586Y-12589367D01*
X13515109Y-12598890D01*
X13524633Y-12617938D01*
X13524633Y-12675081D01*
X13515109Y-12694128D01*
X13505586Y-12703652D01*
X13486538Y-12713176D01*
X13448443Y-12713176D01*
X13429395Y-12703652D01*
X13610348Y-12694128D02*
X13619871Y-12703652D01*
X13610348Y-12713176D01*
X13600824Y-12703652D01*
X13610348Y-12694128D01*
X13610348Y-12713176D01*
X13610348Y-12589367D02*
X13619871Y-12598890D01*
X13610348Y-12608414D01*
X13600824Y-12598890D01*
X13610348Y-12589367D01*
X13610348Y-12608414D01*
D12*
X11941300Y-13022700D02*
X11981300Y-13062700D01*
X11981300Y-13022700D02*
X11941300Y-13062700D01*
D11*
X12277014Y-12933176D02*
X12296062Y-12933176D01*
X12315109Y-12942700D01*
X12324633Y-12952224D01*
X12334157Y-12971271D01*
X12343681Y-13009367D01*
X12343681Y-13056986D01*
X12334157Y-13095081D01*
X12324633Y-13114128D01*
X12315109Y-13123652D01*
X12296062Y-13133176D01*
X12277014Y-13133176D01*
X12257967Y-13123652D01*
X12248443Y-13114128D01*
X12238919Y-13095081D01*
X12229395Y-13056986D01*
X12229395Y-13009367D01*
X12238919Y-12971271D01*
X12248443Y-12952224D01*
X12257967Y-12942700D01*
X12277014Y-12933176D01*
X12429395Y-13114128D02*
X12438919Y-13123652D01*
X12429395Y-13133176D01*
X12419871Y-13123652D01*
X12429395Y-13114128D01*
X12429395Y-13133176D01*
X12610348Y-12999843D02*
X12610348Y-13133176D01*
X12562728Y-12923652D02*
X12515109Y-13066509D01*
X12638919Y-13066509D01*
X12753205Y-12933176D02*
X12772252Y-12933176D01*
X12791300Y-12942700D01*
X12800824Y-12952224D01*
X12810348Y-12971271D01*
X12819871Y-13009367D01*
X12819871Y-13056986D01*
X12810348Y-13095081D01*
X12800824Y-13114128D01*
X12791300Y-13123652D01*
X12772252Y-13133176D01*
X12753205Y-13133176D01*
X12734157Y-13123652D01*
X12724633Y-13114128D01*
X12715109Y-13095081D01*
X12705586Y-13056986D01*
X12705586Y-13009367D01*
X12715109Y-12971271D01*
X12724633Y-12952224D01*
X12734157Y-12942700D01*
X12753205Y-12933176D01*
X12943681Y-12933176D02*
X12962728Y-12933176D01*
X12981776Y-12942700D01*
X12991300Y-12952224D01*
X13000824Y-12971271D01*
X13010348Y-13009367D01*
X13010348Y-13056986D01*
X13000824Y-13095081D01*
X12991300Y-13114128D01*
X12981776Y-13123652D01*
X12962728Y-13133176D01*
X12943681Y-13133176D01*
X12924633Y-13123652D01*
X12915109Y-13114128D01*
X12905586Y-13095081D01*
X12896062Y-13056986D01*
X12896062Y-13009367D01*
X12905586Y-12971271D01*
X12915109Y-12952224D01*
X12924633Y-12942700D01*
X12943681Y-12933176D01*
X13096062Y-13133176D02*
X13096062Y-12999843D01*
X13096062Y-13018890D02*
X13105586Y-13009367D01*
X13124633Y-12999843D01*
X13153205Y-12999843D01*
X13172252Y-13009367D01*
X13181776Y-13028414D01*
X13181776Y-13133176D01*
X13181776Y-13028414D02*
X13191300Y-13009367D01*
X13210348Y-12999843D01*
X13238919Y-12999843D01*
X13257967Y-13009367D01*
X13267490Y-13028414D01*
X13267490Y-13133176D01*
X13362728Y-13133176D02*
X13362728Y-12999843D01*
X13362728Y-13018890D02*
X13372252Y-13009367D01*
X13391300Y-12999843D01*
X13419871Y-12999843D01*
X13438919Y-13009367D01*
X13448443Y-13028414D01*
X13448443Y-13133176D01*
X13448443Y-13028414D02*
X13457967Y-13009367D01*
X13477014Y-12999843D01*
X13505586Y-12999843D01*
X13524633Y-13009367D01*
X13534157Y-13028414D01*
X13534157Y-13133176D01*
X13924633Y-12923652D02*
X13753205Y-13180795D01*
X14181776Y-12933176D02*
X14200824Y-12933176D01*
X14219871Y-12942700D01*
X14229395Y-12952224D01*
X14238919Y-12971271D01*
X14248443Y-13009367D01*
X14248443Y-13056986D01*
X14238919Y-13095081D01*
X14229395Y-13114128D01*
X14219871Y-13123652D01*
X14200824Y-13133176D01*
X14181776Y-13133176D01*
X14162728Y-13123652D01*
X14153205Y-13114128D01*
X14143681Y-13095081D01*
X14134157Y-13056986D01*
X14134157Y-13009367D01*
X14143681Y-12971271D01*
X14153205Y-12952224D01*
X14162728Y-12942700D01*
X14181776Y-12933176D01*
X14334157Y-13114128D02*
X14343681Y-13123652D01*
X14334157Y-13133176D01*
X14324633Y-13123652D01*
X14334157Y-13114128D01*
X14334157Y-13133176D01*
X14467490Y-12933176D02*
X14486538Y-12933176D01*
X14505586Y-12942700D01*
X14515109Y-12952224D01*
X14524633Y-12971271D01*
X14534157Y-13009367D01*
X14534157Y-13056986D01*
X14524633Y-13095081D01*
X14515109Y-13114128D01*
X14505586Y-13123652D01*
X14486538Y-13133176D01*
X14467490Y-13133176D01*
X14448443Y-13123652D01*
X14438919Y-13114128D01*
X14429395Y-13095081D01*
X14419871Y-13056986D01*
X14419871Y-13009367D01*
X14429395Y-12971271D01*
X14438919Y-12952224D01*
X14448443Y-12942700D01*
X14467490Y-12933176D01*
X14724633Y-13133176D02*
X14610348Y-13133176D01*
X14667490Y-13133176D02*
X14667490Y-12933176D01*
X14648443Y-12961748D01*
X14629395Y-12980795D01*
X14610348Y-12990319D01*
X14905586Y-12933176D02*
X14810348Y-12933176D01*
X14800824Y-13028414D01*
X14810348Y-13018890D01*
X14829395Y-13009367D01*
X14877014Y-13009367D01*
X14896062Y-13018890D01*
X14905586Y-13028414D01*
X14915109Y-13047462D01*
X14915109Y-13095081D01*
X14905586Y-13114128D01*
X14896062Y-13123652D01*
X14877014Y-13133176D01*
X14829395Y-13133176D01*
X14810348Y-13123652D01*
X14800824Y-13114128D01*
X14981776Y-12933176D02*
X15115109Y-12933176D01*
X15029395Y-13133176D01*
X15181776Y-12933176D02*
X15181776Y-12971271D01*
X15257967Y-12933176D02*
X15257967Y-12971271D01*
X15553205Y-13209367D02*
X15543681Y-13199843D01*
X15524633Y-13171271D01*
X15515109Y-13152224D01*
X15505586Y-13123652D01*
X15496062Y-13076033D01*
X15496062Y-13037938D01*
X15505586Y-12990319D01*
X15515109Y-12961748D01*
X15524633Y-12942700D01*
X15543681Y-12914128D01*
X15553205Y-12904605D01*
X15734157Y-13133176D02*
X15619871Y-13133176D01*
X15677014Y-13133176D02*
X15677014Y-12933176D01*
X15657967Y-12961748D01*
X15638919Y-12980795D01*
X15619871Y-12990319D01*
X15810348Y-12952224D02*
X15819871Y-12942700D01*
X15838919Y-12933176D01*
X15886538Y-12933176D01*
X15905586Y-12942700D01*
X15915109Y-12952224D01*
X15924633Y-12971271D01*
X15924633Y-12990319D01*
X15915109Y-13018890D01*
X15800824Y-13133176D01*
X15924633Y-13133176D01*
X15991300Y-12933176D02*
X16124633Y-12933176D01*
X16038919Y-13133176D01*
X16353205Y-13133176D02*
X16353205Y-12933176D01*
X16438919Y-13133176D02*
X16438919Y-13028414D01*
X16429395Y-13009367D01*
X16410348Y-12999843D01*
X16381776Y-12999843D01*
X16362728Y-13009367D01*
X16353205Y-13018890D01*
X16562728Y-13133176D02*
X16543681Y-13123652D01*
X16534157Y-13114128D01*
X16524633Y-13095081D01*
X16524633Y-13037938D01*
X16534157Y-13018890D01*
X16543681Y-13009367D01*
X16562728Y-12999843D01*
X16591300Y-12999843D01*
X16610348Y-13009367D01*
X16619871Y-13018890D01*
X16629395Y-13037938D01*
X16629395Y-13095081D01*
X16619871Y-13114128D01*
X16610348Y-13123652D01*
X16591300Y-13133176D01*
X16562728Y-13133176D01*
X16743681Y-13133176D02*
X16724633Y-13123652D01*
X16715109Y-13104605D01*
X16715109Y-12933176D01*
X16896062Y-13123652D02*
X16877014Y-13133176D01*
X16838919Y-13133176D01*
X16819871Y-13123652D01*
X16810348Y-13104605D01*
X16810348Y-13028414D01*
X16819871Y-13009367D01*
X16838919Y-12999843D01*
X16877014Y-12999843D01*
X16896062Y-13009367D01*
X16905586Y-13028414D01*
X16905586Y-13047462D01*
X16810348Y-13066509D01*
X16981776Y-13123652D02*
X17000824Y-13133176D01*
X17038919Y-13133176D01*
X17057967Y-13123652D01*
X17067490Y-13104605D01*
X17067490Y-13095081D01*
X17057967Y-13076033D01*
X17038919Y-13066509D01*
X17010348Y-13066509D01*
X16991300Y-13056986D01*
X16981776Y-13037938D01*
X16981776Y-13028414D01*
X16991300Y-13009367D01*
X17010348Y-12999843D01*
X17038919Y-12999843D01*
X17057967Y-13009367D01*
X17134157Y-13209367D02*
X17143681Y-13199843D01*
X17162729Y-13171271D01*
X17172252Y-13152224D01*
X17181776Y-13123652D01*
X17191300Y-13076033D01*
X17191300Y-13037938D01*
X17181776Y-12990319D01*
X17172252Y-12961748D01*
X17162729Y-12942700D01*
X17143681Y-12914128D01*
X17134157Y-12904605D01*
D13*
X11981300Y-13306700D02*
G75*
G03*
X11981300Y-13306700I-36500J0D01*
G01*
D11*
X12277014Y-13197176D02*
X12296062Y-13197176D01*
X12315109Y-13206700D01*
X12324633Y-13216224D01*
X12334157Y-13235271D01*
X12343681Y-13273367D01*
X12343681Y-13320986D01*
X12334157Y-13359081D01*
X12324633Y-13378128D01*
X12315109Y-13387652D01*
X12296062Y-13397176D01*
X12277014Y-13397176D01*
X12257967Y-13387652D01*
X12248443Y-13378128D01*
X12238919Y-13359081D01*
X12229395Y-13320986D01*
X12229395Y-13273367D01*
X12238919Y-13235271D01*
X12248443Y-13216224D01*
X12257967Y-13206700D01*
X12277014Y-13197176D01*
X12429395Y-13378128D02*
X12438919Y-13387652D01*
X12429395Y-13397176D01*
X12419871Y-13387652D01*
X12429395Y-13378128D01*
X12429395Y-13397176D01*
X12505586Y-13197176D02*
X12638919Y-13197176D01*
X12553205Y-13397176D01*
X12696062Y-13197176D02*
X12819871Y-13197176D01*
X12753205Y-13273367D01*
X12781776Y-13273367D01*
X12800824Y-13282890D01*
X12810348Y-13292414D01*
X12819871Y-13311462D01*
X12819871Y-13359081D01*
X12810348Y-13378128D01*
X12800824Y-13387652D01*
X12781776Y-13397176D01*
X12724633Y-13397176D01*
X12705586Y-13387652D01*
X12696062Y-13378128D01*
X12943681Y-13197176D02*
X12962728Y-13197176D01*
X12981776Y-13206700D01*
X12991300Y-13216224D01*
X13000824Y-13235271D01*
X13010348Y-13273367D01*
X13010348Y-13320986D01*
X13000824Y-13359081D01*
X12991300Y-13378128D01*
X12981776Y-13387652D01*
X12962728Y-13397176D01*
X12943681Y-13397176D01*
X12924633Y-13387652D01*
X12915109Y-13378128D01*
X12905586Y-13359081D01*
X12896062Y-13320986D01*
X12896062Y-13273367D01*
X12905586Y-13235271D01*
X12915109Y-13216224D01*
X12924633Y-13206700D01*
X12943681Y-13197176D01*
X13096062Y-13397176D02*
X13096062Y-13263843D01*
X13096062Y-13282890D02*
X13105586Y-13273367D01*
X13124633Y-13263843D01*
X13153205Y-13263843D01*
X13172252Y-13273367D01*
X13181776Y-13292414D01*
X13181776Y-13397176D01*
X13181776Y-13292414D02*
X13191300Y-13273367D01*
X13210348Y-13263843D01*
X13238919Y-13263843D01*
X13257967Y-13273367D01*
X13267490Y-13292414D01*
X13267490Y-13397176D01*
X13362728Y-13397176D02*
X13362728Y-13263843D01*
X13362728Y-13282890D02*
X13372252Y-13273367D01*
X13391300Y-13263843D01*
X13419871Y-13263843D01*
X13438919Y-13273367D01*
X13448443Y-13292414D01*
X13448443Y-13397176D01*
X13448443Y-13292414D02*
X13457967Y-13273367D01*
X13477014Y-13263843D01*
X13505586Y-13263843D01*
X13524633Y-13273367D01*
X13534157Y-13292414D01*
X13534157Y-13397176D01*
X13924633Y-13187652D02*
X13753205Y-13444795D01*
X14181776Y-13197176D02*
X14200824Y-13197176D01*
X14219871Y-13206700D01*
X14229395Y-13216224D01*
X14238919Y-13235271D01*
X14248443Y-13273367D01*
X14248443Y-13320986D01*
X14238919Y-13359081D01*
X14229395Y-13378128D01*
X14219871Y-13387652D01*
X14200824Y-13397176D01*
X14181776Y-13397176D01*
X14162728Y-13387652D01*
X14153205Y-13378128D01*
X14143681Y-13359081D01*
X14134157Y-13320986D01*
X14134157Y-13273367D01*
X14143681Y-13235271D01*
X14153205Y-13216224D01*
X14162728Y-13206700D01*
X14181776Y-13197176D01*
X14334157Y-13378128D02*
X14343681Y-13387652D01*
X14334157Y-13397176D01*
X14324633Y-13387652D01*
X14334157Y-13378128D01*
X14334157Y-13397176D01*
X14467490Y-13197176D02*
X14486538Y-13197176D01*
X14505586Y-13206700D01*
X14515109Y-13216224D01*
X14524633Y-13235271D01*
X14534157Y-13273367D01*
X14534157Y-13320986D01*
X14524633Y-13359081D01*
X14515109Y-13378128D01*
X14505586Y-13387652D01*
X14486538Y-13397176D01*
X14467490Y-13397176D01*
X14448443Y-13387652D01*
X14438919Y-13378128D01*
X14429395Y-13359081D01*
X14419871Y-13320986D01*
X14419871Y-13273367D01*
X14429395Y-13235271D01*
X14438919Y-13216224D01*
X14448443Y-13206700D01*
X14467490Y-13197176D01*
X14610348Y-13216224D02*
X14619871Y-13206700D01*
X14638919Y-13197176D01*
X14686538Y-13197176D01*
X14705586Y-13206700D01*
X14715109Y-13216224D01*
X14724633Y-13235271D01*
X14724633Y-13254319D01*
X14715109Y-13282890D01*
X14600824Y-13397176D01*
X14724633Y-13397176D01*
X14838919Y-13282890D02*
X14819871Y-13273367D01*
X14810348Y-13263843D01*
X14800824Y-13244795D01*
X14800824Y-13235271D01*
X14810348Y-13216224D01*
X14819871Y-13206700D01*
X14838919Y-13197176D01*
X14877014Y-13197176D01*
X14896062Y-13206700D01*
X14905586Y-13216224D01*
X14915109Y-13235271D01*
X14915109Y-13244795D01*
X14905586Y-13263843D01*
X14896062Y-13273367D01*
X14877014Y-13282890D01*
X14838919Y-13282890D01*
X14819871Y-13292414D01*
X14810348Y-13301938D01*
X14800824Y-13320986D01*
X14800824Y-13359081D01*
X14810348Y-13378128D01*
X14819871Y-13387652D01*
X14838919Y-13397176D01*
X14877014Y-13397176D01*
X14896062Y-13387652D01*
X14905586Y-13378128D01*
X14915109Y-13359081D01*
X14915109Y-13320986D01*
X14905586Y-13301938D01*
X14896062Y-13292414D01*
X14877014Y-13282890D01*
X14981776Y-13197176D02*
X15115109Y-13197176D01*
X15029395Y-13397176D01*
X15181776Y-13197176D02*
X15181776Y-13235271D01*
X15257967Y-13197176D02*
X15257967Y-13235271D01*
X15553205Y-13473367D02*
X15543681Y-13463843D01*
X15524633Y-13435271D01*
X15515109Y-13416224D01*
X15505586Y-13387652D01*
X15496062Y-13340033D01*
X15496062Y-13301938D01*
X15505586Y-13254319D01*
X15515109Y-13225748D01*
X15524633Y-13206700D01*
X15543681Y-13178128D01*
X15553205Y-13168605D01*
X15715109Y-13263843D02*
X15715109Y-13397176D01*
X15667490Y-13187652D02*
X15619871Y-13330509D01*
X15743681Y-13330509D01*
X15857967Y-13197176D02*
X15877014Y-13197176D01*
X15896062Y-13206700D01*
X15905586Y-13216224D01*
X15915109Y-13235271D01*
X15924633Y-13273367D01*
X15924633Y-13320986D01*
X15915109Y-13359081D01*
X15905586Y-13378128D01*
X15896062Y-13387652D01*
X15877014Y-13397176D01*
X15857967Y-13397176D01*
X15838919Y-13387652D01*
X15829395Y-13378128D01*
X15819871Y-13359081D01*
X15810348Y-13320986D01*
X15810348Y-13273367D01*
X15819871Y-13235271D01*
X15829395Y-13216224D01*
X15838919Y-13206700D01*
X15857967Y-13197176D01*
X16162728Y-13397176D02*
X16162728Y-13197176D01*
X16248443Y-13397176D02*
X16248443Y-13292414D01*
X16238919Y-13273367D01*
X16219871Y-13263843D01*
X16191300Y-13263843D01*
X16172252Y-13273367D01*
X16162728Y-13282890D01*
X16372252Y-13397176D02*
X16353205Y-13387652D01*
X16343681Y-13378128D01*
X16334157Y-13359081D01*
X16334157Y-13301938D01*
X16343681Y-13282890D01*
X16353205Y-13273367D01*
X16372252Y-13263843D01*
X16400824Y-13263843D01*
X16419871Y-13273367D01*
X16429395Y-13282890D01*
X16438919Y-13301938D01*
X16438919Y-13359081D01*
X16429395Y-13378128D01*
X16419871Y-13387652D01*
X16400824Y-13397176D01*
X16372252Y-13397176D01*
X16553205Y-13397176D02*
X16534157Y-13387652D01*
X16524633Y-13368605D01*
X16524633Y-13197176D01*
X16705586Y-13387652D02*
X16686538Y-13397176D01*
X16648443Y-13397176D01*
X16629395Y-13387652D01*
X16619871Y-13368605D01*
X16619871Y-13292414D01*
X16629395Y-13273367D01*
X16648443Y-13263843D01*
X16686538Y-13263843D01*
X16705586Y-13273367D01*
X16715109Y-13292414D01*
X16715109Y-13311462D01*
X16619871Y-13330509D01*
X16791300Y-13387652D02*
X16810348Y-13397176D01*
X16848443Y-13397176D01*
X16867490Y-13387652D01*
X16877014Y-13368605D01*
X16877014Y-13359081D01*
X16867490Y-13340033D01*
X16848443Y-13330509D01*
X16819871Y-13330509D01*
X16800824Y-13320986D01*
X16791300Y-13301938D01*
X16791300Y-13292414D01*
X16800824Y-13273367D01*
X16819871Y-13263843D01*
X16848443Y-13263843D01*
X16867490Y-13273367D01*
X16943681Y-13473367D02*
X16953205Y-13463843D01*
X16972252Y-13435271D01*
X16981776Y-13416224D01*
X16991300Y-13387652D01*
X17000824Y-13340033D01*
X17000824Y-13301938D01*
X16991300Y-13254319D01*
X16981776Y-13225748D01*
X16972252Y-13206700D01*
X16953205Y-13178128D01*
X16943681Y-13168605D01*
D14*
X11941300Y-13530700D02*
X11941300Y-13610700D01*
X11901300Y-13570700D02*
X11981300Y-13570700D01*
D11*
X12277014Y-13461176D02*
X12296062Y-13461176D01*
X12315109Y-13470700D01*
X12324633Y-13480224D01*
X12334157Y-13499271D01*
X12343681Y-13537367D01*
X12343681Y-13584986D01*
X12334157Y-13623081D01*
X12324633Y-13642128D01*
X12315109Y-13651652D01*
X12296062Y-13661176D01*
X12277014Y-13661176D01*
X12257967Y-13651652D01*
X12248443Y-13642128D01*
X12238919Y-13623081D01*
X12229395Y-13584986D01*
X12229395Y-13537367D01*
X12238919Y-13499271D01*
X12248443Y-13480224D01*
X12257967Y-13470700D01*
X12277014Y-13461176D01*
X12429395Y-13642128D02*
X12438919Y-13651652D01*
X12429395Y-13661176D01*
X12419871Y-13651652D01*
X12429395Y-13642128D01*
X12429395Y-13661176D01*
X12553205Y-13546890D02*
X12534157Y-13537367D01*
X12524633Y-13527843D01*
X12515109Y-13508795D01*
X12515109Y-13499271D01*
X12524633Y-13480224D01*
X12534157Y-13470700D01*
X12553205Y-13461176D01*
X12591300Y-13461176D01*
X12610348Y-13470700D01*
X12619871Y-13480224D01*
X12629395Y-13499271D01*
X12629395Y-13508795D01*
X12619871Y-13527843D01*
X12610348Y-13537367D01*
X12591300Y-13546890D01*
X12553205Y-13546890D01*
X12534157Y-13556414D01*
X12524633Y-13565938D01*
X12515109Y-13584986D01*
X12515109Y-13623081D01*
X12524633Y-13642128D01*
X12534157Y-13651652D01*
X12553205Y-13661176D01*
X12591300Y-13661176D01*
X12610348Y-13651652D01*
X12619871Y-13642128D01*
X12629395Y-13623081D01*
X12629395Y-13584986D01*
X12619871Y-13565938D01*
X12610348Y-13556414D01*
X12591300Y-13546890D01*
X12753205Y-13461176D02*
X12772252Y-13461176D01*
X12791300Y-13470700D01*
X12800824Y-13480224D01*
X12810348Y-13499271D01*
X12819871Y-13537367D01*
X12819871Y-13584986D01*
X12810348Y-13623081D01*
X12800824Y-13642128D01*
X12791300Y-13651652D01*
X12772252Y-13661176D01*
X12753205Y-13661176D01*
X12734157Y-13651652D01*
X12724633Y-13642128D01*
X12715109Y-13623081D01*
X12705586Y-13584986D01*
X12705586Y-13537367D01*
X12715109Y-13499271D01*
X12724633Y-13480224D01*
X12734157Y-13470700D01*
X12753205Y-13461176D01*
X12943681Y-13461176D02*
X12962728Y-13461176D01*
X12981776Y-13470700D01*
X12991300Y-13480224D01*
X13000824Y-13499271D01*
X13010348Y-13537367D01*
X13010348Y-13584986D01*
X13000824Y-13623081D01*
X12991300Y-13642128D01*
X12981776Y-13651652D01*
X12962728Y-13661176D01*
X12943681Y-13661176D01*
X12924633Y-13651652D01*
X12915109Y-13642128D01*
X12905586Y-13623081D01*
X12896062Y-13584986D01*
X12896062Y-13537367D01*
X12905586Y-13499271D01*
X12915109Y-13480224D01*
X12924633Y-13470700D01*
X12943681Y-13461176D01*
X13096062Y-13661176D02*
X13096062Y-13527843D01*
X13096062Y-13546890D02*
X13105586Y-13537367D01*
X13124633Y-13527843D01*
X13153205Y-13527843D01*
X13172252Y-13537367D01*
X13181776Y-13556414D01*
X13181776Y-13661176D01*
X13181776Y-13556414D02*
X13191300Y-13537367D01*
X13210348Y-13527843D01*
X13238919Y-13527843D01*
X13257967Y-13537367D01*
X13267490Y-13556414D01*
X13267490Y-13661176D01*
X13362728Y-13661176D02*
X13362728Y-13527843D01*
X13362728Y-13546890D02*
X13372252Y-13537367D01*
X13391300Y-13527843D01*
X13419871Y-13527843D01*
X13438919Y-13537367D01*
X13448443Y-13556414D01*
X13448443Y-13661176D01*
X13448443Y-13556414D02*
X13457967Y-13537367D01*
X13477014Y-13527843D01*
X13505586Y-13527843D01*
X13524633Y-13537367D01*
X13534157Y-13556414D01*
X13534157Y-13661176D01*
X13924633Y-13451652D02*
X13753205Y-13708795D01*
X14181776Y-13461176D02*
X14200824Y-13461176D01*
X14219871Y-13470700D01*
X14229395Y-13480224D01*
X14238919Y-13499271D01*
X14248443Y-13537367D01*
X14248443Y-13584986D01*
X14238919Y-13623081D01*
X14229395Y-13642128D01*
X14219871Y-13651652D01*
X14200824Y-13661176D01*
X14181776Y-13661176D01*
X14162728Y-13651652D01*
X14153205Y-13642128D01*
X14143681Y-13623081D01*
X14134157Y-13584986D01*
X14134157Y-13537367D01*
X14143681Y-13499271D01*
X14153205Y-13480224D01*
X14162728Y-13470700D01*
X14181776Y-13461176D01*
X14334157Y-13642128D02*
X14343681Y-13651652D01*
X14334157Y-13661176D01*
X14324633Y-13651652D01*
X14334157Y-13642128D01*
X14334157Y-13661176D01*
X14467490Y-13461176D02*
X14486538Y-13461176D01*
X14505586Y-13470700D01*
X14515109Y-13480224D01*
X14524633Y-13499271D01*
X14534157Y-13537367D01*
X14534157Y-13584986D01*
X14524633Y-13623081D01*
X14515109Y-13642128D01*
X14505586Y-13651652D01*
X14486538Y-13661176D01*
X14467490Y-13661176D01*
X14448443Y-13651652D01*
X14438919Y-13642128D01*
X14429395Y-13623081D01*
X14419871Y-13584986D01*
X14419871Y-13537367D01*
X14429395Y-13499271D01*
X14438919Y-13480224D01*
X14448443Y-13470700D01*
X14467490Y-13461176D01*
X14600824Y-13461176D02*
X14724633Y-13461176D01*
X14657967Y-13537367D01*
X14686538Y-13537367D01*
X14705586Y-13546890D01*
X14715109Y-13556414D01*
X14724633Y-13575462D01*
X14724633Y-13623081D01*
X14715109Y-13642128D01*
X14705586Y-13651652D01*
X14686538Y-13661176D01*
X14629395Y-13661176D01*
X14610348Y-13651652D01*
X14600824Y-13642128D01*
X14915109Y-13661176D02*
X14800824Y-13661176D01*
X14857967Y-13661176D02*
X14857967Y-13461176D01*
X14838919Y-13489748D01*
X14819871Y-13508795D01*
X14800824Y-13518319D01*
X15096062Y-13461176D02*
X15000824Y-13461176D01*
X14991300Y-13556414D01*
X15000824Y-13546890D01*
X15019871Y-13537367D01*
X15067490Y-13537367D01*
X15086538Y-13546890D01*
X15096062Y-13556414D01*
X15105586Y-13575462D01*
X15105586Y-13623081D01*
X15096062Y-13642128D01*
X15086538Y-13651652D01*
X15067490Y-13661176D01*
X15019871Y-13661176D01*
X15000824Y-13651652D01*
X14991300Y-13642128D01*
X15181776Y-13461176D02*
X15181776Y-13499271D01*
X15257967Y-13461176D02*
X15257967Y-13499271D01*
X15553205Y-13737367D02*
X15543681Y-13727843D01*
X15524633Y-13699271D01*
X15515109Y-13680224D01*
X15505586Y-13651652D01*
X15496062Y-13604033D01*
X15496062Y-13565938D01*
X15505586Y-13518319D01*
X15515109Y-13489748D01*
X15524633Y-13470700D01*
X15543681Y-13442128D01*
X15553205Y-13432605D01*
X15734157Y-13661176D02*
X15619871Y-13661176D01*
X15677014Y-13661176D02*
X15677014Y-13461176D01*
X15657967Y-13489748D01*
X15638919Y-13508795D01*
X15619871Y-13518319D01*
X15905586Y-13527843D02*
X15905586Y-13661176D01*
X15857967Y-13451652D02*
X15810348Y-13594509D01*
X15934157Y-13594509D01*
X16162728Y-13661176D02*
X16162728Y-13461176D01*
X16248443Y-13661176D02*
X16248443Y-13556414D01*
X16238919Y-13537367D01*
X16219871Y-13527843D01*
X16191300Y-13527843D01*
X16172252Y-13537367D01*
X16162728Y-13546890D01*
X16372252Y-13661176D02*
X16353205Y-13651652D01*
X16343681Y-13642128D01*
X16334157Y-13623081D01*
X16334157Y-13565938D01*
X16343681Y-13546890D01*
X16353205Y-13537367D01*
X16372252Y-13527843D01*
X16400824Y-13527843D01*
X16419871Y-13537367D01*
X16429395Y-13546890D01*
X16438919Y-13565938D01*
X16438919Y-13623081D01*
X16429395Y-13642128D01*
X16419871Y-13651652D01*
X16400824Y-13661176D01*
X16372252Y-13661176D01*
X16553205Y-13661176D02*
X16534157Y-13651652D01*
X16524633Y-13632605D01*
X16524633Y-13461176D01*
X16705586Y-13651652D02*
X16686538Y-13661176D01*
X16648443Y-13661176D01*
X16629395Y-13651652D01*
X16619871Y-13632605D01*
X16619871Y-13556414D01*
X16629395Y-13537367D01*
X16648443Y-13527843D01*
X16686538Y-13527843D01*
X16705586Y-13537367D01*
X16715109Y-13556414D01*
X16715109Y-13575462D01*
X16619871Y-13594509D01*
X16791300Y-13651652D02*
X16810348Y-13661176D01*
X16848443Y-13661176D01*
X16867490Y-13651652D01*
X16877014Y-13632605D01*
X16877014Y-13623081D01*
X16867490Y-13604033D01*
X16848443Y-13594509D01*
X16819871Y-13594509D01*
X16800824Y-13584986D01*
X16791300Y-13565938D01*
X16791300Y-13556414D01*
X16800824Y-13537367D01*
X16819871Y-13527843D01*
X16848443Y-13527843D01*
X16867490Y-13537367D01*
X16943681Y-13737367D02*
X16953205Y-13727843D01*
X16972252Y-13699271D01*
X16981776Y-13680224D01*
X16991300Y-13651652D01*
X17000824Y-13604033D01*
X17000824Y-13565938D01*
X16991300Y-13518319D01*
X16981776Y-13489748D01*
X16972252Y-13470700D01*
X16953205Y-13442128D01*
X16943681Y-13432605D01*
D15*
X11968120Y-13866520D02*
X11968120Y-13802880D01*
X11904480Y-13802880D01*
X11904480Y-13866520D01*
X11968120Y-13866520D01*
D11*
X12277014Y-13725176D02*
X12296062Y-13725176D01*
X12315109Y-13734700D01*
X12324633Y-13744224D01*
X12334157Y-13763271D01*
X12343681Y-13801367D01*
X12343681Y-13848986D01*
X12334157Y-13887081D01*
X12324633Y-13906128D01*
X12315109Y-13915652D01*
X12296062Y-13925176D01*
X12277014Y-13925176D01*
X12257967Y-13915652D01*
X12248443Y-13906128D01*
X12238919Y-13887081D01*
X12229395Y-13848986D01*
X12229395Y-13801367D01*
X12238919Y-13763271D01*
X12248443Y-13744224D01*
X12257967Y-13734700D01*
X12277014Y-13725176D01*
X12429395Y-13906128D02*
X12438919Y-13915652D01*
X12429395Y-13925176D01*
X12419871Y-13915652D01*
X12429395Y-13906128D01*
X12429395Y-13925176D01*
X12534157Y-13925176D02*
X12572252Y-13925176D01*
X12591300Y-13915652D01*
X12600824Y-13906128D01*
X12619871Y-13877557D01*
X12629395Y-13839462D01*
X12629395Y-13763271D01*
X12619871Y-13744224D01*
X12610348Y-13734700D01*
X12591300Y-13725176D01*
X12553205Y-13725176D01*
X12534157Y-13734700D01*
X12524633Y-13744224D01*
X12515109Y-13763271D01*
X12515109Y-13810890D01*
X12524633Y-13829938D01*
X12534157Y-13839462D01*
X12553205Y-13848986D01*
X12591300Y-13848986D01*
X12610348Y-13839462D01*
X12619871Y-13829938D01*
X12629395Y-13810890D01*
X12753205Y-13725176D02*
X12772252Y-13725176D01*
X12791300Y-13734700D01*
X12800824Y-13744224D01*
X12810348Y-13763271D01*
X12819871Y-13801367D01*
X12819871Y-13848986D01*
X12810348Y-13887081D01*
X12800824Y-13906128D01*
X12791300Y-13915652D01*
X12772252Y-13925176D01*
X12753205Y-13925176D01*
X12734157Y-13915652D01*
X12724633Y-13906128D01*
X12715109Y-13887081D01*
X12705586Y-13848986D01*
X12705586Y-13801367D01*
X12715109Y-13763271D01*
X12724633Y-13744224D01*
X12734157Y-13734700D01*
X12753205Y-13725176D01*
X12943681Y-13725176D02*
X12962728Y-13725176D01*
X12981776Y-13734700D01*
X12991300Y-13744224D01*
X13000824Y-13763271D01*
X13010348Y-13801367D01*
X13010348Y-13848986D01*
X13000824Y-13887081D01*
X12991300Y-13906128D01*
X12981776Y-13915652D01*
X12962728Y-13925176D01*
X12943681Y-13925176D01*
X12924633Y-13915652D01*
X12915109Y-13906128D01*
X12905586Y-13887081D01*
X12896062Y-13848986D01*
X12896062Y-13801367D01*
X12905586Y-13763271D01*
X12915109Y-13744224D01*
X12924633Y-13734700D01*
X12943681Y-13725176D01*
X13096062Y-13925176D02*
X13096062Y-13791843D01*
X13096062Y-13810890D02*
X13105586Y-13801367D01*
X13124633Y-13791843D01*
X13153205Y-13791843D01*
X13172252Y-13801367D01*
X13181776Y-13820414D01*
X13181776Y-13925176D01*
X13181776Y-13820414D02*
X13191300Y-13801367D01*
X13210348Y-13791843D01*
X13238919Y-13791843D01*
X13257967Y-13801367D01*
X13267490Y-13820414D01*
X13267490Y-13925176D01*
X13362728Y-13925176D02*
X13362728Y-13791843D01*
X13362728Y-13810890D02*
X13372252Y-13801367D01*
X13391300Y-13791843D01*
X13419871Y-13791843D01*
X13438919Y-13801367D01*
X13448443Y-13820414D01*
X13448443Y-13925176D01*
X13448443Y-13820414D02*
X13457967Y-13801367D01*
X13477014Y-13791843D01*
X13505586Y-13791843D01*
X13524633Y-13801367D01*
X13534157Y-13820414D01*
X13534157Y-13925176D01*
X13924633Y-13715652D02*
X13753205Y-13972795D01*
X14181776Y-13725176D02*
X14200824Y-13725176D01*
X14219871Y-13734700D01*
X14229395Y-13744224D01*
X14238919Y-13763271D01*
X14248443Y-13801367D01*
X14248443Y-13848986D01*
X14238919Y-13887081D01*
X14229395Y-13906128D01*
X14219871Y-13915652D01*
X14200824Y-13925176D01*
X14181776Y-13925176D01*
X14162728Y-13915652D01*
X14153205Y-13906128D01*
X14143681Y-13887081D01*
X14134157Y-13848986D01*
X14134157Y-13801367D01*
X14143681Y-13763271D01*
X14153205Y-13744224D01*
X14162728Y-13734700D01*
X14181776Y-13725176D01*
X14334157Y-13906128D02*
X14343681Y-13915652D01*
X14334157Y-13925176D01*
X14324633Y-13915652D01*
X14334157Y-13906128D01*
X14334157Y-13925176D01*
X14467490Y-13725176D02*
X14486538Y-13725176D01*
X14505586Y-13734700D01*
X14515109Y-13744224D01*
X14524633Y-13763271D01*
X14534157Y-13801367D01*
X14534157Y-13848986D01*
X14524633Y-13887081D01*
X14515109Y-13906128D01*
X14505586Y-13915652D01*
X14486538Y-13925176D01*
X14467490Y-13925176D01*
X14448443Y-13915652D01*
X14438919Y-13906128D01*
X14429395Y-13887081D01*
X14419871Y-13848986D01*
X14419871Y-13801367D01*
X14429395Y-13763271D01*
X14438919Y-13744224D01*
X14448443Y-13734700D01*
X14467490Y-13725176D01*
X14600824Y-13725176D02*
X14724633Y-13725176D01*
X14657967Y-13801367D01*
X14686538Y-13801367D01*
X14705586Y-13810890D01*
X14715109Y-13820414D01*
X14724633Y-13839462D01*
X14724633Y-13887081D01*
X14715109Y-13906128D01*
X14705586Y-13915652D01*
X14686538Y-13925176D01*
X14629395Y-13925176D01*
X14610348Y-13915652D01*
X14600824Y-13906128D01*
X14905586Y-13725176D02*
X14810348Y-13725176D01*
X14800824Y-13820414D01*
X14810348Y-13810890D01*
X14829395Y-13801367D01*
X14877014Y-13801367D01*
X14896062Y-13810890D01*
X14905586Y-13820414D01*
X14915109Y-13839462D01*
X14915109Y-13887081D01*
X14905586Y-13906128D01*
X14896062Y-13915652D01*
X14877014Y-13925176D01*
X14829395Y-13925176D01*
X14810348Y-13915652D01*
X14800824Y-13906128D01*
X15086538Y-13791843D02*
X15086538Y-13925176D01*
X15038919Y-13715652D02*
X14991300Y-13858509D01*
X15115109Y-13858509D01*
X15181776Y-13725176D02*
X15181776Y-13763271D01*
X15257967Y-13725176D02*
X15257967Y-13763271D01*
X15553205Y-14001367D02*
X15543681Y-13991843D01*
X15524633Y-13963271D01*
X15515109Y-13944224D01*
X15505586Y-13915652D01*
X15496062Y-13868033D01*
X15496062Y-13829938D01*
X15505586Y-13782319D01*
X15515109Y-13753748D01*
X15524633Y-13734700D01*
X15543681Y-13706128D01*
X15553205Y-13696605D01*
X15619871Y-13744224D02*
X15629395Y-13734700D01*
X15648443Y-13725176D01*
X15696062Y-13725176D01*
X15715109Y-13734700D01*
X15724633Y-13744224D01*
X15734157Y-13763271D01*
X15734157Y-13782319D01*
X15724633Y-13810890D01*
X15610348Y-13925176D01*
X15734157Y-13925176D01*
X15972252Y-13925176D02*
X15972252Y-13725176D01*
X16057967Y-13925176D02*
X16057967Y-13820414D01*
X16048443Y-13801367D01*
X16029395Y-13791843D01*
X16000824Y-13791843D01*
X15981776Y-13801367D01*
X15972252Y-13810890D01*
X16181776Y-13925176D02*
X16162728Y-13915652D01*
X16153205Y-13906128D01*
X16143681Y-13887081D01*
X16143681Y-13829938D01*
X16153205Y-13810890D01*
X16162728Y-13801367D01*
X16181776Y-13791843D01*
X16210348Y-13791843D01*
X16229395Y-13801367D01*
X16238919Y-13810890D01*
X16248443Y-13829938D01*
X16248443Y-13887081D01*
X16238919Y-13906128D01*
X16229395Y-13915652D01*
X16210348Y-13925176D01*
X16181776Y-13925176D01*
X16362728Y-13925176D02*
X16343681Y-13915652D01*
X16334157Y-13896605D01*
X16334157Y-13725176D01*
X16515109Y-13915652D02*
X16496062Y-13925176D01*
X16457967Y-13925176D01*
X16438919Y-13915652D01*
X16429395Y-13896605D01*
X16429395Y-13820414D01*
X16438919Y-13801367D01*
X16457967Y-13791843D01*
X16496062Y-13791843D01*
X16515109Y-13801367D01*
X16524633Y-13820414D01*
X16524633Y-13839462D01*
X16429395Y-13858509D01*
X16600824Y-13915652D02*
X16619871Y-13925176D01*
X16657967Y-13925176D01*
X16677014Y-13915652D01*
X16686538Y-13896605D01*
X16686538Y-13887081D01*
X16677014Y-13868033D01*
X16657967Y-13858509D01*
X16629395Y-13858509D01*
X16610348Y-13848986D01*
X16600824Y-13829938D01*
X16600824Y-13820414D01*
X16610348Y-13801367D01*
X16629395Y-13791843D01*
X16657967Y-13791843D01*
X16677014Y-13801367D01*
X16753205Y-14001367D02*
X16762728Y-13991843D01*
X16781776Y-13963271D01*
X16791300Y-13944224D01*
X16800824Y-13915652D01*
X16810348Y-13868033D01*
X16810348Y-13829938D01*
X16800824Y-13782319D01*
X16791300Y-13753748D01*
X16781776Y-13734700D01*
X16762728Y-13706128D01*
X16753205Y-13696605D01*
D16*
X11931300Y-14148700D02*
X11981300Y-14098700D01*
X11931300Y-14048700D01*
X11881300Y-14098700D01*
X11931300Y-14148700D01*
D11*
X12343681Y-14189176D02*
X12229395Y-14189176D01*
X12286538Y-14189176D02*
X12286538Y-13989176D01*
X12267490Y-14017748D01*
X12248443Y-14036795D01*
X12229395Y-14046319D01*
X12429395Y-14170128D02*
X12438919Y-14179652D01*
X12429395Y-14189176D01*
X12419871Y-14179652D01*
X12429395Y-14170128D01*
X12429395Y-14189176D01*
X12562728Y-13989176D02*
X12581776Y-13989176D01*
X12600824Y-13998700D01*
X12610348Y-14008224D01*
X12619871Y-14027271D01*
X12629395Y-14065367D01*
X12629395Y-14112986D01*
X12619871Y-14151081D01*
X12610348Y-14170128D01*
X12600824Y-14179652D01*
X12581776Y-14189176D01*
X12562728Y-14189176D01*
X12543681Y-14179652D01*
X12534157Y-14170128D01*
X12524633Y-14151081D01*
X12515109Y-14112986D01*
X12515109Y-14065367D01*
X12524633Y-14027271D01*
X12534157Y-14008224D01*
X12543681Y-13998700D01*
X12562728Y-13989176D01*
X12753205Y-13989176D02*
X12772252Y-13989176D01*
X12791300Y-13998700D01*
X12800824Y-14008224D01*
X12810348Y-14027271D01*
X12819871Y-14065367D01*
X12819871Y-14112986D01*
X12810348Y-14151081D01*
X12800824Y-14170128D01*
X12791300Y-14179652D01*
X12772252Y-14189176D01*
X12753205Y-14189176D01*
X12734157Y-14179652D01*
X12724633Y-14170128D01*
X12715109Y-14151081D01*
X12705586Y-14112986D01*
X12705586Y-14065367D01*
X12715109Y-14027271D01*
X12724633Y-14008224D01*
X12734157Y-13998700D01*
X12753205Y-13989176D01*
X12943681Y-13989176D02*
X12962728Y-13989176D01*
X12981776Y-13998700D01*
X12991300Y-14008224D01*
X13000824Y-14027271D01*
X13010348Y-14065367D01*
X13010348Y-14112986D01*
X13000824Y-14151081D01*
X12991300Y-14170128D01*
X12981776Y-14179652D01*
X12962728Y-14189176D01*
X12943681Y-14189176D01*
X12924633Y-14179652D01*
X12915109Y-14170128D01*
X12905586Y-14151081D01*
X12896062Y-14112986D01*
X12896062Y-14065367D01*
X12905586Y-14027271D01*
X12915109Y-14008224D01*
X12924633Y-13998700D01*
X12943681Y-13989176D01*
X13096062Y-14189176D02*
X13096062Y-14055843D01*
X13096062Y-14074890D02*
X13105586Y-14065367D01*
X13124633Y-14055843D01*
X13153205Y-14055843D01*
X13172252Y-14065367D01*
X13181776Y-14084414D01*
X13181776Y-14189176D01*
X13181776Y-14084414D02*
X13191300Y-14065367D01*
X13210348Y-14055843D01*
X13238919Y-14055843D01*
X13257967Y-14065367D01*
X13267490Y-14084414D01*
X13267490Y-14189176D01*
X13362728Y-14189176D02*
X13362728Y-14055843D01*
X13362728Y-14074890D02*
X13372252Y-14065367D01*
X13391300Y-14055843D01*
X13419871Y-14055843D01*
X13438919Y-14065367D01*
X13448443Y-14084414D01*
X13448443Y-14189176D01*
X13448443Y-14084414D02*
X13457967Y-14065367D01*
X13477014Y-14055843D01*
X13505586Y-14055843D01*
X13524633Y-14065367D01*
X13534157Y-14084414D01*
X13534157Y-14189176D01*
X13924633Y-13979652D02*
X13753205Y-14236795D01*
X14181776Y-13989176D02*
X14200824Y-13989176D01*
X14219871Y-13998700D01*
X14229395Y-14008224D01*
X14238919Y-14027271D01*
X14248443Y-14065367D01*
X14248443Y-14112986D01*
X14238919Y-14151081D01*
X14229395Y-14170128D01*
X14219871Y-14179652D01*
X14200824Y-14189176D01*
X14181776Y-14189176D01*
X14162728Y-14179652D01*
X14153205Y-14170128D01*
X14143681Y-14151081D01*
X14134157Y-14112986D01*
X14134157Y-14065367D01*
X14143681Y-14027271D01*
X14153205Y-14008224D01*
X14162728Y-13998700D01*
X14181776Y-13989176D01*
X14334157Y-14170128D02*
X14343681Y-14179652D01*
X14334157Y-14189176D01*
X14324633Y-14179652D01*
X14334157Y-14170128D01*
X14334157Y-14189176D01*
X14467490Y-13989176D02*
X14486538Y-13989176D01*
X14505586Y-13998700D01*
X14515109Y-14008224D01*
X14524633Y-14027271D01*
X14534157Y-14065367D01*
X14534157Y-14112986D01*
X14524633Y-14151081D01*
X14515109Y-14170128D01*
X14505586Y-14179652D01*
X14486538Y-14189176D01*
X14467490Y-14189176D01*
X14448443Y-14179652D01*
X14438919Y-14170128D01*
X14429395Y-14151081D01*
X14419871Y-14112986D01*
X14419871Y-14065367D01*
X14429395Y-14027271D01*
X14438919Y-14008224D01*
X14448443Y-13998700D01*
X14467490Y-13989176D01*
X14600824Y-13989176D02*
X14724633Y-13989176D01*
X14657967Y-14065367D01*
X14686538Y-14065367D01*
X14705586Y-14074890D01*
X14715109Y-14084414D01*
X14724633Y-14103462D01*
X14724633Y-14151081D01*
X14715109Y-14170128D01*
X14705586Y-14179652D01*
X14686538Y-14189176D01*
X14629395Y-14189176D01*
X14610348Y-14179652D01*
X14600824Y-14170128D01*
X14819871Y-14189176D02*
X14857967Y-14189176D01*
X14877014Y-14179652D01*
X14886538Y-14170128D01*
X14905586Y-14141557D01*
X14915109Y-14103462D01*
X14915109Y-14027271D01*
X14905586Y-14008224D01*
X14896062Y-13998700D01*
X14877014Y-13989176D01*
X14838919Y-13989176D01*
X14819871Y-13998700D01*
X14810348Y-14008224D01*
X14800824Y-14027271D01*
X14800824Y-14074890D01*
X14810348Y-14093938D01*
X14819871Y-14103462D01*
X14838919Y-14112986D01*
X14877014Y-14112986D01*
X14896062Y-14103462D01*
X14905586Y-14093938D01*
X14915109Y-14074890D01*
X15086538Y-14055843D02*
X15086538Y-14189176D01*
X15038919Y-13979652D02*
X14991300Y-14122509D01*
X15115109Y-14122509D01*
X15181776Y-13989176D02*
X15181776Y-14027271D01*
X15257967Y-13989176D02*
X15257967Y-14027271D01*
X15553205Y-14265367D02*
X15543681Y-14255843D01*
X15524633Y-14227271D01*
X15515109Y-14208224D01*
X15505586Y-14179652D01*
X15496062Y-14132033D01*
X15496062Y-14093938D01*
X15505586Y-14046319D01*
X15515109Y-14017748D01*
X15524633Y-13998700D01*
X15543681Y-13970128D01*
X15553205Y-13960605D01*
X15619871Y-14008224D02*
X15629395Y-13998700D01*
X15648443Y-13989176D01*
X15696062Y-13989176D01*
X15715109Y-13998700D01*
X15724633Y-14008224D01*
X15734157Y-14027271D01*
X15734157Y-14046319D01*
X15724633Y-14074890D01*
X15610348Y-14189176D01*
X15734157Y-14189176D01*
X15905586Y-14055843D02*
X15905586Y-14189176D01*
X15857967Y-13979652D02*
X15810348Y-14122509D01*
X15934157Y-14122509D01*
X16162728Y-14189176D02*
X16162728Y-13989176D01*
X16248443Y-14189176D02*
X16248443Y-14084414D01*
X16238919Y-14065367D01*
X16219871Y-14055843D01*
X16191300Y-14055843D01*
X16172252Y-14065367D01*
X16162728Y-14074890D01*
X16372252Y-14189176D02*
X16353205Y-14179652D01*
X16343681Y-14170128D01*
X16334157Y-14151081D01*
X16334157Y-14093938D01*
X16343681Y-14074890D01*
X16353205Y-14065367D01*
X16372252Y-14055843D01*
X16400824Y-14055843D01*
X16419871Y-14065367D01*
X16429395Y-14074890D01*
X16438919Y-14093938D01*
X16438919Y-14151081D01*
X16429395Y-14170128D01*
X16419871Y-14179652D01*
X16400824Y-14189176D01*
X16372252Y-14189176D01*
X16553205Y-14189176D02*
X16534157Y-14179652D01*
X16524633Y-14160605D01*
X16524633Y-13989176D01*
X16705586Y-14179652D02*
X16686538Y-14189176D01*
X16648443Y-14189176D01*
X16629395Y-14179652D01*
X16619871Y-14160605D01*
X16619871Y-14084414D01*
X16629395Y-14065367D01*
X16648443Y-14055843D01*
X16686538Y-14055843D01*
X16705586Y-14065367D01*
X16715109Y-14084414D01*
X16715109Y-14103462D01*
X16619871Y-14122509D01*
X16791300Y-14179652D02*
X16810348Y-14189176D01*
X16848443Y-14189176D01*
X16867490Y-14179652D01*
X16877014Y-14160605D01*
X16877014Y-14151081D01*
X16867490Y-14132033D01*
X16848443Y-14122509D01*
X16819871Y-14122509D01*
X16800824Y-14112986D01*
X16791300Y-14093938D01*
X16791300Y-14084414D01*
X16800824Y-14065367D01*
X16819871Y-14055843D01*
X16848443Y-14055843D01*
X16867490Y-14065367D01*
X16943681Y-14265367D02*
X16953205Y-14255843D01*
X16972252Y-14227271D01*
X16981776Y-14208224D01*
X16991300Y-14179652D01*
X17000824Y-14132033D01*
X17000824Y-14093938D01*
X16991300Y-14046319D01*
X16981776Y-14017748D01*
X16972252Y-13998700D01*
X16953205Y-13970128D01*
X16943681Y-13960605D01*
D17*
X11879700Y-14311900D02*
X11981300Y-14413500D01*
X11981300Y-14311900D02*
X11879700Y-14413500D01*
X11981300Y-14362700D02*
G75*
G03*
X11981300Y-14362700I-50800J0D01*
G01*
D11*
X12343681Y-14453176D02*
X12229395Y-14453176D01*
X12286538Y-14453176D02*
X12286538Y-14253176D01*
X12267490Y-14281748D01*
X12248443Y-14300795D01*
X12229395Y-14310319D01*
X12429395Y-14434128D02*
X12438919Y-14443652D01*
X12429395Y-14453176D01*
X12419871Y-14443652D01*
X12429395Y-14434128D01*
X12429395Y-14453176D01*
X12562728Y-14253176D02*
X12581776Y-14253176D01*
X12600824Y-14262700D01*
X12610348Y-14272224D01*
X12619871Y-14291271D01*
X12629395Y-14329367D01*
X12629395Y-14376986D01*
X12619871Y-14415081D01*
X12610348Y-14434128D01*
X12600824Y-14443652D01*
X12581776Y-14453176D01*
X12562728Y-14453176D01*
X12543681Y-14443652D01*
X12534157Y-14434128D01*
X12524633Y-14415081D01*
X12515109Y-14376986D01*
X12515109Y-14329367D01*
X12524633Y-14291271D01*
X12534157Y-14272224D01*
X12543681Y-14262700D01*
X12562728Y-14253176D01*
X12819871Y-14453176D02*
X12705586Y-14453176D01*
X12762728Y-14453176D02*
X12762728Y-14253176D01*
X12743681Y-14281748D01*
X12724633Y-14300795D01*
X12705586Y-14310319D01*
X12991300Y-14253176D02*
X12953205Y-14253176D01*
X12934157Y-14262700D01*
X12924633Y-14272224D01*
X12905586Y-14300795D01*
X12896062Y-14338890D01*
X12896062Y-14415081D01*
X12905586Y-14434128D01*
X12915109Y-14443652D01*
X12934157Y-14453176D01*
X12972252Y-14453176D01*
X12991300Y-14443652D01*
X13000824Y-14434128D01*
X13010348Y-14415081D01*
X13010348Y-14367462D01*
X13000824Y-14348414D01*
X12991300Y-14338890D01*
X12972252Y-14329367D01*
X12934157Y-14329367D01*
X12915109Y-14338890D01*
X12905586Y-14348414D01*
X12896062Y-14367462D01*
X13096062Y-14453176D02*
X13096062Y-14319843D01*
X13096062Y-14338890D02*
X13105586Y-14329367D01*
X13124633Y-14319843D01*
X13153205Y-14319843D01*
X13172252Y-14329367D01*
X13181776Y-14348414D01*
X13181776Y-14453176D01*
X13181776Y-14348414D02*
X13191300Y-14329367D01*
X13210348Y-14319843D01*
X13238919Y-14319843D01*
X13257967Y-14329367D01*
X13267490Y-14348414D01*
X13267490Y-14453176D01*
X13362728Y-14453176D02*
X13362728Y-14319843D01*
X13362728Y-14338890D02*
X13372252Y-14329367D01*
X13391300Y-14319843D01*
X13419871Y-14319843D01*
X13438919Y-14329367D01*
X13448443Y-14348414D01*
X13448443Y-14453176D01*
X13448443Y-14348414D02*
X13457967Y-14329367D01*
X13477014Y-14319843D01*
X13505586Y-14319843D01*
X13524633Y-14329367D01*
X13534157Y-14348414D01*
X13534157Y-14453176D01*
X13924633Y-14243652D02*
X13753205Y-14500795D01*
X14181776Y-14253176D02*
X14200824Y-14253176D01*
X14219871Y-14262700D01*
X14229395Y-14272224D01*
X14238919Y-14291271D01*
X14248443Y-14329367D01*
X14248443Y-14376986D01*
X14238919Y-14415081D01*
X14229395Y-14434128D01*
X14219871Y-14443652D01*
X14200824Y-14453176D01*
X14181776Y-14453176D01*
X14162728Y-14443652D01*
X14153205Y-14434128D01*
X14143681Y-14415081D01*
X14134157Y-14376986D01*
X14134157Y-14329367D01*
X14143681Y-14291271D01*
X14153205Y-14272224D01*
X14162728Y-14262700D01*
X14181776Y-14253176D01*
X14334157Y-14434128D02*
X14343681Y-14443652D01*
X14334157Y-14453176D01*
X14324633Y-14443652D01*
X14334157Y-14434128D01*
X14334157Y-14453176D01*
X14467490Y-14253176D02*
X14486538Y-14253176D01*
X14505586Y-14262700D01*
X14515109Y-14272224D01*
X14524633Y-14291271D01*
X14534157Y-14329367D01*
X14534157Y-14376986D01*
X14524633Y-14415081D01*
X14515109Y-14434128D01*
X14505586Y-14443652D01*
X14486538Y-14453176D01*
X14467490Y-14453176D01*
X14448443Y-14443652D01*
X14438919Y-14434128D01*
X14429395Y-14415081D01*
X14419871Y-14376986D01*
X14419871Y-14329367D01*
X14429395Y-14291271D01*
X14438919Y-14272224D01*
X14448443Y-14262700D01*
X14467490Y-14253176D01*
X14705586Y-14319843D02*
X14705586Y-14453176D01*
X14657967Y-14243652D02*
X14610348Y-14386509D01*
X14734157Y-14386509D01*
X14848443Y-14253176D02*
X14867490Y-14253176D01*
X14886538Y-14262700D01*
X14896062Y-14272224D01*
X14905586Y-14291271D01*
X14915109Y-14329367D01*
X14915109Y-14376986D01*
X14905586Y-14415081D01*
X14896062Y-14434128D01*
X14886538Y-14443652D01*
X14867490Y-14453176D01*
X14848443Y-14453176D01*
X14829395Y-14443652D01*
X14819871Y-14434128D01*
X14810348Y-14415081D01*
X14800824Y-14376986D01*
X14800824Y-14329367D01*
X14810348Y-14291271D01*
X14819871Y-14272224D01*
X14829395Y-14262700D01*
X14848443Y-14253176D01*
X15038919Y-14253176D02*
X15057967Y-14253176D01*
X15077014Y-14262700D01*
X15086538Y-14272224D01*
X15096062Y-14291271D01*
X15105586Y-14329367D01*
X15105586Y-14376986D01*
X15096062Y-14415081D01*
X15086538Y-14434128D01*
X15077014Y-14443652D01*
X15057967Y-14453176D01*
X15038919Y-14453176D01*
X15019871Y-14443652D01*
X15010348Y-14434128D01*
X15000824Y-14415081D01*
X14991300Y-14376986D01*
X14991300Y-14329367D01*
X15000824Y-14291271D01*
X15010348Y-14272224D01*
X15019871Y-14262700D01*
X15038919Y-14253176D01*
X15181776Y-14253176D02*
X15181776Y-14291271D01*
X15257967Y-14253176D02*
X15257967Y-14291271D01*
X15553205Y-14529367D02*
X15543681Y-14519843D01*
X15524633Y-14491271D01*
X15515109Y-14472224D01*
X15505586Y-14443652D01*
X15496062Y-14396033D01*
X15496062Y-14357938D01*
X15505586Y-14310319D01*
X15515109Y-14281748D01*
X15524633Y-14262700D01*
X15543681Y-14234128D01*
X15553205Y-14224605D01*
X15724633Y-14253176D02*
X15629395Y-14253176D01*
X15619871Y-14348414D01*
X15629395Y-14338890D01*
X15648443Y-14329367D01*
X15696062Y-14329367D01*
X15715109Y-14338890D01*
X15724633Y-14348414D01*
X15734157Y-14367462D01*
X15734157Y-14415081D01*
X15724633Y-14434128D01*
X15715109Y-14443652D01*
X15696062Y-14453176D01*
X15648443Y-14453176D01*
X15629395Y-14443652D01*
X15619871Y-14434128D01*
X15857967Y-14253176D02*
X15877014Y-14253176D01*
X15896062Y-14262700D01*
X15905586Y-14272224D01*
X15915109Y-14291271D01*
X15924633Y-14329367D01*
X15924633Y-14376986D01*
X15915109Y-14415081D01*
X15905586Y-14434128D01*
X15896062Y-14443652D01*
X15877014Y-14453176D01*
X15857967Y-14453176D01*
X15838919Y-14443652D01*
X15829395Y-14434128D01*
X15819871Y-14415081D01*
X15810348Y-14376986D01*
X15810348Y-14329367D01*
X15819871Y-14291271D01*
X15829395Y-14272224D01*
X15838919Y-14262700D01*
X15857967Y-14253176D01*
X16162728Y-14453176D02*
X16162728Y-14253176D01*
X16248443Y-14453176D02*
X16248443Y-14348414D01*
X16238919Y-14329367D01*
X16219871Y-14319843D01*
X16191300Y-14319843D01*
X16172252Y-14329367D01*
X16162728Y-14338890D01*
X16372252Y-14453176D02*
X16353205Y-14443652D01*
X16343681Y-14434128D01*
X16334157Y-14415081D01*
X16334157Y-14357938D01*
X16343681Y-14338890D01*
X16353205Y-14329367D01*
X16372252Y-14319843D01*
X16400824Y-14319843D01*
X16419871Y-14329367D01*
X16429395Y-14338890D01*
X16438919Y-14357938D01*
X16438919Y-14415081D01*
X16429395Y-14434128D01*
X16419871Y-14443652D01*
X16400824Y-14453176D01*
X16372252Y-14453176D01*
X16553205Y-14453176D02*
X16534157Y-14443652D01*
X16524633Y-14424605D01*
X16524633Y-14253176D01*
X16705586Y-14443652D02*
X16686538Y-14453176D01*
X16648443Y-14453176D01*
X16629395Y-14443652D01*
X16619871Y-14424605D01*
X16619871Y-14348414D01*
X16629395Y-14329367D01*
X16648443Y-14319843D01*
X16686538Y-14319843D01*
X16705586Y-14329367D01*
X16715109Y-14348414D01*
X16715109Y-14367462D01*
X16619871Y-14386509D01*
X16791300Y-14443652D02*
X16810348Y-14453176D01*
X16848443Y-14453176D01*
X16867490Y-14443652D01*
X16877014Y-14424605D01*
X16877014Y-14415081D01*
X16867490Y-14396033D01*
X16848443Y-14386509D01*
X16819871Y-14386509D01*
X16800824Y-14376986D01*
X16791300Y-14357938D01*
X16791300Y-14348414D01*
X16800824Y-14329367D01*
X16819871Y-14319843D01*
X16848443Y-14319843D01*
X16867490Y-14329367D01*
X16943681Y-14529367D02*
X16953205Y-14519843D01*
X16972252Y-14491271D01*
X16981776Y-14472224D01*
X16991300Y-14443652D01*
X17000824Y-14396033D01*
X17000824Y-14357938D01*
X16991300Y-14310319D01*
X16981776Y-14281748D01*
X16972252Y-14262700D01*
X16953205Y-14234128D01*
X16943681Y-14224605D01*
D18*
X11851300Y-14561700D02*
X11981300Y-14691700D01*
X11981300Y-14561700D02*
X11851300Y-14691700D01*
X11916300Y-14561700D02*
X11916300Y-14691700D01*
X11851300Y-14626700D02*
X11981300Y-14626700D01*
D11*
X12343681Y-14717176D02*
X12229395Y-14717176D01*
X12286538Y-14717176D02*
X12286538Y-14517176D01*
X12267490Y-14545748D01*
X12248443Y-14564795D01*
X12229395Y-14574319D01*
X12429395Y-14698128D02*
X12438919Y-14707652D01*
X12429395Y-14717176D01*
X12419871Y-14707652D01*
X12429395Y-14698128D01*
X12429395Y-14717176D01*
X12505586Y-14517176D02*
X12629395Y-14517176D01*
X12562728Y-14593367D01*
X12591300Y-14593367D01*
X12610348Y-14602890D01*
X12619871Y-14612414D01*
X12629395Y-14631462D01*
X12629395Y-14679081D01*
X12619871Y-14698128D01*
X12610348Y-14707652D01*
X12591300Y-14717176D01*
X12534157Y-14717176D01*
X12515109Y-14707652D01*
X12505586Y-14698128D01*
X12753205Y-14517176D02*
X12772252Y-14517176D01*
X12791300Y-14526700D01*
X12800824Y-14536224D01*
X12810348Y-14555271D01*
X12819871Y-14593367D01*
X12819871Y-14640986D01*
X12810348Y-14679081D01*
X12800824Y-14698128D01*
X12791300Y-14707652D01*
X12772252Y-14717176D01*
X12753205Y-14717176D01*
X12734157Y-14707652D01*
X12724633Y-14698128D01*
X12715109Y-14679081D01*
X12705586Y-14640986D01*
X12705586Y-14593367D01*
X12715109Y-14555271D01*
X12724633Y-14536224D01*
X12734157Y-14526700D01*
X12753205Y-14517176D01*
X12943681Y-14517176D02*
X12962728Y-14517176D01*
X12981776Y-14526700D01*
X12991300Y-14536224D01*
X13000824Y-14555271D01*
X13010348Y-14593367D01*
X13010348Y-14640986D01*
X13000824Y-14679081D01*
X12991300Y-14698128D01*
X12981776Y-14707652D01*
X12962728Y-14717176D01*
X12943681Y-14717176D01*
X12924633Y-14707652D01*
X12915109Y-14698128D01*
X12905586Y-14679081D01*
X12896062Y-14640986D01*
X12896062Y-14593367D01*
X12905586Y-14555271D01*
X12915109Y-14536224D01*
X12924633Y-14526700D01*
X12943681Y-14517176D01*
X13096062Y-14717176D02*
X13096062Y-14583843D01*
X13096062Y-14602890D02*
X13105586Y-14593367D01*
X13124633Y-14583843D01*
X13153205Y-14583843D01*
X13172252Y-14593367D01*
X13181776Y-14612414D01*
X13181776Y-14717176D01*
X13181776Y-14612414D02*
X13191300Y-14593367D01*
X13210348Y-14583843D01*
X13238919Y-14583843D01*
X13257967Y-14593367D01*
X13267490Y-14612414D01*
X13267490Y-14717176D01*
X13362728Y-14717176D02*
X13362728Y-14583843D01*
X13362728Y-14602890D02*
X13372252Y-14593367D01*
X13391300Y-14583843D01*
X13419871Y-14583843D01*
X13438919Y-14593367D01*
X13448443Y-14612414D01*
X13448443Y-14717176D01*
X13448443Y-14612414D02*
X13457967Y-14593367D01*
X13477014Y-14583843D01*
X13505586Y-14583843D01*
X13524633Y-14593367D01*
X13534157Y-14612414D01*
X13534157Y-14717176D01*
X13924633Y-14507652D02*
X13753205Y-14764795D01*
X14181776Y-14517176D02*
X14200824Y-14517176D01*
X14219871Y-14526700D01*
X14229395Y-14536224D01*
X14238919Y-14555271D01*
X14248443Y-14593367D01*
X14248443Y-14640986D01*
X14238919Y-14679081D01*
X14229395Y-14698128D01*
X14219871Y-14707652D01*
X14200824Y-14717176D01*
X14181776Y-14717176D01*
X14162728Y-14707652D01*
X14153205Y-14698128D01*
X14143681Y-14679081D01*
X14134157Y-14640986D01*
X14134157Y-14593367D01*
X14143681Y-14555271D01*
X14153205Y-14536224D01*
X14162728Y-14526700D01*
X14181776Y-14517176D01*
X14334157Y-14698128D02*
X14343681Y-14707652D01*
X14334157Y-14717176D01*
X14324633Y-14707652D01*
X14334157Y-14698128D01*
X14334157Y-14717176D01*
X14467490Y-14517176D02*
X14486538Y-14517176D01*
X14505586Y-14526700D01*
X14515109Y-14536224D01*
X14524633Y-14555271D01*
X14534157Y-14593367D01*
X14534157Y-14640986D01*
X14524633Y-14679081D01*
X14515109Y-14698128D01*
X14505586Y-14707652D01*
X14486538Y-14717176D01*
X14467490Y-14717176D01*
X14448443Y-14707652D01*
X14438919Y-14698128D01*
X14429395Y-14679081D01*
X14419871Y-14640986D01*
X14419871Y-14593367D01*
X14429395Y-14555271D01*
X14438919Y-14536224D01*
X14448443Y-14526700D01*
X14467490Y-14517176D01*
X14715109Y-14517176D02*
X14619871Y-14517176D01*
X14610348Y-14612414D01*
X14619871Y-14602890D01*
X14638919Y-14593367D01*
X14686538Y-14593367D01*
X14705586Y-14602890D01*
X14715109Y-14612414D01*
X14724633Y-14631462D01*
X14724633Y-14679081D01*
X14715109Y-14698128D01*
X14705586Y-14707652D01*
X14686538Y-14717176D01*
X14638919Y-14717176D01*
X14619871Y-14707652D01*
X14610348Y-14698128D01*
X14915109Y-14717176D02*
X14800824Y-14717176D01*
X14857967Y-14717176D02*
X14857967Y-14517176D01*
X14838919Y-14545748D01*
X14819871Y-14564795D01*
X14800824Y-14574319D01*
X14991300Y-14536224D02*
X15000824Y-14526700D01*
X15019871Y-14517176D01*
X15067490Y-14517176D01*
X15086538Y-14526700D01*
X15096062Y-14536224D01*
X15105586Y-14555271D01*
X15105586Y-14574319D01*
X15096062Y-14602890D01*
X14981776Y-14717176D01*
X15105586Y-14717176D01*
X15181776Y-14517176D02*
X15181776Y-14555271D01*
X15257967Y-14517176D02*
X15257967Y-14555271D01*
X15553205Y-14793367D02*
X15543681Y-14783843D01*
X15524633Y-14755271D01*
X15515109Y-14736224D01*
X15505586Y-14707652D01*
X15496062Y-14660033D01*
X15496062Y-14621938D01*
X15505586Y-14574319D01*
X15515109Y-14545748D01*
X15524633Y-14526700D01*
X15543681Y-14498128D01*
X15553205Y-14488605D01*
X15715109Y-14517176D02*
X15677014Y-14517176D01*
X15657967Y-14526700D01*
X15648443Y-14536224D01*
X15629395Y-14564795D01*
X15619871Y-14602890D01*
X15619871Y-14679081D01*
X15629395Y-14698128D01*
X15638919Y-14707652D01*
X15657967Y-14717176D01*
X15696062Y-14717176D01*
X15715109Y-14707652D01*
X15724633Y-14698128D01*
X15734157Y-14679081D01*
X15734157Y-14631462D01*
X15724633Y-14612414D01*
X15715109Y-14602890D01*
X15696062Y-14593367D01*
X15657967Y-14593367D01*
X15638919Y-14602890D01*
X15629395Y-14612414D01*
X15619871Y-14631462D01*
X15972252Y-14717176D02*
X15972252Y-14517176D01*
X16057967Y-14717176D02*
X16057967Y-14612414D01*
X16048443Y-14593367D01*
X16029395Y-14583843D01*
X16000824Y-14583843D01*
X15981776Y-14593367D01*
X15972252Y-14602890D01*
X16181776Y-14717176D02*
X16162728Y-14707652D01*
X16153205Y-14698128D01*
X16143681Y-14679081D01*
X16143681Y-14621938D01*
X16153205Y-14602890D01*
X16162728Y-14593367D01*
X16181776Y-14583843D01*
X16210348Y-14583843D01*
X16229395Y-14593367D01*
X16238919Y-14602890D01*
X16248443Y-14621938D01*
X16248443Y-14679081D01*
X16238919Y-14698128D01*
X16229395Y-14707652D01*
X16210348Y-14717176D01*
X16181776Y-14717176D01*
X16362728Y-14717176D02*
X16343681Y-14707652D01*
X16334157Y-14688605D01*
X16334157Y-14517176D01*
X16515109Y-14707652D02*
X16496062Y-14717176D01*
X16457967Y-14717176D01*
X16438919Y-14707652D01*
X16429395Y-14688605D01*
X16429395Y-14612414D01*
X16438919Y-14593367D01*
X16457967Y-14583843D01*
X16496062Y-14583843D01*
X16515109Y-14593367D01*
X16524633Y-14612414D01*
X16524633Y-14631462D01*
X16429395Y-14650509D01*
X16600824Y-14707652D02*
X16619871Y-14717176D01*
X16657967Y-14717176D01*
X16677014Y-14707652D01*
X16686538Y-14688605D01*
X16686538Y-14679081D01*
X16677014Y-14660033D01*
X16657967Y-14650509D01*
X16629395Y-14650509D01*
X16610348Y-14640986D01*
X16600824Y-14621938D01*
X16600824Y-14612414D01*
X16610348Y-14593367D01*
X16629395Y-14583843D01*
X16657967Y-14583843D01*
X16677014Y-14593367D01*
X16753205Y-14793367D02*
X16762728Y-14783843D01*
X16781776Y-14755271D01*
X16791300Y-14736224D01*
X16800824Y-14707652D01*
X16810348Y-14660033D01*
X16810348Y-14621938D01*
X16800824Y-14574319D01*
X16791300Y-14545748D01*
X16781776Y-14526700D01*
X16762728Y-14498128D01*
X16753205Y-14488605D01*
X11781300Y-14790700D02*
X11981300Y-14990700D01*
X11981300Y-14790700D02*
X11781300Y-14990700D01*
X11952011Y-14961411D02*
X11952011Y-14819989D01*
X11810589Y-14819989D01*
X11810589Y-14961411D01*
X11952011Y-14961411D01*
X12219871Y-14781176D02*
X12343681Y-14781176D01*
X12277014Y-14857367D01*
X12305586Y-14857367D01*
X12324633Y-14866890D01*
X12334157Y-14876414D01*
X12343681Y-14895462D01*
X12343681Y-14943081D01*
X12334157Y-14962128D01*
X12324633Y-14971652D01*
X12305586Y-14981176D01*
X12248443Y-14981176D01*
X12229395Y-14971652D01*
X12219871Y-14962128D01*
X12429395Y-14962128D02*
X12438919Y-14971652D01*
X12429395Y-14981176D01*
X12419871Y-14971652D01*
X12429395Y-14962128D01*
X12429395Y-14981176D01*
X12629395Y-14981176D02*
X12515109Y-14981176D01*
X12572252Y-14981176D02*
X12572252Y-14781176D01*
X12553205Y-14809748D01*
X12534157Y-14828795D01*
X12515109Y-14838319D01*
X12753205Y-14781176D02*
X12772252Y-14781176D01*
X12791300Y-14790700D01*
X12800824Y-14800224D01*
X12810348Y-14819271D01*
X12819871Y-14857367D01*
X12819871Y-14904986D01*
X12810348Y-14943081D01*
X12800824Y-14962128D01*
X12791300Y-14971652D01*
X12772252Y-14981176D01*
X12753205Y-14981176D01*
X12734157Y-14971652D01*
X12724633Y-14962128D01*
X12715109Y-14943081D01*
X12705586Y-14904986D01*
X12705586Y-14857367D01*
X12715109Y-14819271D01*
X12724633Y-14800224D01*
X12734157Y-14790700D01*
X12753205Y-14781176D01*
X12943681Y-14781176D02*
X12962728Y-14781176D01*
X12981776Y-14790700D01*
X12991300Y-14800224D01*
X13000824Y-14819271D01*
X13010348Y-14857367D01*
X13010348Y-14904986D01*
X13000824Y-14943081D01*
X12991300Y-14962128D01*
X12981776Y-14971652D01*
X12962728Y-14981176D01*
X12943681Y-14981176D01*
X12924633Y-14971652D01*
X12915109Y-14962128D01*
X12905586Y-14943081D01*
X12896062Y-14904986D01*
X12896062Y-14857367D01*
X12905586Y-14819271D01*
X12915109Y-14800224D01*
X12924633Y-14790700D01*
X12943681Y-14781176D01*
X13096062Y-14981176D02*
X13096062Y-14847843D01*
X13096062Y-14866890D02*
X13105586Y-14857367D01*
X13124633Y-14847843D01*
X13153205Y-14847843D01*
X13172252Y-14857367D01*
X13181776Y-14876414D01*
X13181776Y-14981176D01*
X13181776Y-14876414D02*
X13191300Y-14857367D01*
X13210348Y-14847843D01*
X13238919Y-14847843D01*
X13257967Y-14857367D01*
X13267490Y-14876414D01*
X13267490Y-14981176D01*
X13362728Y-14981176D02*
X13362728Y-14847843D01*
X13362728Y-14866890D02*
X13372252Y-14857367D01*
X13391300Y-14847843D01*
X13419871Y-14847843D01*
X13438919Y-14857367D01*
X13448443Y-14876414D01*
X13448443Y-14981176D01*
X13448443Y-14876414D02*
X13457967Y-14857367D01*
X13477014Y-14847843D01*
X13505586Y-14847843D01*
X13524633Y-14857367D01*
X13534157Y-14876414D01*
X13534157Y-14981176D01*
X13924633Y-14771652D02*
X13753205Y-15028795D01*
X14181776Y-14781176D02*
X14200824Y-14781176D01*
X14219871Y-14790700D01*
X14229395Y-14800224D01*
X14238919Y-14819271D01*
X14248443Y-14857367D01*
X14248443Y-14904986D01*
X14238919Y-14943081D01*
X14229395Y-14962128D01*
X14219871Y-14971652D01*
X14200824Y-14981176D01*
X14181776Y-14981176D01*
X14162728Y-14971652D01*
X14153205Y-14962128D01*
X14143681Y-14943081D01*
X14134157Y-14904986D01*
X14134157Y-14857367D01*
X14143681Y-14819271D01*
X14153205Y-14800224D01*
X14162728Y-14790700D01*
X14181776Y-14781176D01*
X14334157Y-14962128D02*
X14343681Y-14971652D01*
X14334157Y-14981176D01*
X14324633Y-14971652D01*
X14334157Y-14962128D01*
X14334157Y-14981176D01*
X14534157Y-14981176D02*
X14419871Y-14981176D01*
X14477014Y-14981176D02*
X14477014Y-14781176D01*
X14457967Y-14809748D01*
X14438919Y-14828795D01*
X14419871Y-14838319D01*
X14610348Y-14800224D02*
X14619871Y-14790700D01*
X14638919Y-14781176D01*
X14686538Y-14781176D01*
X14705586Y-14790700D01*
X14715109Y-14800224D01*
X14724633Y-14819271D01*
X14724633Y-14838319D01*
X14715109Y-14866890D01*
X14600824Y-14981176D01*
X14724633Y-14981176D01*
X14800824Y-14800224D02*
X14810348Y-14790700D01*
X14829395Y-14781176D01*
X14877014Y-14781176D01*
X14896062Y-14790700D01*
X14905586Y-14800224D01*
X14915109Y-14819271D01*
X14915109Y-14838319D01*
X14905586Y-14866890D01*
X14791300Y-14981176D01*
X14915109Y-14981176D01*
X15038919Y-14781176D02*
X15057967Y-14781176D01*
X15077014Y-14790700D01*
X15086538Y-14800224D01*
X15096062Y-14819271D01*
X15105586Y-14857367D01*
X15105586Y-14904986D01*
X15096062Y-14943081D01*
X15086538Y-14962128D01*
X15077014Y-14971652D01*
X15057967Y-14981176D01*
X15038919Y-14981176D01*
X15019871Y-14971652D01*
X15010348Y-14962128D01*
X15000824Y-14943081D01*
X14991300Y-14904986D01*
X14991300Y-14857367D01*
X15000824Y-14819271D01*
X15010348Y-14800224D01*
X15019871Y-14790700D01*
X15038919Y-14781176D01*
X15181776Y-14781176D02*
X15181776Y-14819271D01*
X15257967Y-14781176D02*
X15257967Y-14819271D01*
X15553205Y-15057367D02*
X15543681Y-15047843D01*
X15524633Y-15019271D01*
X15515109Y-15000224D01*
X15505586Y-14971652D01*
X15496062Y-14924033D01*
X15496062Y-14885938D01*
X15505586Y-14838319D01*
X15515109Y-14809748D01*
X15524633Y-14790700D01*
X15543681Y-14762128D01*
X15553205Y-14752605D01*
X15619871Y-14800224D02*
X15629395Y-14790700D01*
X15648443Y-14781176D01*
X15696062Y-14781176D01*
X15715109Y-14790700D01*
X15724633Y-14800224D01*
X15734157Y-14819271D01*
X15734157Y-14838319D01*
X15724633Y-14866890D01*
X15610348Y-14981176D01*
X15734157Y-14981176D01*
X15972252Y-14981176D02*
X15972252Y-14781176D01*
X16057967Y-14981176D02*
X16057967Y-14876414D01*
X16048443Y-14857367D01*
X16029395Y-14847843D01*
X16000824Y-14847843D01*
X15981776Y-14857367D01*
X15972252Y-14866890D01*
X16181776Y-14981176D02*
X16162728Y-14971652D01*
X16153205Y-14962128D01*
X16143681Y-14943081D01*
X16143681Y-14885938D01*
X16153205Y-14866890D01*
X16162728Y-14857367D01*
X16181776Y-14847843D01*
X16210348Y-14847843D01*
X16229395Y-14857367D01*
X16238919Y-14866890D01*
X16248443Y-14885938D01*
X16248443Y-14943081D01*
X16238919Y-14962128D01*
X16229395Y-14971652D01*
X16210348Y-14981176D01*
X16181776Y-14981176D01*
X16362728Y-14981176D02*
X16343681Y-14971652D01*
X16334157Y-14952605D01*
X16334157Y-14781176D01*
X16515109Y-14971652D02*
X16496062Y-14981176D01*
X16457967Y-14981176D01*
X16438919Y-14971652D01*
X16429395Y-14952605D01*
X16429395Y-14876414D01*
X16438919Y-14857367D01*
X16457967Y-14847843D01*
X16496062Y-14847843D01*
X16515109Y-14857367D01*
X16524633Y-14876414D01*
X16524633Y-14895462D01*
X16429395Y-14914509D01*
X16600824Y-14971652D02*
X16619871Y-14981176D01*
X16657967Y-14981176D01*
X16677014Y-14971652D01*
X16686538Y-14952605D01*
X16686538Y-14943081D01*
X16677014Y-14924033D01*
X16657967Y-14914509D01*
X16629395Y-14914509D01*
X16610348Y-14904986D01*
X16600824Y-14885938D01*
X16600824Y-14876414D01*
X16610348Y-14857367D01*
X16629395Y-14847843D01*
X16657967Y-14847843D01*
X16677014Y-14857367D01*
X16753205Y-15057367D02*
X16762728Y-15047843D01*
X16781776Y-15019271D01*
X16791300Y-15000224D01*
X16800824Y-14971652D01*
X16810348Y-14924033D01*
X16810348Y-14885938D01*
X16800824Y-14838319D01*
X16791300Y-14809748D01*
X16781776Y-14790700D01*
X16762728Y-14762128D01*
X16753205Y-14752605D01*
M02*
