%TF.GenerationSoftware,KiCad,Pcbnew,(6.0.0)*%
%TF.CreationDate,2022-02-01T22:46:00+00:00*%
%TF.ProjectId,AR488-Bluetooth,41523438-382d-4426-9c75-65746f6f7468,rev?*%
%TF.SameCoordinates,Original*%
%TF.FileFunction,Soldermask,Top*%
%TF.FilePolarity,Negative*%
%FSLAX46Y46*%
G04 Gerber Fmt 4.6, Leading zero omitted, Abs format (unit mm)*
G04 Created by KiCad (PCBNEW (6.0.0)) date 2022-02-01 22:46:00*
%MOMM*%
%LPD*%
G01*
G04 APERTURE LIST*
G04 Aperture macros list*
%AMRoundRect*
0 Rectangle with rounded corners*
0 $1 Rounding radius*
0 $2 $3 $4 $5 $6 $7 $8 $9 X,Y pos of 4 corners*
0 Add a 4 corners polygon primitive as box body*
4,1,4,$2,$3,$4,$5,$6,$7,$8,$9,$2,$3,0*
0 Add four circle primitives for the rounded corners*
1,1,$1+$1,$2,$3*
1,1,$1+$1,$4,$5*
1,1,$1+$1,$6,$7*
1,1,$1+$1,$8,$9*
0 Add four rect primitives between the rounded corners*
20,1,$1+$1,$2,$3,$4,$5,0*
20,1,$1+$1,$4,$5,$6,$7,0*
20,1,$1+$1,$6,$7,$8,$9,0*
20,1,$1+$1,$8,$9,$2,$3,0*%
%AMFreePoly0*
4,1,22,0.500000,-0.750000,0.000000,-0.750000,0.000000,-0.745033,-0.079941,-0.743568,-0.215256,-0.701293,-0.333266,-0.622738,-0.424486,-0.514219,-0.481581,-0.384460,-0.499164,-0.250000,-0.500000,-0.250000,-0.500000,0.250000,-0.499164,0.250000,-0.499963,0.256109,-0.478152,0.396186,-0.417904,0.524511,-0.324060,0.630769,-0.204165,0.706417,-0.067858,0.745374,0.000000,0.744959,0.000000,0.750000,
0.500000,0.750000,0.500000,-0.750000,0.500000,-0.750000,$1*%
%AMFreePoly1*
4,1,20,0.000000,0.744959,0.073905,0.744508,0.209726,0.703889,0.328688,0.626782,0.421226,0.519385,0.479903,0.390333,0.500000,0.250000,0.500000,-0.250000,0.499851,-0.262216,0.476331,-0.402017,0.414519,-0.529596,0.319384,-0.634700,0.198574,-0.708877,0.061801,-0.746166,0.000000,-0.745033,0.000000,-0.750000,-0.500000,-0.750000,-0.500000,0.750000,0.000000,0.750000,0.000000,0.744959,
0.000000,0.744959,$1*%
G04 Aperture macros list end*
%ADD10O,1.727200X2.032000*%
%ADD11R,1.130000X1.130000*%
%ADD12C,1.130000*%
%ADD13RoundRect,0.155000X0.212500X0.155000X-0.212500X0.155000X-0.212500X-0.155000X0.212500X-0.155000X0*%
%ADD14RoundRect,0.250000X0.325000X0.450000X-0.325000X0.450000X-0.325000X-0.450000X0.325000X-0.450000X0*%
%ADD15RoundRect,0.155000X-0.155000X0.212500X-0.155000X-0.212500X0.155000X-0.212500X0.155000X0.212500X0*%
%ADD16R,1.800000X1.800000*%
%ADD17C,1.800000*%
%ADD18R,1.560000X0.650000*%
%ADD19C,1.270000*%
%ADD20C,1.440000*%
%ADD21R,0.650000X1.560000*%
%ADD22R,1.000000X1.500000*%
%ADD23O,2.000000X1.200000*%
%ADD24RoundRect,0.237500X-0.250000X-0.237500X0.250000X-0.237500X0.250000X0.237500X-0.250000X0.237500X0*%
%ADD25RoundRect,0.237500X0.300000X0.237500X-0.300000X0.237500X-0.300000X-0.237500X0.300000X-0.237500X0*%
%ADD26FreePoly0,180.000000*%
%ADD27FreePoly1,180.000000*%
%ADD28R,1.500000X1.500000*%
%ADD29C,1.500000*%
%ADD30C,4.650000*%
%ADD31R,1.950000X1.950000*%
%ADD32C,1.950000*%
%ADD33RoundRect,0.237500X0.237500X-0.250000X0.237500X0.250000X-0.237500X0.250000X-0.237500X-0.250000X0*%
%ADD34R,3.400000X1.800000*%
%ADD35R,1.700000X1.700000*%
%ADD36O,1.700000X1.700000*%
G04 APERTURE END LIST*
D10*
%TO.C,P2*%
X131318000Y-119126000D03*
X133858000Y-119126000D03*
X136398000Y-119126000D03*
X138938000Y-119126000D03*
X141478000Y-119126000D03*
X144018000Y-119126000D03*
X146558000Y-119126000D03*
X149098000Y-119126000D03*
%TD*%
%TO.C,P3*%
X154178000Y-119126000D03*
X156718000Y-119126000D03*
X159258000Y-119126000D03*
X161798000Y-119126000D03*
X164338000Y-119126000D03*
X166878000Y-119126000D03*
X169418000Y-119126000D03*
X171958000Y-119126000D03*
%TD*%
%TO.C,P4*%
X177038000Y-119126000D03*
X179578000Y-119126000D03*
X182118000Y-119126000D03*
X184658000Y-119126000D03*
X187198000Y-119126000D03*
X189738000Y-119126000D03*
X192278000Y-119126000D03*
X194818000Y-119126000D03*
%TD*%
%TO.C,P5*%
X122174000Y-70866000D03*
X124714000Y-70866000D03*
X127254000Y-70866000D03*
X129794000Y-70866000D03*
X132334000Y-70866000D03*
X134874000Y-70866000D03*
X137414000Y-70866000D03*
X139954000Y-70866000D03*
X142494000Y-70866000D03*
X145034000Y-70866000D03*
%TD*%
%TO.C,P6*%
X149098000Y-70866000D03*
X151638000Y-70866000D03*
X154178000Y-70866000D03*
X156718000Y-70866000D03*
X159258000Y-70866000D03*
X161798000Y-70866000D03*
X164338000Y-70866000D03*
X166878000Y-70866000D03*
%TD*%
%TO.C,P7*%
X171958000Y-70866000D03*
X174498000Y-70866000D03*
X177038000Y-70866000D03*
X179578000Y-70866000D03*
X182118000Y-70866000D03*
X184658000Y-70866000D03*
X187198000Y-70866000D03*
X189738000Y-70866000D03*
%TD*%
D11*
%TO.C,U1*%
X167665400Y-110896800D03*
D12*
X170205400Y-110896800D03*
X172745400Y-110896800D03*
X175285400Y-110896800D03*
X177825400Y-110896800D03*
X180365400Y-110896800D03*
X182905400Y-110896800D03*
X185445400Y-110896800D03*
X187985400Y-110896800D03*
X190525400Y-110896800D03*
X190525400Y-102956800D03*
X187985400Y-102956800D03*
X185445400Y-102956800D03*
X182905400Y-102956800D03*
X180365400Y-102956800D03*
X177825400Y-102956800D03*
X175285400Y-102956800D03*
X172745400Y-102956800D03*
X170205400Y-102956800D03*
X167665400Y-102956800D03*
%TD*%
D13*
%TO.C,C1*%
X153116100Y-110302000D03*
X151981100Y-110302000D03*
%TD*%
D14*
%TO.C,L1*%
X150522200Y-113121400D03*
X148472200Y-113121400D03*
%TD*%
D15*
%TO.C,C2*%
X145004800Y-109167000D03*
X145004800Y-110302000D03*
%TD*%
D16*
%TO.C,D2*%
X152217200Y-98018600D03*
D17*
X154757200Y-98018600D03*
%TD*%
D18*
%TO.C,U4*%
X150317200Y-111252000D03*
X150317200Y-110302000D03*
X150317200Y-109352000D03*
X147617200Y-109352000D03*
X147617200Y-111252000D03*
%TD*%
D19*
%TO.C,SW1*%
X161899600Y-111220000D03*
X161899600Y-109220000D03*
X161899600Y-107220000D03*
%TD*%
D20*
%TO.C,RV1*%
X159885600Y-95443200D03*
X159885600Y-97983200D03*
X159885600Y-100523200D03*
%TD*%
D21*
%TO.C,U5*%
X151775200Y-102663000D03*
X150825200Y-102663000D03*
X149875200Y-102663000D03*
X149875200Y-105363000D03*
X150825200Y-105363000D03*
X151775200Y-105363000D03*
%TD*%
D22*
%TO.C,JP5*%
X154626800Y-115331200D03*
X155926800Y-115331200D03*
X157226800Y-115331200D03*
%TD*%
D23*
%TO.C,U3*%
X135026400Y-92735400D03*
X135026400Y-95275400D03*
X135026400Y-97815400D03*
X135026400Y-100355400D03*
X135026400Y-102895400D03*
X135026400Y-105435400D03*
X145186400Y-105435400D03*
X145186400Y-102895400D03*
X145186400Y-100355400D03*
X145186400Y-97815400D03*
X145186400Y-95275400D03*
X145186400Y-92735400D03*
%TD*%
D24*
%TO.C,R1*%
X131269100Y-85725000D03*
X133094100Y-85725000D03*
%TD*%
D15*
%TO.C,C3*%
X146046200Y-109167000D03*
X146046200Y-110302000D03*
%TD*%
D25*
%TO.C,C4*%
X167664300Y-101142800D03*
X165939300Y-101142800D03*
%TD*%
D26*
%TO.C,JP1*%
X161178000Y-80314800D03*
D27*
X159878000Y-80314800D03*
%TD*%
D28*
%TO.C,J1*%
X200462200Y-83166800D03*
D29*
X200462200Y-85326800D03*
X200462200Y-87486800D03*
X200462200Y-89646800D03*
X200462200Y-91806800D03*
X200462200Y-93966800D03*
X200462200Y-96126800D03*
X200462200Y-98286800D03*
X200462200Y-100446800D03*
X200462200Y-102606800D03*
X200462200Y-104766800D03*
X200462200Y-106926800D03*
X204752200Y-83166800D03*
X204752200Y-85326800D03*
X204752200Y-87486800D03*
X204752200Y-89646800D03*
X204752200Y-91806800D03*
X204752200Y-93966800D03*
X204752200Y-96126800D03*
X204752200Y-98286800D03*
X204752200Y-100446800D03*
X204752200Y-102606800D03*
X204752200Y-104766800D03*
X204752200Y-106926800D03*
D30*
X202607200Y-118446800D03*
X202607200Y-71646800D03*
%TD*%
D26*
%TO.C,JP2*%
X161178000Y-85420200D03*
D27*
X159878000Y-85420200D03*
%TD*%
D11*
%TO.C,U2*%
X167665400Y-87136800D03*
D12*
X170205400Y-87136800D03*
X172745400Y-87136800D03*
X175285400Y-87136800D03*
X177825400Y-87136800D03*
X180365400Y-87136800D03*
X182905400Y-87136800D03*
X185445400Y-87136800D03*
X187985400Y-87136800D03*
X190525400Y-87136800D03*
X190525400Y-79196800D03*
X187985400Y-79196800D03*
X185445400Y-79196800D03*
X182905400Y-79196800D03*
X180365400Y-79196800D03*
X177825400Y-79196800D03*
X175285400Y-79196800D03*
X172745400Y-79196800D03*
X170205400Y-79196800D03*
X167665400Y-79196800D03*
%TD*%
D31*
%TO.C,J3*%
X130073400Y-105562400D03*
D32*
X130073400Y-103022400D03*
X130073400Y-100482400D03*
X130073400Y-97942400D03*
X130073400Y-95402400D03*
X130073400Y-92862400D03*
%TD*%
D33*
%TO.C,R2*%
X155244800Y-105789100D03*
X155244800Y-103964100D03*
%TD*%
D22*
%TO.C,JP3*%
X134564600Y-88925400D03*
X135864600Y-88925400D03*
X137164600Y-88925400D03*
%TD*%
D16*
%TO.C,D1*%
X129970200Y-79730600D03*
D17*
X132510200Y-79730600D03*
%TD*%
D34*
%TO.C,TP1*%
X160629600Y-90932000D03*
%TD*%
D35*
%TO.C,BT1*%
X157657800Y-109367400D03*
D36*
X157657800Y-111907400D03*
%TD*%
D25*
%TO.C,C5*%
X167664300Y-77393800D03*
X165939300Y-77393800D03*
%TD*%
D22*
%TO.C,JP4*%
X143099000Y-88925400D03*
X144399000Y-88925400D03*
X145699000Y-88925400D03*
%TD*%
M02*
