%TF.GenerationSoftware,KiCad,Pcbnew,(5.99.0-13200-g7b4d5b2312)*%
%TF.CreationDate,2021-12-21T00:33:42+00:00*%
%TF.ProjectId,AR488-Bluetooth,41523438-382d-4426-9c75-65746f6f7468,rev?*%
%TF.SameCoordinates,Original*%
%TF.FileFunction,Soldermask,Top*%
%TF.FilePolarity,Negative*%
%FSLAX46Y46*%
G04 Gerber Fmt 4.6, Leading zero omitted, Abs format (unit mm)*
G04 Created by KiCad (PCBNEW (5.99.0-13200-g7b4d5b2312)) date 2021-12-21 00:33:42*
%MOMM*%
%LPD*%
G01*
G04 APERTURE LIST*
G04 Aperture macros list*
%AMFreePoly0*
4,1,22,0.500000,-0.750000,0.000000,-0.750000,0.000000,-0.745033,-0.079941,-0.743568,-0.215256,-0.701293,-0.333266,-0.622738,-0.424486,-0.514219,-0.481581,-0.384460,-0.499164,-0.250000,-0.500000,-0.250000,-0.500000,0.250000,-0.499164,0.250000,-0.499963,0.256109,-0.478152,0.396186,-0.417904,0.524511,-0.324060,0.630769,-0.204165,0.706417,-0.067858,0.745374,0.000000,0.744959,0.000000,0.750000,
0.500000,0.750000,0.500000,-0.750000,0.500000,-0.750000,$1*%
%AMFreePoly1*
4,1,20,0.000000,0.744959,0.073905,0.744508,0.209726,0.703889,0.328688,0.626782,0.421226,0.519385,0.479903,0.390333,0.500000,0.250000,0.500000,-0.250000,0.499851,-0.262216,0.476331,-0.402017,0.414519,-0.529596,0.319384,-0.634700,0.198574,-0.708877,0.061801,-0.746166,0.000000,-0.745033,0.000000,-0.750000,-0.500000,-0.750000,-0.500000,0.750000,0.000000,0.750000,0.000000,0.744959,
0.000000,0.744959,$1*%
G04 Aperture macros list end*
%ADD10O,1.200000X2.000000*%
%ADD11C,1.130000*%
%ADD12R,1.130000X1.130000*%
%ADD13O,1.727200X2.032000*%
%ADD14FreePoly0,0.000000*%
%ADD15FreePoly1,0.000000*%
%ADD16C,1.600000*%
%ADD17O,1.600000X1.600000*%
%ADD18C,1.500000*%
%ADD19C,4.650000*%
%ADD20R,1.950000X1.950000*%
%ADD21C,1.950000*%
%ADD22R,1.800000X1.800000*%
%ADD23C,1.800000*%
%ADD24R,1.000000X1.500000*%
G04 APERTURE END LIST*
D10*
%TO.C,U3*%
X147624800Y-93853000D03*
X145084800Y-93853000D03*
X142544800Y-93853000D03*
X140004800Y-93853000D03*
X137464800Y-93853000D03*
X134924800Y-93853000D03*
X134924800Y-104013000D03*
X137464800Y-104013000D03*
X140004800Y-104013000D03*
X142544800Y-104013000D03*
X145084800Y-104013000D03*
X147624800Y-104013000D03*
%TD*%
D11*
%TO.C,U2*%
X166368000Y-81356800D03*
X168908000Y-81356800D03*
X171448000Y-81356800D03*
X173988000Y-81356800D03*
X176528000Y-81356800D03*
X179068000Y-81356800D03*
X181608000Y-81356800D03*
X184148000Y-81356800D03*
X186688000Y-81356800D03*
X189228000Y-81356800D03*
X189228000Y-89296800D03*
X186688000Y-89296800D03*
X184148000Y-89296800D03*
X181608000Y-89296800D03*
X179068000Y-89296800D03*
X176528000Y-89296800D03*
X173988000Y-89296800D03*
X171448000Y-89296800D03*
X168908000Y-89296800D03*
D12*
X166368000Y-89296800D03*
%TD*%
D13*
%TO.C,P2*%
X131318000Y-119126000D03*
X133858000Y-119126000D03*
X136398000Y-119126000D03*
X138938000Y-119126000D03*
X141478000Y-119126000D03*
X144018000Y-119126000D03*
X146558000Y-119126000D03*
X149098000Y-119126000D03*
%TD*%
%TO.C,P3*%
X154178000Y-119126000D03*
X156718000Y-119126000D03*
X159258000Y-119126000D03*
X161798000Y-119126000D03*
X164338000Y-119126000D03*
X166878000Y-119126000D03*
X169418000Y-119126000D03*
X171958000Y-119126000D03*
%TD*%
%TO.C,P4*%
X177038000Y-119126000D03*
X179578000Y-119126000D03*
X182118000Y-119126000D03*
X184658000Y-119126000D03*
X187198000Y-119126000D03*
X189738000Y-119126000D03*
X192278000Y-119126000D03*
X194818000Y-119126000D03*
%TD*%
%TO.C,P5*%
X122174000Y-70866000D03*
X124714000Y-70866000D03*
X127254000Y-70866000D03*
X129794000Y-70866000D03*
X132334000Y-70866000D03*
X134874000Y-70866000D03*
X137414000Y-70866000D03*
X139954000Y-70866000D03*
X142494000Y-70866000D03*
X145034000Y-70866000D03*
%TD*%
%TO.C,P6*%
X149098000Y-70866000D03*
X151638000Y-70866000D03*
X154178000Y-70866000D03*
X156718000Y-70866000D03*
X159258000Y-70866000D03*
X161798000Y-70866000D03*
X164338000Y-70866000D03*
X166878000Y-70866000D03*
%TD*%
%TO.C,P7*%
X171958000Y-70866000D03*
X174498000Y-70866000D03*
X177038000Y-70866000D03*
X179578000Y-70866000D03*
X182118000Y-70866000D03*
X184658000Y-70866000D03*
X187198000Y-70866000D03*
X189738000Y-70866000D03*
%TD*%
D12*
%TO.C,U1*%
X166368000Y-108736800D03*
D11*
X168908000Y-108736800D03*
X171448000Y-108736800D03*
X173988000Y-108736800D03*
X176528000Y-108736800D03*
X179068000Y-108736800D03*
X181608000Y-108736800D03*
X184148000Y-108736800D03*
X186688000Y-108736800D03*
X189228000Y-108736800D03*
X189228000Y-100796800D03*
X186688000Y-100796800D03*
X184148000Y-100796800D03*
X181608000Y-100796800D03*
X179068000Y-100796800D03*
X176528000Y-100796800D03*
X173988000Y-100796800D03*
X171448000Y-100796800D03*
X168908000Y-100796800D03*
X166368000Y-100796800D03*
%TD*%
D14*
%TO.C,JP2*%
X158582600Y-94234000D03*
D15*
X159882600Y-94234000D03*
%TD*%
D14*
%TO.C,JP1*%
X158582600Y-100304600D03*
D15*
X159882600Y-100304600D03*
%TD*%
D16*
%TO.C,R1*%
X129870200Y-85471000D03*
D17*
X140030200Y-85471000D03*
%TD*%
D18*
%TO.C,J1*%
X200436800Y-106926800D03*
X200436800Y-104766800D03*
X200436800Y-102606800D03*
X200436800Y-100446800D03*
X200436800Y-98286800D03*
X200436800Y-96126800D03*
X200436800Y-93966800D03*
X200436800Y-91806800D03*
X200436800Y-89646800D03*
X200436800Y-87486800D03*
X200436800Y-85326800D03*
X200436800Y-83166800D03*
X204726800Y-106926800D03*
X204726800Y-104766800D03*
X204726800Y-102606800D03*
X204726800Y-100446800D03*
X204726800Y-98286800D03*
X204726800Y-96126800D03*
X204726800Y-93966800D03*
X204726800Y-91806800D03*
X204726800Y-89646800D03*
X204726800Y-87486800D03*
X204726800Y-85326800D03*
X204726800Y-83166800D03*
D19*
X202581800Y-118446800D03*
X202581800Y-71646800D03*
%TD*%
D20*
%TO.C,J3*%
X130073400Y-105562400D03*
D21*
X130073400Y-103022400D03*
X130073400Y-100482400D03*
X130073400Y-97942400D03*
X130073400Y-95402400D03*
X130073400Y-92862400D03*
%TD*%
D22*
%TO.C,D1*%
X129970200Y-79730600D03*
D23*
X132510200Y-79730600D03*
%TD*%
D24*
%TO.C,JP3*%
X123134594Y-113080800D03*
X124434594Y-113080800D03*
X125734594Y-113080800D03*
%TD*%
%TO.C,JP4*%
X130144994Y-113080800D03*
X131444994Y-113080800D03*
X132744994Y-113080800D03*
%TD*%
M02*
